<?xml version="1.0" encoding="utf-8"?>
<!-- Generator: Adobe Illustrator 24.0.1, SVG Export Plug-In . SVG Version: 6.00 Build 0)  -->
<svg version="1.1" id="Layer_1" xmlns="http://www.w3.org/2000/svg" xmlns:xlink="http://www.w3.org/1999/xlink" x="0px" y="0px"
	 viewBox="0 0 745.7 745.7" style="enable-background:new 0 0 745.7 745.7;" xml:space="preserve">
<style type="text/css">
	.st0{clip-path:url(#SVGID_2_);}
	.st1{enable-background:new    ;}
</style>
<g>
	<defs>
		<rect id="SVGID_1_" x="-25.3" y="-24" width="800" height="641"/>
	</defs>
	<clipPath id="SVGID_2_">
		<use xlink:href="#SVGID_1_"  style="overflow:visible;"/>
	</clipPath>
	<g class="st0">
		<path d="M265.7,6.1c-0.9,4-1.8,7.7-2.7,11.6c5.8-0.9,11.5-1.8,17.7-2.8c2.4,27.2-0.1,53.2-10.3,79.2
			c67.2,13.2,134.4,11.9,202.7,4.9c-1.1-1.7-1.7-2.7-2.5-3.7c-14.8-18.3-22.1-39.6-24.9-62.6c-0.4-3.1-0.5-6.3-1-9.4
			c-0.5-3.4,1-4.3,4.2-4.4c12-0.5,23.5,1.6,34.8,5.5c0.7,0.3,1.5,0.5,2.5,0.8c-1.8-7.4-3.5-14.5-5.3-22c13-2.6,25-2.4,36.7,1.7
			c18.5,6.4,32.1,18.6,40.6,36.2c2,4,4.2,6.1,8.8,7.3c19,4.7,35.6,13.9,48.2,29.2c12.6,15.3,18.8,33.1,19.4,52.8
			c0.1,3,0.8,4.7,3.4,6.3c21,12.6,32.1,31.8,35.6,55.6c2.8,18.6,0.8,36.8-4,54.9c-0.7,2.5-0.3,5.6,0.6,8.1
			c5.3,15.3,9.4,30.7,11.6,46.8c2.3,16.6-0.8,32-8.2,46.9c-4.3,8.7-8.6,17.3-16.2,23.7c-3,2.5-2.9,4.6-1.3,8.1
			c7.1,16.2,3.8,31.6-4.9,46.2c-12.1,20.2-29.7,34.8-49.2,47.4c-3,2-4.5,3.8-4.7,7.7c-1.5,40.1-27.8,68.2-67.4,72.3
			c-5.1,0.5-10.3,0.5-15.4,1.1c-1.6,0.2-3.8,1.3-4.6,2.6c-14.4,24.9-37.3,30.9-63.7,28.7c-21.1-1.8-38.7-11.1-53.2-27
			c-6.8,4.8-14.3,7.4-22.8,6.7c-2.5-0.2-5.2-0.2-7.3-1.2c-4.6-2.3-8-1.1-12.3,1.2c-20.4,11.2-42,19.2-65.1,22.6
			c-23.1,3.4-38.4-4.6-50-26.7c-2.5-4.7-5.5-5.7-10-6.1c-15.5-1.4-30.4-5.2-44.7-11.4c-17.2-7.5-26.3-20.6-29-38.8
			c-0.9-6.2-0.5-13.6-3.7-18.3c-3-4.5-10.2-6.1-15.3-9.5c-21.9-14.4-37.5-33.5-41.5-60.1c-1.2-7.8-0.2-15.9-0.4-23.9
			c0-1.6-0.6-3.6-1.6-4.6c-15.6-14.6-22.9-33.2-25.6-53.8c-3.1-24,1.6-47,9.3-69.6c0.8-2.2,0.7-5.2-0.1-7.4
			c-9.7-29.1-12.3-58.1-0.4-87.3c6-14.7,16-26.3,28.5-36c1.5-1.2,2.8-3.5,3-5.5c2.8-37.2,23.7-60.9,56.6-75.6
			c5.6-2.5,11.6-4,17.4-6.1c1.3-0.5,3.2-1.6,3.4-2.7c2.8-12.2,11.3-19.9,21.3-25.9C222,8,243.3,5.3,265.7,6.1z M529.7,322.3
			c-17.5,17-32.5,20.1-41.9,8.6c1.6,0.2,2.9,0.4,4.2,0.6c13.9,3.1,22.6-0.5,29.7-13c8.7-15.4,12.7-32.1,13.1-49.6
			c0.2-12.6-0.5-25.3-1-37.9c-1.3-33.3-2.7-66.5-4-99.8c-0.4-9.9-0.9-19.9-1.3-29.9c-7.1,2.7-13.7,5.6-20.6,7.7
			c-29,8.9-59.1,11.3-89.2,12.5c-38.8,1.5-77.6,1.6-116.2-3.6c-25.9-3.5-51.5-8.6-75.4-19.8c-5.4-2.5-10.5-5.5-16.2-8.4
			c-1.3,29.9-2.6,59.5-3.9,89c-0.9,21.3-2.3,42.6-2.8,63.9c-0.4,15.2-3.1,30.5,0.6,45.8c3.3,13.8,6.4,27.6,14.2,39.6
			c7.4,11.3,16.1,14.2,28.7,9.7c1.7-0.6,3.3-1.2,5.4-1.9c-6.8,11.8-22,12-38,0.6c0.5,1.8,0.9,3.2,1.4,4.6c4.8,14,9.4,28,14.5,41.9
			c12.9,35.2,27.1,69.8,48.3,101c4,5.9,8.7,11.4,13,17c-13.4-30.5-24.6-61.3-27.9-94.6c1.7,1.3,2.7,2.8,3.3,4.4
			c5.1,12.6,10.1,25.3,15.1,38c8.4,20.8,17.1,41.6,30.2,60c5.7,8.1,12.7,14.4,22.8,16.6c8.1,1.8,16,4.5,24.1,6.4
			c10.8,2.4,20.2-3.6,23-14.4c1.8-6.5,0.9-12-2.1-13.3c-3.6-1.6-9.4,0.8-13.4,5.7c-1.9,2.4-3.7,4.8-5.5,7.3
			c-0.5-0.3-1.1-0.5-1.6-0.8c1.4-3.7,2.3-7.7,4.3-11.1c4-7,12.1-10.5,18.6-8.8c6.1,1.6,10.5,7.9,9.7,16.7c-0.7,7.1-3.3,14.1-5,20.9
			c15.2-1.7,29.8-8.6,44.4-15.6c8.6-4.2,14.5-10.6,17.9-19.7c4.1-11.1,8.8-21.9,12.9-32.9c7.5-19.7,14.7-39.6,22.1-59.3
			c0.9-2.3,2.5-4.2,3.8-6.3l2.1,0.9c-1.9,29.8-11.5,57.6-22.5,85.2c9.3-10.8,18.6-21.7,24.4-34.8C510.6,410.3,523,367.7,529.7,322.3
			L529.7,322.3z M115.9,136.8c-17.2,10.1-29.5,23.8-36.5,42.1c-8.7,22.7-7.9,45.9-4.2,69.4c0.3,2.2,0.9,4.3,1.6,7.6
			c2.5-5.4,4.5-9.7,6.8-14.4c16.1,15.5,28.4,33.1,40.2,51.1c2.8-3.7,4.9-7.2,7.7-9.9c2.4-2.4,2.8-4.6,1.8-7.5
			c-0.5-1.6-0.8-3.2-1.1-4.9c-3.6-22.2-2.6-43.5,13-61.7c1.1-1.2,1.5-3.8,1-5.4C139.7,179.6,129.7,157.6,115.9,136.8L115.9,136.8z
			 M619.1,286.9c10.8-20.8,19.4-42.8,41.3-55.3c1.8,3.7,3.3,6.8,5,10.4c0.5-1.1,0.8-1.6,0.9-2.2c2-18.5,2.3-36.9-3-54.9
			c-6.9-23.2-21.5-39.2-44.9-47.1c-0.6,0.9-1.2,1.5-1.6,2.2c-10.1,17.9-16.6,37.2-20.9,57.3c-0.3,1.3,0.2,3.1,1,4.1
			c15.6,20.3,18.4,42.8,12.2,67c-0.3,1.3-0.3,3.1,0.4,4.2C612.6,277.3,615.8,281.9,619.1,286.9z M598,472.9
			c13.3-11.4,26.5-22.2,36.4-36.1c5.8-8.2,11.1-17.1,14.6-26.4c4.9-12.9,2-25.2-7.6-35.6c-2.3-2.5-4.6-3.5-7.9-2.4
			c-4.8,1.7-9.9,3-14.6,5.1c-21,9.4-37.4,24.7-52.4,41.6c-4.6,5.2-9.7,10.4-12.6,16.6c-5.2,11.3-11.5,21.3-20.9,29.4
			c-1.4,1.2-2.4,2.8-3.5,4.1c2.6,0.3,4.5-0.1,6.3-0.7c16.8-5.2,33.8-8.9,51.4-8.6c8.4,0.1,8.4,0,9.8,8.6
			C597.3,469.8,597.6,471.1,598,472.9z M99.1,364.9c20.7,9.7,39.2,21.9,57.5,35.3c-3.8-39.8-46.7-125.4-70.3-141.3
			C64.1,300,67.2,367.4,92,386.7C94.3,379.7,96.6,372.5,99.1,364.9z M592.4,382.3c0.5-0.4,1.1-0.7,1.6-1.1
			c12.7-9,26.4-16.2,41.9-18.6c2.6-0.4,5.8,0.6,8.1,2.1c3.3,2.1,5.9,5.2,9.2,8.3c12.5-17,21.6-35.6,21.5-57.3
			c-0.1-21.4-7.1-41.4-14.6-61.2c-1.1-2.8-2.3-5.6-4.2-10C623.1,286,609.9,335,592.4,382.3L592.4,382.3z M156.3,475
			c1.9,11.8,3.9,22.5,5.4,33.3c2,14,10,23.2,22.2,29.3c2.7,1.4,5.3,2.8,8.1,3.8c12.6,4.3,25.3,8.4,39,12.9c-1.2-6.4-2.1-11-3-15.7
			c-0.7-3.7,0.1-6.3,4.1-7.7c13.8-4.8,27.4-10,41.2-14.8c4.3-1.5,8.8-2.2,14.8-3.6c-4.3-3.2-7.2-5.9-10.6-7.8
			c-30.3-16.8-63.1-25.4-97.3-28.6C172.8,475.4,165.3,475.4,156.3,475L156.3,475z M462.5,509.5c18.9,4.7,35.3,11.6,51.2,20.2
			c3.9,2.1,4.9,4.5,3.8,8.4c-1.2,4.4-2.5,8.8-3.7,13.3c56.8-4.8,79.5-42.6,73.1-83c-10,1.3-20.1,2.2-30,4.1
			c-30.5,6.1-59,18.1-87.1,31.1C467.3,504.8,465.4,507.1,462.5,509.5L462.5,509.5z M104.6,377.8c-7,20.6-7.6,40.2,1.2,59.5
			c8.9,19.5,24,33.2,42,45.2V470c0-2.6,0.9-4.1,3.8-3.9c11.8,0.6,23.6,0.9,35.4,1.8c7.7,0.6,15.3,2.1,24.2,3.4
			C186.1,427.5,146.3,402.3,104.6,377.8z M598.5,159.5c4.4-9.6,8.9-19,13.2-28.5c1.3-2.8,3.2-3.5,6-2.7c4.2,1.3,8.4,2.5,12.8,3.8
			c-6.3-45.3-40.4-75.6-84.9-78c-0.2,0.3-0.5,0.6-0.5,0.8c0.6,14.4,1.2,28.9,2.1,43.3c0.1,1.6,2,3.2,3.4,4.4
			c4.9,4.2,10.4,7.8,14.9,12.4c11.3,11.4,17,25.5,18.6,40.9C589.1,157.2,593.9,158.4,598.5,159.5L598.5,159.5z M141.5,167
			c2.6-0.7,5.1-1.7,7.7-1.9c2.9-0.2,3.4-1.7,3.6-4.2c2.2-21.8,11.7-39.6,29.1-53.1c1.9-1.5,3.2-4.4,3.7-6.9c1.2-6,1.9-12.1,2.6-18.3
			c1.1-9.2,1.9-18.4,2.9-27.7c-35.5,0.4-84.3,45.2-82,74.8c1.7-0.9,3.4-1.6,4.9-2.6c3.3-2.1,5.6-1.9,7.6,1.9c2.7,5.1,6.2,9.9,8.9,15
			C134.4,151.7,137.9,159.4,141.5,167z M353.8,563.1c-4.8-6.8-8.6-12.5-12.7-18c-1.4-1.9-3.2-4-5.3-5c-13.1-6.5-27.5-10-39.4-19
			c-1.5-1.1-4.6-1.3-6.5-0.6c-16.4,5.4-32.7,11.1-49,16.5c-3.1,1.1-3.7,3-2.6,5.7c2.3,5.8,4.1,12,7.2,17.4
			c7.4,12.8,17.4,22,33.6,20.7c4.1-0.3,8.4-0.3,12.4-1.4C312.4,574.1,333.4,568.5,353.8,563.1L353.8,563.1z M395.8,558
			c20,15.4,42.5,23.5,68.7,19.7c22.3-3.2,35.6-16.1,42.6-36.8c0.8-2.4,1-3.8-1.6-5.2c-15-8.1-30.4-14.8-47-19
			c-1.2-0.3-3.2-0.3-4,0.5c-14.1,12.4-31,19-48.3,25.3c-1.2,0.4-2.5,1.5-3.2,2.7C400.5,549.3,398.3,553.5,395.8,558z M590.8,302.5
			c3.8-11.1,7.8-21.2,10.5-31.6c4.5-17.3,4.4-34.5-3.6-51.1c-5.6-11.6-13.8-20.8-24.8-27.6c-19.2,32-27.6,84.1-17.5,106.2
			c7.5-5.2,15.1-10.4,23.3-16C582.7,289.3,586.3,295.2,590.8,302.5L590.8,302.5z M166.4,281.3c6.6,5.5,12.4,10.2,18.1,14.9
			c12.2-30.2,8-69.5-16.3-94.1c-14.9,8.3-25.1,20.5-27.8,37.5c-1.5,9.4-1.3,19.2-0.5,28.8c1.2,14.2,5.7,27.8,11,41
			C156,300.1,161,291.1,166.4,281.3L166.4,281.3z M215.4,378.5c3.1-30.5-20-62.6-46-82.5c-25.9,39.7-22,79.4,15,100.9
			c0.5-7,1-14.1,1.5-22.1C196.2,376.1,205.7,377.3,215.4,378.5z M553.4,365.4c2.2,12,4.3,23.2,6.3,34.4
			c38.1-29.9,36.9-71.8,15.2-104.1c-26.2,18.7-45,41.8-47,75.7C536.1,369.4,544,367.6,553.4,365.4L553.4,365.4z M262.6,480.4
			c0-0.1,0.1-0.3,0-0.4c-15.7-27.5-27.5-56.7-37.6-86.6c-0.4-1.2-1.2-2.8-2.1-3c-9.3-2.2-18.6-4.2-27.8-6.3
			C185.7,423,222.3,474.2,262.6,480.4L262.6,480.4z M546.2,376.9c-1.4,0.1-2.6-0.1-3.6,0.2c-4.7,1.2-9.4,2.2-13.9,3.8
			c-1.6,0.6-3.4,2.5-3.9,4.1c-8.3,31.6-15.8,63.5-33.9,91.6C534.7,467.5,559.1,430.3,546.2,376.9L546.2,376.9z M454.7,28.2
			c0.4,3.3,0.7,6.2,1.1,9.2c3.2,20.9,10.2,40.1,23.5,56.8c1.8,2.2,3.3,3,6.3,2.3c7.6-1.9,7.6-1.7,7.6-9.4c0-1.7,0.2-3.4,0-5
			c-0.8-4.7,1.3-5.9,5.8-5.8c9.6,0.3,19.2,0.1,29,0.1C521.6,52.3,484.3,27.7,454.7,28.2z M192.5,112.4c-25,11.3-42.4,55.5-32.8,83.6
			c1.5-0.8,2.9-1.5,4.4-2.3c6.5-3.6,6.5-3.6,11.4,2c2.8,3.2,5.4,6.7,8,9.9c8.2-3,8.2-3,8.3-11.1c0.2-11.6,0.6-23.3,0.7-34.9
			C192.6,143.9,192.5,128.3,192.5,112.4L192.5,112.4z M578.2,183.9c5.4-28.8-11.1-65.3-31.8-72.4c0,25,0,50.2,0.1,75.5
			c0,1.4,0.5,3.1,1.4,4c3.2,3.3,6.7,6.3,10.2,9.5c3.7-7.4,7.1-14.1,10.7-21.3C572.3,181,575.2,182.5,578.2,183.9L578.2,183.9z
			 M271.5,25.7c-23.3,4.8-38,19.5-49.9,39.9h18.1c0,5.8-0.1,10.8,0.1,15.8c0,1.2,0.8,3.2,1.7,3.5c6.9,2.6,13.9,4.8,20.7,7.1
			C269.9,77.3,273.7,41.2,271.5,25.7L271.5,25.7z M489.9,10.5c0.7,5.1,1.2,9.9,2.1,14.6c0.3,1.6,1.5,3.5,2.9,4.2
			c17.4,9.5,30,23.4,38.1,41.4c0.6,1.3,2.4,1.9,4.2,3.3V45.2h16.9C539.8,23.1,513.8,8.1,489.9,10.5z M198.5,65.4
			c3.5,0,6.3-0.3,9.1,0.1c4.3,0.5,6.7-0.9,8.8-5.1c8.2-16.7,19.8-30.3,37-38.3c4.3-2,5-4.5,3.8-8.7c-26.8,4.4-53.4,8.6-72.6,32.9
			c6.2-1,10.9-1.7,16.2-2.5C200,51.1,199.3,57.8,198.5,65.4L198.5,65.4z M351.4,544.8c4.8,8.1,11.7,12.7,21.2,13.3
			c10.4,0.6,18.4-3.9,23.9-11.6C381.6,545.9,366.6,545.3,351.4,544.8z M283,645.1c-0.5,11.2-1,21.1-1.5,31.5h-8.8
			c0.4-7.8,0.8-15.5,1.2-23.2c0.3-5,0.8-10,0.9-14.9c0.1-3,1.2-4,4.2-4.1c9-0.2,9-0.3,11.5,8.2c1.8,6.5,3.5,13,5.5,20.2
			c2.7-8.7,5.1-16.7,7.6-24.6c1.1-3.6,5.1-5,11.3-3.4c1.3,0.3,2.6,3.3,2.7,5.2c0.8,12.1,1.3,24.2,1.9,36.8h-10v-29.2
			c-0.4,0-0.9-0.1-1.3-0.1c-2.7,8.5-5.5,16.9-7.9,25.5c-0.8,3-2.4,3.3-5,3.4c-2.8,0.1-4.1-0.8-4.8-3.6
			C288.2,663.8,285.7,655.1,283,645.1L283,645.1z M196,678v-42.8c7.6,0,15.1-0.8,22.3,0.2c9.4,1.3,15.2,9.4,15.3,19.4
			c0.1,10.4-5.4,19-14.9,21C211.5,677.3,204,677.3,196,678L196,678z M205.3,642.2v27.5c6.6,0.8,12.1,0,15.5-5.4
			c3.3-5.2,3.5-11.2,0.6-16.6C218.2,641.6,212.2,641.3,205.3,642.2z M388.8,652.9c3.4-4.8,6.6-8.3,8.5-12.4c3.3-7.3,9-6.3,15.8-5.7
			c-4.2,5.4-7.8,10.3-11.6,15c-1.8,2.2-1.8,3.8-0.3,6.1c4.3,6.7,8.3,13.6,12.4,20.5c-10.1,1.8-10.1,1.8-14.8-6.4
			c-2.1-3.6-4.2-7.1-6.3-10.8c-6.6,4.8-2.3,11.7-4.2,17.6h-9.1c0-13.3-0.1-26.4,0.1-39.6c0-0.9,1.6-2.4,2.7-2.6
			c2-0.4,4.2-0.1,6.8-0.1V652.9z M148.1,635c-3.7,4.8-6.7,9.4-10.4,13.3c-3,3.2-2.6,5.6-0.4,9c4.1,6.2,7.7,12.6,12,19.7
			c-2.4,0-3.9-0.2-5.3,0c-4.3,0.6-7-0.7-8.9-5c-2-4.5-4.9-8.6-7.4-12.9c-6.5,4.8-2.4,11.8-4.3,17.6h-8.5v-41.9h8.7v16.7
			c0.4,0.1,0.7,0.3,1.1,0.4c2.6-3.7,5.7-7.1,7.6-11.1C135.6,633.9,140.9,633.5,148.1,635L148.1,635z M454.7,676.8h-10.2
			c-1.4-3.6-1.8-8.4-4.3-10.2c-2.4-1.7-7-0.4-11.2-0.4c-0.5,1.6-1.2,3.4-1.8,5.3c-0.5,1.7-1,3.5-1.6,5.3h-9.8
			c1.3-4.2,2.5-8.2,3.8-12.3c2.7-8.7,5.5-17.4,7.9-26.2c0.8-2.9,1.9-4.2,5-4c10.8,0.4,8.2-1.5,11.3,8.3
			C447.5,653.8,451,665.1,454.7,676.8L454.7,676.8z M435.2,643.9c-0.4,0-0.7,0.1-1.1,0.1c-1.2,4.8-2.4,9.7-3.7,14.8h9
			C438,653.6,436.6,648.8,435.2,643.9L435.2,643.9z M95.5,634.9c4.3,13.8,8.7,27.6,13.1,41.9h-9.7c-3.9-3-0.3-10-8.1-11.1
			c-9.8-1.4-9.4,5.7-11.2,11.2h-9.9c3.3-10.8,6.5-21.4,9.7-31.9C83.1,633.5,83,633.4,95.5,634.9L95.5,634.9z M84.3,658.8h9
			c-1.4-5.1-2.8-9.9-4.1-14.7h-1C87,648.8,85.8,653.5,84.3,658.8z M189.9,676.8c-1.7,0.1-2.8,0-4,0.2c-5,0.9-7.8-1-8.3-6.2
			c-0.4-3.7-2.2-5.5-6.2-4.9c-2.3,0.3-4.6,0.1-7,0.1c-1.3,3.8-1.8,8-4.1,10.5c-1.3,1.5-5.6,0.3-9.2,0.3c4.2-13.6,8.2-26.9,12.4-40.1
			c0.3-1,2.1-2,3.2-2.2c2.4-0.3,5-0.3,7.5,0c1.1,0.1,2.7,1,3,1.9C181.5,649.7,185.6,663.1,189.9,676.8L189.9,676.8z M174.7,658.8
			c-1.5-5.3-2.9-10.3-4.6-16.5c-1.7,6.2-3,11.2-4.5,16.5H174.7z M544.2,634.8h25.5v7.7H554v8.5h15v7.8h-15v10.1h16.6v7.8h-26.4
			L544.2,634.8L544.2,634.8z M240.1,634.7h25.5v7.7h-15.8v8.4h14.8v8h-14.9v9.9h16.8v7.8h-26.4V634.7L240.1,634.7z M642.5,634.8v7.7
			h-15.8v8.4h14.9v8h-15v9.8h16.8v7.9h-26.3v-41.8L642.5,634.8L642.5,634.8z M574.7,676.8c3.6-6.4,6.9-12.4,10.4-18.1
			c1.4-2.3,1.4-4,0-6.3c-3.3-5.5-6.3-11.2-10.2-18c4.8,0.9,9.3-2.4,12.2,2.6c2.2,3.7,3.8,7.6,5.9,11.9c1.4-3,2.5-5.4,3.6-7.8
			c3.5-7.7,3.9-7.8,13.6-5.9c-3.4,5.9-6.8,11.5-9.7,17.3c-0.8,1.5-0.8,4.1,0,5.6c3.2,6.1,6.9,12,11.1,19.3c-5-1.6-9.8,2.3-12.7-3.2
			c-2-3.8-3.9-7.7-6.2-12.3c-1.7,3.5-3.5,6.3-4.3,9.3c-1.4,4.9-4.3,6.6-9.1,5.8C577.8,676.8,576.6,676.9,574.7,676.8L574.7,676.8z
			 M516.7,662.6v14.2h-9.1V635c6.4,0,12.9-0.5,19.2,0.1c6.6,0.6,10.6,5.5,10.9,11.6c0.4,6.8-3.2,12.2-9.6,14
			C524.7,661.7,521,661.9,516.7,662.6L516.7,662.6z M517,642v12c4,0.7,7.8,1,9.9-2.7c1-1.7,1.2-4.8,0.3-6.5
			C525.2,640.8,521.2,641.5,517,642z M473.3,668c4.6,0.4,8.9,1.1,13.1,1c1.5,0,3.8-2,4.1-3.3c0.2-1.4-1.2-3.8-2.6-4.7
			c-2.8-1.8-6.1-2.6-9-4.2c-4.5-2.3-7.4-6-6.9-11.2c0.5-5.3,3.8-8.8,8.8-10.5c5.9-2,11.8-1.6,18.1,0.8c-0.6,2.4-1.1,4.7-1.7,6.9
			c-3.6-0.4-6.9-1.1-10.1-0.9c-1.8,0.1-3.5,2-5.2,3c1.2,1.6,2,3.7,3.5,4.7c2.6,1.7,5.8,2.5,8.6,3.9c4.5,2.3,7.1,6.1,6.7,11.3
			c-0.4,5.3-3,9.4-8.2,10.8c-4.1,1.1-8.5,1.5-12.7,1.2C471.2,676.4,471.1,676,473.3,668L473.3,668z M370.8,636.4
			c-0.7,2.4-1.4,4.6-2,6.6c-3.4-0.4-6.6-1.2-9.6-0.9c-1.9,0.2-3.6,2.1-5.4,3.2c1.2,1.6,2.1,3.6,3.7,4.6c2.5,1.6,5.5,2.3,8.1,3.7
			c4.7,2.4,7.4,6.3,7,11.6c-0.4,5.2-3.4,8.9-8.4,10.8c-6,2.2-12.1,2-18,0c-3.1-1-3.1-1.3-0.9-8c4.3,0.4,8.5,1.2,12.7,1.1
			c1.6-0.1,4.3-2,4.5-3.5c0.2-1.4-1.6-3.8-3.2-4.8c-2.8-1.8-6.1-2.6-9-4.2c-4.2-2.3-6.8-5.9-6.4-10.9c0.5-4.9,3.2-8.2,7.7-10.1
			C357.1,633.3,364.1,633.5,370.8,636.4L370.8,636.4z M466,746.7c0.7-10,1.3-19.7,1.9-29.4c7.8-2.2,8.9-1.6,11,5.7
			c1.2,4,2.3,8.1,3.8,13.4c1.6-5.3,2.8-9.3,4.1-13.3c2.3-7.4,2.3-7.4,11-6c0.5,9.7,1.1,19.6,1.7,29.7H493
			c-0.4-6.6-0.7-13.1-1.1-19.7c-0.3-0.1-0.6-0.1-0.8-0.1c-1.6,5.3-3.1,10.6-5.1,15.8c-0.6,1.6-2.7,2.6-4.1,3.9
			c-1.2-1.3-2.9-2.4-3.4-4c-1.7-5-2.9-10.1-5.1-15.3c-0.4,6.4-0.7,12.8-1.1,19.4C470.2,746.7,468.3,746.7,466,746.7L466,746.7z
			 M658.9,642.6h-11.1v-8.1c10.2,0,20.3-0.2,30.4,0.3c1,0.1,1.9,4.3,3.1,7.5c-5,0.2-8.6,0.4-12.6,0.6v33.8h-9.9
			C658.9,665.6,658.9,654.4,658.9,642.6z M411.5,746.4v-28.7c7.8-3.1,18.9-1.5,23.3,3.3c4,4.4,4.6,13,1.3,18.7
			C432.5,746.2,423.9,748.5,411.5,746.4L411.5,746.4z M417.9,741.5c8.3,1,12.7-2.4,12.9-9.5c0.2-6.9-3.2-10.7-9.7-10.2
			c-1.1,0.1-3.1,1.6-3.1,2.5C417.8,730,417.9,735.8,417.9,741.5L417.9,741.5z M184.9,746.4v-29.3c8.7-1.3,17.2-2.4,23.7,4.8
			c4,4.4,3.9,12.7,0.5,18.3C205.6,746.2,196.8,748.5,184.9,746.4z M191.7,722v19.8c4.8,0.6,8.8-0.4,11-4.5c2.1-3.8,2.2-8-0.1-11.9
			C200.1,721.4,196.2,721.3,191.7,722L191.7,722z M255,746.9v-30.3c4.5,0,9-0.6,13.2,0.2c2.8,0.6,6.3,2.8,7.3,5.3
			c0.9,2.2-1.1,5.7-2,9.2c2.4,1.3,4.5,4.4,3.3,8.9c-1.2,4.6-4.9,6.2-9,6.6C263.8,747.3,259.6,746.9,255,746.9z M262.1,733.6v8.5
			c3.5-0.1,7.5,0.6,7.6-4.1C269.9,732.9,265.6,733.9,262.1,733.6z M261.9,729.4c2.9-1.3,5.1-2,7-3.2c0.4-0.3,0.3-2.7-0.1-3
			c-2-1-4.2-1.6-6.9-2.5V729.4z M280.6,732.2c0-9.5,5.9-16.1,14.5-16.2c8.9-0.1,14.7,6.2,14.6,15.9c0,9.4-6,15.6-15,15.7
			C286.5,747.6,280.6,741.2,280.6,732.2z M302.9,732.2c-0.4-2-0.7-3.5-1.1-4.9c-1-3.3-3-6.2-6.6-5.4c-2.4,0.6-5.7,2.9-6.2,5.1
			c-0.9,3.6-0.7,8,0.6,11.4c1.9,5,8.3,5.1,11,0.4C301.8,736.6,302.2,734.1,302.9,732.2L302.9,732.2z M549.9,746.4
			c-5.9,2-8.2-0.4-8.9-5.2c-0.6-3.8-1.8-6.9-7.2-6v11.4H527v-30.4c5.6,0.3,11.2-0.1,16.5,1.2c6.7,1.7,6.9,9.8,1.2,14.5
			C546.5,736.8,548.2,741.5,549.9,746.4z M534.1,730.9c2.8-1.2,5.3-1.8,7.1-3.3c0.7-0.6,0.6-3.8-0.2-4.4c-1.7-1.3-4.1-1.8-6.9-2.8
			L534.1,730.9L534.1,730.9z M377.7,746.5c-5.7,1.8-8.9-0.2-10.9-5.1c-1-2.4-2.6-4.6-3.9-6.9c-0.6,0-1.1,0-1.7-0.1
			c-0.6,3.9-1.3,7.8-1.9,12.2c-0.5,0.1-1.4,0.3-2.4,0.3s-2-0.1-3.7-0.2c0-9.3-0.2-18.6,0.2-27.8c0.1-1.2,3.3-2.2,6.2-4v13.8
			c6.2-4.1,6.5-15.2,17.3-11.7c-2.3,3.1-4.3,6.2-6.8,8.9c-2.4,2.6-2.3,4.5-0.4,7.3C372.6,737.5,375,742,377.7,746.5L377.7,746.5z
			 M339.1,739.3c-8.1-0.6-8.1-0.6-10.7,7.4h-6.9c2.9-9.7,5.5-19.2,8.8-28.5c0.4-1.1,3.9-1.6,6-1.6c1.3,0,3.4,1,3.7,2
			c3.1,9.2,6,18.6,8.9,27.9C341.8,747.5,341.8,747.5,339.1,739.3L339.1,739.3z M335.3,724.2c-0.3,0-0.7,0-1-0.1
			c-0.9,3.1-1.7,6.3-2.6,9.4h6.3C337,730.1,336.2,727.2,335.3,724.2L335.3,724.2z M250.4,746.8h-7.2c-0.9-2.4-1.8-4.9-2.8-7.6h-7.9
			c-3,8.1-3,8.1-9.6,7.5c2.9-9.4,5.6-18.7,8.7-27.9c0.4-1.2,3-2.2,4.6-2.2c1.8,0,4.8,0.8,5.2,2C244.7,727.7,247.4,737.1,250.4,746.8
			L250.4,746.8z M239.5,733.8c-1-3.6-2-6.9-3.3-11.4c-1.1,4.6-1.9,7.8-2.8,11.4H239.5L239.5,733.8z M407,746.8h-7.3
			c-0.9-2.5-1.7-5-2.5-7.4c-8-1.1-8-1.1-11,7.3h-6.8c2.9-9.7,5.5-19.1,8.7-28.3c0.4-1.2,3.8-2,5.8-1.9c1.5,0,3.9,1.4,4.3,2.6
			C401.3,728.1,404,737.2,407,746.8L407,746.8z M393.4,724.2c-0.4,0-0.7,0-1.1-0.1c-0.9,3.1-1.7,6.2-2.6,9.6h6.3
			C395.1,730.4,394.2,727.3,393.4,724.2L393.4,724.2z M336.5,634.8v41.8h-9.3v-41.8H336.5z M449.6,728.4h10.7c0.2,2,0.3,3.4,0.4,5.5
			h-11.1v7.1h11.9v5.7h-18.6v-29.8h17.7v5.1h-11V728.4z M140.4,717.1c5.4-1.8,8-0.5,9,4.7c1,5.5,2.9,10.9,4.8,17.4
			c1.9-6.5,3.7-12,5.1-17.6c1.1-4.6,3.3-6.5,8.7-4.5c-3.1,9.5-6.2,19-9.7,28.4c-0.4,1-3.7,1.3-5.7,1.3c-1.1,0-2.8-1.1-3.1-2.1
			C146.3,735.7,143.5,726.6,140.4,717.1L140.4,717.1z M565.9,716.7h17.7c0.1,1.7,0.2,3.1,0.3,5.1c-3.8,0.2-7.3,0.4-11.2,0.5v6.5
			h10.2c0.2,2,0.3,3.6,0.5,5.7c-3.7,0.2-7.1,0.4-11.1,0.6v11.6H566C565.9,736.8,565.9,726.9,565.9,716.7L565.9,716.7z M511.3,746.7
			h-6.2v-30c2-0.1,3.9-0.2,6.2-0.3V746.7z M171.6,717c4.9-1.4,7.1-0.5,6.8,4.6c-0.4,8.3-0.1,16.5-0.1,25.1h-6.7v-14.6V717z"/>
		<path d="M236.4,717.3c-2.2-3.1-4.7-5.2-4.4-6.5c0.4-1.7,3.2-4,4.8-3.9c1.7,0.1,4.3,2.6,4.5,4.3
			C241.6,712.5,238.9,714.3,236.4,717.3L236.4,717.3z M562.6,743.6c-2.6,1.9-4.3,4-5.4,3.7c-1.7-0.4-2.9-2.5-4.4-3.8
			c1.4-1.4,2.6-3.7,4.2-4C558.3,739.2,560,741.5,562.6,743.6L562.6,743.6z M588.8,737.3c1.8,3,3.8,4.8,3.5,6.2s-2.6,3.1-4.3,3.4
			c-0.8,0.2-3.1-2.5-3.1-3.8C585,741.6,586.8,740.1,588.8,737.3L588.8,737.3z M454.1,362.1c7.8,0.4,13.4,5.7,13.5,14
			c0.1,5.6-0.6,11.4-2.1,16.7c-3.1,11-6.3,22.1-10.8,32.6c-9.6,22.6-26.8,32.7-51.7,25.8c-6.1-1.7-12-4.2-18.2-5.2
			c-10-1.7-19.8,0.2-29.4,3.6c-11.9,4.2-24,4.7-36.3,1.3c-5.1-1.4-9-4.2-11.4-8.9c-7.7-14.7-15.6-29.3-23.1-44.2
			c-4-7.9-5.3-16.4-2.9-25.2c2.5-9.1,7.5-11.8,17.1-8.9c-1.2,1.8-2.5,3.5-3.6,5.3c-3.9,6.4-2.3,11.5,4.8,13.6
			c4.7,1.4,9.8,2.4,14.7,2.1c12.1-0.6,24.2-1.5,36.3-3.1c19.8-2.7,39.4-2.2,59.1,0.7c11.8,1.7,23.8,3,35.7-0.4
			c6.3-1.8,9.2-6.6,10.6-12.1C456.9,367.7,454.9,364.8,454.1,362.1L454.1,362.1z M487.8,201.9c-2.9,2.3-5.5,5.1-8.7,6.7
			c-10.8,5-21.8,9.6-32.8,14.3c-0.9,0.4-1.8,0.7-3.8,1.5c8.3,2.7,15.7,5.1,23,7.5c7.5,2.5,15.1,5,22.5,7.9c7.3,2.8,15,4.9,21,10.2
			l-0.3,1.8c-3,0-6,0.4-8.9-0.1c-30.7-4.7-60.3-13.1-87.7-28.2c-4.3-2.4-8-6-12-9.1c0.3-0.6,0.6-1.3,0.9-1.9
			c2.1,0.3,4.3,0.3,6.4,0.9c6.5,1.9,13,3.9,19.4,6.1c2.7,0.9,4.4,0.4,6.7-1.3c13.7-10.3,29.2-16.3,46.1-18.7c2.4-0.3,5,0.2,7.5,0.4
			C487.3,200.7,487.6,201.3,487.8,201.9L487.8,201.9z M362.1,214.3c-4.7,3.1-9.1,6.9-14.2,9.3c-22.7,10.7-46.9,16.5-71.6,20.4
			c-5.1,0.8-10.2,1.4-15.4,1.8c-3,0.2-6.1-0.3-9.2-0.4c-0.2-0.6-0.4-1.2-0.5-1.9c2.1-1.2,4.1-2.9,6.4-3.6
			c15.2-4.7,30.5-9.3,45.7-13.9c5.1-1.5,10.2-2.7,15.9-4.2c-15.5-7.5-31.8-12.7-43.7-24.9c0.2-0.8,0.4-1.5,0.6-2.3
			c3.3,0.2,6.7-0.2,9.9,0.6c15.8,4,30.4,10.6,43.1,21.1c1.4,1.2,4.1,1.9,6,1.5c7.3-1.5,14.5-3.5,21.8-5.2c1.4-0.3,2.8-0.3,4.3-0.4
			C361.4,212.9,361.8,213.6,362.1,214.3L362.1,214.3z M238.8,181.6c2.1-12.6,10-22,19.3-30.2c16-14.1,34.4-18.8,54.6-10.9
			c13.1,5.1,23.6,13.6,29.5,26.6l-0.9,1.5c-1.8-0.6-3.6-0.9-5.2-1.8c-3.7-2-7.2-4.2-10.8-6.3c-23.9-14-42.8-12.6-64.4,4.8
			c-5.2,4.2-10,8.8-15,13.2c-1.7,1.5-3.6,2.8-5.4,4.2C239.9,182.4,239.4,182,238.8,181.6z M406,170.7c2.7-16.4,31.9-31.4,54.1-28.6
			c21.9,2.7,49,30,47.2,48.8c-2.2-1.6-4-2.7-5.6-4.1c-8.1-7.3-15.7-15.3-24.4-22c-14-10.7-29.7-11.7-45.8-5.2
			c-6.6,2.7-12.9,6.2-19.3,9.2C410.3,169.6,408.3,170,406,170.7L406,170.7z M346.1,317.9c-2.5,5.8-13.5,10.1-20.7,8.8
			c-8.2-1.5-11-6.3-11.2-18.9c-10,5.8-19.5,12.6-31.6,13.7c25.6-21.1,51.2-42.1,76.8-63.2c0.3,0.1,0.6,0.2,0.9,0.2
			c-1.2,2.6-2.1,5.4-3.7,7.8c-8.4,13-19.4,23.6-31.4,33.1c-4.2,3.3-5.7,13.9-1.9,17.4c1.8,1.6,5.1,2.3,7.7,2.3
			C335.9,319.2,340.7,318.4,346.1,317.9L346.1,317.9z M396.6,258.5c16.6,27.7,45,41,70.6,57.7c-0.3,0.7-0.5,1.3-0.8,2
			c-3.6-0.8-7.4-1.3-10.9-2.4c-3.6-1.1-7.1-2.6-11-4.2c-2.5,8-6.9,13.4-16.1,12.1c-5.7-0.8-9.1-4-9.5-8.7c7.2,0.4,15.7,4.4,19.8-6
			c-19.5-11.9-38.9-24.2-44.1-48.7C395.2,259.8,395.9,259.1,396.6,258.5z M367,329.6c5.8,0.6,11.6,1.6,17.4,1.5
			c5.6-0.1,11.2-1.4,17.3-2.2c-2.6,7.3-13.2,11.4-23.5,10.1C371.5,338.1,367.4,334.7,367,329.6L367,329.6z M367.7,306.3
			c11.9,2.5,22.8,7.8,34.6,2.1c-1.3,6.9-7.5,9.3-20.2,8.1c1,2.8,1.9,5.4,2.9,8c-0.4,0.2-0.8,0.5-1.2,0.7
			C377.1,320.4,372.9,313.4,367.7,306.3L367.7,306.3z"/>
	</g>
</g>
<g class="st1">
	<path d="M81.7,664.6l-3.1,11.1h-10l13.2-43.1h12.8l13.4,43.1H97.5l-3.3-11.1H81.7z M92.7,657.3l-2.7-9.2c-0.8-2.6-1.5-5.8-2.2-8.3
		h-0.1c-0.6,2.6-1.3,5.8-2,8.3l-2.6,9.2C83.1,657.3,92.7,657.3,92.7,657.3z M113.7,632.5h9.7v19.1h0.2c1-1.7,2-3.2,2.9-4.7l9.8-14.3
		h12L134,651l15,24.8h-11.4L127.1,657l-3.7,4.5v14.1h-9.7V632.5z M163.9,664.6l-3.1,11.1h-10.1l13.2-43.1h12.8l13.4,43.1h-10.5
		l-3.3-11.1H163.9z M174.8,657.3l-2.7-9.2c-0.8-2.6-1.5-5.8-2.2-8.3h-0.1c-0.6,2.6-1.3,5.8-2,8.3l-2.6,9.2H174.8z M195.8,633.1
		c3.6-0.6,8.3-0.9,13.2-0.9c8.2,0,13.5,1.5,17.7,4.6c4.5,3.3,7.3,8.6,7.3,16.3c0,8.3-3,14-7.2,17.5c-4.5,3.8-11.5,5.6-19.9,5.6
		c-5.1,0-8.6-0.3-11.1-0.6L195.8,633.1L195.8,633.1z M205.6,668.3c0.8,0.2,2.2,0.2,3.4,0.2c8.8,0.1,14.6-4.8,14.6-15.1
		c0.1-9-5.2-13.7-13.6-13.7c-2.2,0-3.6,0.2-4.4,0.4V668.3L205.6,668.3z M266,657.4h-15.9v10.2h17.7v8h-27.5v-43.1h26.6v8h-16.8v9
		H266L266,657.4L266,657.4z M311,659.2c-0.2-5.2-0.4-11.5-0.4-17.7h-0.2c-1.3,5.5-3.1,11.6-4.8,16.7l-5.2,16.8h-7.7l-4.6-16.7
		c-1.4-5.1-2.9-11.2-3.9-16.8h-0.1c-0.3,5.8-0.4,12.5-0.8,17.9l-0.8,16.4h-9l2.8-43.1h13l4.2,14.4c1.3,5,2.7,10.4,3.6,15.4h0.2
		c1.2-5,2.7-10.7,4.1-15.5l4.6-14.3h12.7l2.4,43.1h-9.5L311,659.2L311,659.2z M338.4,632.5v43.1h-9.7v-43.1H338.4z M347.2,665.6
		c2.6,1.3,6.7,2.7,10.8,2.7c4.5,0,6.8-1.9,6.8-4.7c0-2.7-2-4.2-7.2-6.1c-7.2-2.5-11.8-6.5-11.8-12.7c0-7.4,6.1-13,16.3-13
		c4.9,0,8.4,1,11,2.2l-2.2,7.9c-1.7-0.8-4.8-2-9-2s-6.3,1.9-6.3,4.2c0,2.8,2.4,4,8,6.1c7.6,2.8,11.2,6.8,11.2,12.9
		c0,7.2-5.6,13.4-17.4,13.4c-4.9,0-9.8-1.3-12.2-2.6L347.2,665.6L347.2,665.6z M381.5,632.5h9.7v19.1h0.2c1-1.7,2-3.2,2.9-4.7
		l9.8-14.3h12l-14.4,18.3l15,24.8h-11.4L394.8,657l-3.7,4.5v14.1h-9.7L381.5,632.5z M431.6,664.6l-3.1,11.1h-10.1l13.2-43.1h12.8
		l13.4,43.1h-10.5l-3.3-11.1H431.6z M442.6,657.3l-2.7-9.2c-0.8-2.6-1.5-5.8-2.2-8.3h-0.1c-0.6,2.6-1.3,5.8-2,8.3l-2.6,9.2H442.6
		L442.6,657.3z M476.8,665.6c2.6,1.3,6.7,2.7,10.8,2.7c4.5,0,6.8-1.9,6.8-4.7c0-2.7-2-4.2-7.2-6.1c-7.2-2.5-11.8-6.5-11.8-12.7
		c0-7.4,6.1-13,16.3-13c4.9,0,8.4,1,11,2.2l-2.2,7.9c-1.7-0.8-4.8-2-9-2s-6.3,1.9-6.3,4.2c0,2.8,2.4,4,8,6.1
		c7.6,2.8,11.2,6.8,11.2,12.9c0,7.2-5.6,13.4-17.4,13.4c-4.9,0-9.8-1.3-12.2-2.6L476.8,665.6L476.8,665.6z M511,633.1
		c3-0.5,7.2-0.9,13.2-0.9s10.3,1.2,13.2,3.5c2.8,2.2,4.6,5.8,4.6,10s-1.4,7.8-4,10.2c-3.3,3.1-8.3,4.5-14,4.5
		c-1.3,0-2.4-0.1-3.3-0.2v15.4H511V633.1z M520.7,652.7c0.8,0.2,1.9,0.3,3.3,0.3c5.2,0,8.4-2.6,8.4-7c0-4-2.8-6.3-7.6-6.3
		c-2,0-3.3,0.2-4,0.4L520.7,652.7L520.7,652.7z M573.9,657.4H558v10.2h17.7v8h-27.5v-43.1h26.6v8H558v9h15.9V657.4L573.9,657.4z
		 M605.1,675.7l-3.9-7.8c-1.6-3-2.6-5.2-3.8-7.7h-0.1c-0.9,2.5-2,4.7-3.3,7.7l-3.6,7.8h-11.1l12.5-21.8l-12-21.3H591l3.8,7.9
		c1.3,2.6,2.2,4.7,3.3,7.2h0.1c1-2.8,1.9-4.7,2.9-7.2l3.6-7.9h11l-12.2,21.1l12.8,22.1L605.1,675.7L605.1,675.7z M647.3,657.4h-15.9
		v10.2h17.7v8h-27.5v-43.1h26.6v8h-16.8v9h15.9V657.4L647.3,657.4z M664.5,640.7h-11.6v-8.2H686v8.2h-11.8v34.9h-9.8L664.5,640.7z"
		/>
</g>
<g class="st1">
	<path d="M148.1,745.7l-9.9-31h7.7l3.8,13.1c1.1,3.7,2,7.2,2.8,11.1h0.1c0.8-3.7,1.7-7.4,2.8-10.9l4-13.3h7.5l-10.4,31L148.1,745.7
		L148.1,745.7z M177,714.7v31h-7v-31H177z M183.1,715.1c2.6-0.4,5.9-0.6,9.5-0.6c5.9,0,9.7,1.1,12.7,3.3c3.2,2.4,5.2,6.2,5.2,11.7
		c0,5.9-2.2,10-5.2,12.6c-3.3,2.7-8.2,4-14.3,4c-3.6,0-6.2-0.2-8-0.5v-30.5H183.1z M190.2,740.4c0.6,0.1,1.6,0.1,2.4,0.1
		c6.3,0,10.5-3.5,10.5-10.9c0-6.4-3.7-9.8-9.8-9.8c-1.6,0-2.6,0.1-3.2,0.3v20.3L190.2,740.4z M231.6,737.7l-2.2,8h-7.3l9.5-31h9.2
		l9.6,31h-7.5l-2.4-8H231.6L231.6,737.7z M241.6,708.9c0,2.5-1.9,4.5-5.2,4.5c-3.4,0-5.3-2-5.3-4.4c0-2.5,1.8-4.6,5.3-4.6
		C239.8,704.3,241.6,706.4,241.6,708.9z M239.5,732.5l-1.9-6.6c-0.6-1.8-1.1-4.1-1.6-6h-0.1c-0.5,1.8-0.9,4.2-1.4,6l-1.8,6.6H239.5z
		 M234.3,709c0,1.1,0.7,2.1,2,2.1s2-0.9,2-2.1c0-1.2-0.7-2.2-2-2.2C234.9,706.7,234.3,707.8,234.3,709z M254.6,715.1
		c1.8-0.4,5.6-0.6,9.1-0.6c4.3,0,6.9,0.4,9.2,1.7c2.2,1.2,3.7,3.3,3.7,6.1s-1.6,5.3-5.1,6.6v0.1c3.5,1,6.2,3.6,6.2,7.6
		c0,2.8-1.3,5-3.2,6.6c-2.3,1.8-6,2.8-12.2,2.8c-3.5,0-6-0.2-7.6-0.5L254.6,715.1L254.6,715.1z M261.5,726.9h2.3
		c3.7,0,5.7-1.5,5.7-3.8s-1.8-3.6-5-3.6c-1.5,0-2.4,0.1-3,0.2V726.9L261.5,726.9z M261.5,740.7c0.7,0.1,1.5,0.1,2.7,0.1
		c3.2,0,6-1.2,6-4.5c0-3.1-2.8-4.4-6.3-4.4h-2.4L261.5,740.7L261.5,740.7z M310.8,729.8c0,10.2-6.2,16.3-15.2,16.3
		c-9.2,0-14.6-6.9-14.6-15.8c0-9.3,5.9-16.2,15.1-16.2C305.6,714.1,310.8,721.3,310.8,729.8z M288.4,730.3c0,6.1,2.9,10.4,7.5,10.4
		c4.7,0,7.5-4.5,7.5-10.5c0-5.6-2.7-10.4-7.5-10.4C291.1,719.7,288.4,724.2,288.4,730.3z M331.9,737.7l-2.2,8h-7.3l9.5-31h9.2
		l9.6,31h-7.5l-2.4-8H331.9L331.9,737.7z M339.7,732.5l-1.9-6.6c-0.6-1.8-1.1-4.1-1.6-6h-0.1c-0.5,1.8-0.9,4.2-1.4,6l-1.8,6.6H339.7
		z M354.8,714.7h6.9v13.7h0.1c0.7-1.2,1.4-2.3,2.1-3.4l7-10.3h8.6l-10.3,13.2l10.8,17.8h-8.2l-7.6-13.4l-2.7,3.3v10.1h-6.9
		L354.8,714.7L354.8,714.7z M390.9,737.7l-2.2,8h-7.3l9.5-31h9.2l9.6,31h-7.5l-2.4-8H390.9L390.9,737.7z M398.8,732.5l-1.9-6.6
		c-0.6-1.8-1.1-4.1-1.6-6h-0.1c-0.5,1.8-0.9,4.2-1.4,6l-1.8,6.6H398.8z M413.8,715.1c2.6-0.4,5.9-0.6,9.5-0.6
		c5.9,0,9.7,1.1,12.7,3.3c3.2,2.4,5.2,6.2,5.2,11.7c0,5.9-2.2,10-5.2,12.6c-3.3,2.7-8.2,4-14.3,4c-3.6,0-6.2-0.2-8-0.5L413.8,715.1
		L413.8,715.1z M420.9,740.4c0.6,0.1,1.6,0.1,2.4,0.1c6.3,0,10.5-3.5,10.5-10.9c0-6.4-3.7-9.8-9.8-9.8c-1.6,0-2.6,0.1-3.2,0.3
		L420.9,740.4L420.9,740.4z M464.3,732.6h-11.4v7.4h12.7v5.8h-19.8v-31h19.1v5.8h-12.1v6.4h11.4L464.3,732.6L464.3,732.6z
		 M496.7,733.8c-0.1-3.7-0.3-8.2-0.3-12.7h-0.1c-1,4-2.3,8.4-3.5,12l-3.8,12.1h-5.5l-3.3-12c-1-3.6-2.1-8.1-2.8-12.1h-0.1
		c-0.2,4.2-0.3,9-0.6,12.8l-0.6,11.8h-6.4l2-31h9.3l3,10.4c1,3.6,1.9,7.5,2.6,11.1h0.1c0.9-3.6,1.9-7.7,2.9-11.1l3.3-10.3h9.2
		l1.7,31h-6.9L496.7,733.8z M516.4,714.7v31h-7v-31H516.4z M531.7,715.1c2.3-0.4,5.6-0.6,9.3-0.6c4.6,0,7.8,0.7,10,2.4
		c1.8,1.5,2.9,3.6,2.9,6.5c0,4-2.8,6.7-5.5,7.6v0.1c2.2,0.9,3.4,2.9,4.1,5.8c1,3.5,1.9,7.5,2.5,8.7h-7.2c-0.5-0.9-1.2-3.4-2.2-7.2
		c-0.8-3.9-2.2-4.9-5-5h-1.9v12.2h-7V715.1z M538.7,728.4h2.8c3.5,0,5.6-1.7,5.6-4.5c0-2.9-1.9-4.3-5.2-4.3c-1.7,0-2.7,0.1-3.2,0.2
		L538.7,728.4L538.7,728.4z M558.3,741.9c0-2.5,1.7-4.3,4.1-4.3s4.1,1.7,4.1,4.3c0,2.4-1.7,4.2-4.1,4.2
		C560,746.2,558.3,744.4,558.3,741.9z M571,714.7h19v5.8h-11.9v7.1h11.1v5.7h-11.1v12.5h-7L571,714.7L571,714.7z M590.3,741.9
		c0-2.5,1.7-4.3,4.1-4.3s4.1,1.7,4.1,4.3c0,2.4-1.7,4.2-4.1,4.2C592.1,746.2,590.3,744.4,590.3,741.9z"/>
</g>
</svg>
