<?xml version="1.0" encoding="utf-8"?>
<!-- Generator: Adobe Illustrator 24.0.1, SVG Export Plug-In . SVG Version: 6.00 Build 0)  -->
<svg version="1.1" id="Layer_1" xmlns="http://www.w3.org/2000/svg" xmlns:xlink="http://www.w3.org/1999/xlink" x="0px" y="0px"
	 viewBox="0 0 489.9 489.9" style="enable-background:new 0 0 489.9 489.9;" xml:space="preserve">
<style type="text/css">
	.st0{fill-rule:evenodd;clip-rule:evenodd;}
	.st1{fill-rule:evenodd;clip-rule:evenodd;fill:#D3CECE;}
	.st2{fill-rule:evenodd;clip-rule:evenodd;fill:#D5D8D8;}
	.st3{fill-rule:evenodd;clip-rule:evenodd;fill:#DBD8D8;}
	.st4{fill-rule:evenodd;clip-rule:evenodd;fill:#D9D9D9;}
	.st5{fill-rule:evenodd;clip-rule:evenodd;fill:#A39B9B;}
	.st6{fill-rule:evenodd;clip-rule:evenodd;fill:#909B9B;}
	.st7{fill-rule:evenodd;clip-rule:evenodd;fill:#FFFFFF;}
	.st8{fill-rule:evenodd;clip-rule:evenodd;fill:#C21212;}
	.st9{fill-rule:evenodd;clip-rule:evenodd;fill:#FEFEFE;}
	.st10{fill-rule:evenodd;clip-rule:evenodd;fill:#E8E6E6;}
	.st11{fill-rule:evenodd;clip-rule:evenodd;fill:#B3B7B7;}
	.st12{fill-rule:evenodd;clip-rule:evenodd;fill:#A3B7B7;}
	.st13{fill-rule:evenodd;clip-rule:evenodd;fill:#A5AEAE;}
	.st14{fill-rule:evenodd;clip-rule:evenodd;fill:#CFDCDC;}
	.st15{fill-rule:evenodd;clip-rule:evenodd;fill:#250404;}
	.st16{fill-rule:evenodd;clip-rule:evenodd;fill:#F7F7F7;}
	.st17{fill-rule:evenodd;clip-rule:evenodd;fill:#060606;}
	.st18{fill-rule:evenodd;clip-rule:evenodd;fill:#060505;}
	.st19{fill-rule:evenodd;clip-rule:evenodd;fill:#080707;}
	.st20{fill-rule:evenodd;clip-rule:evenodd;fill:#0A0909;}
	.st21{fill-rule:evenodd;clip-rule:evenodd;fill:#0A0A0A;}
	.st22{fill-rule:evenodd;clip-rule:evenodd;fill:#0E0D0D;}
	.st23{fill-rule:evenodd;clip-rule:evenodd;fill:#A8B9B9;}
	.st24{fill-rule:evenodd;clip-rule:evenodd;fill:#050505;}
	.st25{fill-rule:evenodd;clip-rule:evenodd;fill:#FDFDFD;}
	.st26{fill-rule:evenodd;clip-rule:evenodd;fill:#FCFDFD;}
	.st27{fill-rule:evenodd;clip-rule:evenodd;fill:#FCFCFC;}
	.st28{fill-rule:evenodd;clip-rule:evenodd;fill:#FBFBFB;}
	.st29{fill-rule:evenodd;clip-rule:evenodd;fill:#F8F9F9;}
	.st30{fill-rule:evenodd;clip-rule:evenodd;fill:#B4BBBB;}
	.st31{fill-rule:evenodd;clip-rule:evenodd;fill:#FEFFFF;}
	.st32{fill-rule:evenodd;clip-rule:evenodd;fill:#FDFEFE;}
	.st33{fill-rule:evenodd;clip-rule:evenodd;fill:#F2F2F2;}
	.st34{fill-rule:evenodd;clip-rule:evenodd;fill:#989090;}
	.st35{fill-rule:evenodd;clip-rule:evenodd;fill:#A39191;}
	.st36{fill-rule:evenodd;clip-rule:evenodd;fill:#F6F8F8;}
	.st37{fill-rule:evenodd;clip-rule:evenodd;fill:#BFD7D7;}
	.st38{fill-rule:evenodd;clip-rule:evenodd;fill:#727B7B;}
	.st39{fill-rule:evenodd;clip-rule:evenodd;fill:#FBFCFC;}
	.st40{fill-rule:evenodd;clip-rule:evenodd;fill:#FAFBFB;}
	.st41{fill-rule:evenodd;clip-rule:evenodd;fill:#F8F8F8;}
	.st42{fill-rule:evenodd;clip-rule:evenodd;fill:#F7F8F8;}
	.st43{fill-rule:evenodd;clip-rule:evenodd;fill:#F6F6F6;}
	.st44{fill-rule:evenodd;clip-rule:evenodd;fill:#E6ECEC;}
	.st45{fill-rule:evenodd;clip-rule:evenodd;fill:#A9B4B4;}
	.st46{fill-rule:evenodd;clip-rule:evenodd;fill:#BAC4C4;}
	.st47{fill-rule:evenodd;clip-rule:evenodd;fill:#8A9595;}
	.st48{fill-rule:evenodd;clip-rule:evenodd;fill:#CCDEDE;}
	.st49{fill-rule:evenodd;clip-rule:evenodd;fill:#A1C0C0;}
	.st50{fill-rule:evenodd;clip-rule:evenodd;fill:#EFF0F0;}
	.st51{fill-rule:evenodd;clip-rule:evenodd;fill:#576464;}
	.st52{fill-rule:evenodd;clip-rule:evenodd;fill:#F9FAFA;}
	.st53{fill-rule:evenodd;clip-rule:evenodd;fill:#FAFAFA;}
	.st54{fill-rule:evenodd;clip-rule:evenodd;fill:#F8FAFA;}
	.st55{fill-rule:evenodd;clip-rule:evenodd;fill:#F9F9F9;}
	.st56{fill-rule:evenodd;clip-rule:evenodd;fill:#F3F4F4;}
	.st57{fill-rule:evenodd;clip-rule:evenodd;fill:#B6C7C7;}
	.st58{fill-rule:evenodd;clip-rule:evenodd;fill:#A4BABA;}
	.st59{fill-rule:evenodd;clip-rule:evenodd;fill:#F4F5F5;}
	.st60{fill-rule:evenodd;clip-rule:evenodd;fill:#F1F2F2;}
	.st61{fill-rule:evenodd;clip-rule:evenodd;fill:#EEEFEF;}
	.st62{fill-rule:evenodd;clip-rule:evenodd;fill:#EEF0F0;}
	.st63{fill-rule:evenodd;clip-rule:evenodd;fill:#E7E9E9;}
	.st64{fill-rule:evenodd;clip-rule:evenodd;fill:#E3E6E6;}
	.st65{fill-rule:evenodd;clip-rule:evenodd;fill:#ECEEEE;}
	.st66{fill-rule:evenodd;clip-rule:evenodd;fill:#C7C9C9;}
	.st67{fill-rule:evenodd;clip-rule:evenodd;fill:#F0F5F5;}
	.st68{fill-rule:evenodd;clip-rule:evenodd;fill:#D2D9D9;}
	.st69{fill-rule:evenodd;clip-rule:evenodd;fill:#ACBDBD;}
	.st70{fill-rule:evenodd;clip-rule:evenodd;fill:#A9B2B2;}
	.st71{fill-rule:evenodd;clip-rule:evenodd;fill:#CCE1E1;}
	.st72{fill-rule:evenodd;clip-rule:evenodd;fill:#DBEEEE;}
	.st73{fill-rule:evenodd;clip-rule:evenodd;fill:#B4BEBE;}
</style>
<path class="st0" d="M489.9,221.3v0.3c-0.3,0.3-0.1,0.7-0.2,1.1v1.1c0.2,3.8-0.8,7.1-2.7,10.5c-2.7,4.8-6.2,8.8-10.2,12.5
	c-2.3,2.1-4.5,4.4-7,6.4c-3.7,3-7.5,5.7-12.3,6.8c-6.4,1.4-12.5,3.7-19,4.5c-4,0.5-8.1,1.1-12.2,0.3c-1.5-0.3-2.9,0.2-4.4,0.4
	c-3,0.5-6,0.2-9,0.6c-1.3,0.2-2.6,0.5-3.8,1.1c-1,0.5-1.2,1.1-0.3,1.7c2,1.6,3.1,3.8,4.2,5.9c0.6,1.1,1.3,2.2,2.1,3.2
	c2.2,3.1,2.5,6.7,3.3,10.2c0.7,3.1,0.5,6.1-0.3,9.1c-0.5,2-0.8,4.1-1,6.2c-0.2,2-0.9,3.9-1.9,5.6c-1.9,3.3-4.5,6.1-6.2,9.5
	c-2.2,4.3-5.5,7.5-9.2,10.5c-1.9,1.5-3.3,3.4-4.9,5c-2.3,2.3-4.5,4.8-7.5,6.3c-0.4,0.2-0.7,0.6-1,0.9c-3.7,5-8.7,8.4-13.9,11.3
	c-8.3,4.6-16.9,8.4-25.6,11.9c-3.5,1.4-7.1,2.6-10.8,3.3c-3.4,0.6-6.6,1.8-9.9,2.5c-3.7,0.8-7.3,1.1-11.1,1.4
	c-2.1,0.2-4.3,0.3-6.4,0.3c-1.6,0-3.2,0.2-4.8,0.7c-2.2,0.6-4.4,0.8-6.7,0.8c-3.6,0.1-7.2,0.9-10.8,1c-0.6,0-1.2-0.2-1.8,0
	c-3.1-0.3-6.2,0-9.3-0.3c-4-0.4-8-0.7-12-1.5c-5.3-1-10.6-1.7-16.1-2c-6-0.3-12-0.6-17.9-2.3c-2.2-0.6-4.5-1.3-6.9-1h-0.5
	c-7.2-1.9-14.8-2.4-22-4.7c-9.6-3-19.5-4.3-29.4-5.8c-5.1-0.8-10.4-0.7-15.5-1.9c-5.4-1.3-10.9-2.2-16.2-3.9
	c-4.9-1.6-9.9-2.4-14.9-3.4c-5.6-1.1-11.3-2-16.7-3.8c-2.7-0.9-5.5-1.2-8.3-1.6c-7-1.2-13.7-3.1-20-6.4c-3-1.6-6.4-2.5-9.6-3.7
	c-3.6-1.4-6.9-3.2-10.1-5.4c-2.1-1.5-4.5-2.5-6.8-3.5c-2.8-1.2-5.6-2.4-8-4.4c-0.2-0.1,0.1,0-0.1-0.1c-5.1-2.3-9.2-5.9-13.5-9.4
	c-0.2-0.2-0.4-0.3-0.6-0.5C24.5,303.5,19.4,298,16,291c-1.1-2.2-2.2-4.3-3-6.5c-1.3-3.5-3.5-6.4-5-9.8c-2.4-6-5.2-12-6.3-18.7
	c-0.3-2-0.7-4-1.1-6c-0.3-1.5-0.2-2.9-0.3-4.4c-0.1-1.1,0-2.2,0-3.2c0.3-4.6,0.2-9.3,0.8-13.9c0.8-5.4,1.8-10.8,2.9-16.1
	c1.3-6.1,4.5-11.5,6.6-17.2c1-2.8,2.3-5.4,3.4-8.2c1.1-3,3.6-5.1,4.8-7.9c1.9-4.3,5.2-7.6,7.6-11.4c0.3-0.4,0.6-0.8,0.8-1.3
	c2.6-5.3,6.6-9.3,11.4-12.5c1.1-0.8,2.2-1.6,3.1-2.7c0.7-0.9,1.5-1.6,2.5-2c3.8-1.8,7.3-4.2,11.4-5.2c4.8-1.1,9.3-2.8,14.3-3.3
	c8.5-0.8,17-1.7,25.5-2.6c4.8-0.5,9.5-1.1,14.3-1.3c1.4-0.1,2.7,0.2,4.1,0.3c5.8,0.4,11.6,0.2,17.4,0.3c4.3,0,8.6-0.6,12.9,0.1
	c0.8,0.1,1.6-0.1,2.4-0.1c5.8-0.2,11.6-0.7,17.3-1.6c2.7-0.4,5.5-0.5,8.2-0.9c5.7-0.9,11.6-1.3,17.2-2.7c2.9-0.7,5.8-1.1,8.8-1.2
	c3.1-0.2,6.3-0.4,9.4-0.7c9.5-0.9,18.8-3.6,28.4-4c4.9-0.2,9.9-0.6,14.8-0.9c3.8-0.2,7.5-1,11.2-1.8c2.9-0.6,5.9-0.5,8.8-0.6
	c4.8-0.1,9.7-0.5,14.5-0.3c3.9,0.2,7.7-0.6,11.5-1.1c2.6-0.4,5.3-0.6,7.9-0.5c3.1,0.1,6.1-0.7,9.1-1c0.6-0.1,1.1-0.1,1.7-0.1
	c3.3,0.5,6.6,0.1,9.9-0.6c2.4-0.5,4.8-0.9,7.3-1.1c1.4-0.1,2.9-0.4,4.2-0.9c3.7-1.4,7.6-1.3,11.5-1.6h2c4.2,0.4,8.5,0.4,12.5,2
	c1.5,0.6,3.2,0.6,4.8,1.1c5,1.5,9.9,3.2,14.8,5c3.5,1.3,5.9,3.8,8.5,6.1c1.8,1.6,3,3.8,4.1,6c2.5,5.1,1.3,9.7-1.7,14.3
	c-3.4,5.1-7.3,9.8-11.3,14.4c-0.1,0.1-0.1,0.2-0.1,0.3c0.4,0.4,0.8,0.1,1.2,0c4.5-1.4,9-3,13.1-5.5c3.2-2,6.5-3.7,9.7-5.8
	c2.4-1.5,5-2.7,7.6-4c4-2.1,8-4.2,12.2-5.6c4.3-1.4,8.7-2.6,13.2-3.1c3.2-0.3,6.2,0.1,9.2,0.7c3.8,0.7,7.6,1.2,11.3,2.1
	c2.7,0.7,4.9,2,7,3.9c2.9,2.6,5.1,5.6,7.2,8.9c1.9,2.9,2.4,6.1,2.4,9.3c0,3.7-0.5,7.3-2,10.8c-2.4,5.7-6.3,9.9-11.6,13
	c-0.2,0.1-0.5,0.2-0.6,0.5c0.3,0.5,0.8,0.5,1.3,0.6c7.8,2.3,14.2,6.8,20,12.4c1.7,1.6,2.5,3.9,3.7,6c0.7,1.3,1.3,2.6,2.2,3.8
	c0.9,1.1,0.7,2.5,0.8,3.8c0.1,0.8,0,1.6,0,2.4v1.1C489.8,220.6,489.6,221,489.9,221.3L489.9,221.3z"/>
<path class="st1" d="M0,243.1l0.6-0.6c0.2,1-0.2,2,0,3.1L0,245V243.1z"/>
<path class="st2" d="M489.9,223.8h-0.2v-1.2c0.1-0.1,0.2-0.2,0.3,0C489.9,223,489.9,223.4,489.9,223.8L489.9,223.8z"/>
<path class="st3" d="M489.7,219.2h0.3v1.2c-0.1,0.1-0.2,0.1-0.3,0V219.2z"/>
<path class="st4" d="M348.4,116v-0.3h1.2v0.2C349.3,115.9,348.9,115.9,348.4,116z"/>
<path class="st5" d="M489.7,220.4h0.3v0.9C489.5,221.1,489.6,220.8,489.7,220.4z"/>
<path class="st6" d="M489.9,222.6h-0.3c-0.1-0.4-0.2-0.7,0.3-0.9V222.6z"/>
<path class="st4" d="M349.7,115.9v-0.2h0.6v0.3C350.1,116,349.9,116,349.7,115.9z"/>
<path class="st7" d="M315.7,227.4c-1.3,0.9-2.7,1.7-4.2,2.2c-0.8,0.3-1,1.1-1.3,1.8c-0.2,0.2-0.2,0.4,0,0.6c0.3,0.3,0.6,0.5,0.8,0.9
	c0.6,1.2,1.3,1.4,2.4,0.6c1.7-1.1,3.4-2,5.2-3c2.7-1.6,5.5-2.5,8.4-3.7c3.1-1.3,6.1-2.8,9-4.4c4.5-2.5,9.2-4.9,13.9-7
	c3.4-1.5,6.8-3.2,10.2-4.9c0.9-0.5,1.8-1.1,2.7-1.8c3.4-2.6,7-4.9,10.8-6.9c1.8-1,3.5-2.1,5.2-3.2c2-1.4,4.3-2.4,6.5-3.4
	c2.3-1.1,4.6-2.2,6.7-3.6c2.5-1.6,5.3-2.9,8-4.2c3.9-1.9,7.4-4.2,10.9-6.7c2.8-2,5.6-3.9,8.7-5.3c2.2-1,4.3-2.4,6.6-3.1
	c0.9-0.3,1.8-0.7,2.8-0.8c0.4,0.1,1-0.7,1.3,0.1c-1.5,2.3-0.2,4.1,1.7,5.2c2,1.2,4.2,1.5,6.5,1c1.5-0.3,3-0.6,4.6-1
	c-0.3,0.9-0.8,1.4-1.3,2c-2.2,2.5-4.5,4.9-6.9,7.2c-1.6,1.6-3.5,3-5.2,4.5c-5.7,4.6-11.8,8.7-17.9,12.8c-2.2,1.5-4.3,3.3-6.6,4.7
	c-4.7,2.8-9.1,5.9-13.9,8.6c-0.8,0.4-1.6,1-2.3,1.5c-1.3,0.9-2.6,1.8-4,2.6c-2.7,1.6-5.4,3.2-7.6,5.6c-0.1,0.1-0.3,0.3-0.5,0.4
	c-2.1,1-3.9,2.6-5.7,4.1c-1.1,1-2.3,1.8-3.5,2.6c-4.9,3.2-9.6,6.8-14.3,10.2c-0.4,0.3-0.8,0.6-1.2,1c-3.6,3.4-7.6,6.3-11.8,9
	c-2.5,1.6-4.8,3.4-7.2,5.2c-0.8,0.6-1.6,1-2.6,1.3c-0.8,0.2-1.6,0.5-2.3,0.8c-0.5,0.2-0.9,0.5-0.9,1.1s0.5,0.9,1.1,0.9
	c1.7,0.2,3.6,0.7,5.1-0.6c1.6-1.5,3.6-1.9,5.5-2.3c1.7-0.4,3.4-0.8,5-1.5c1.6-0.7,3.4-0.7,5.1-0.8c3.2-0.1,6.3-0.2,9.4-0.8
	c2.2-0.4,4.4-0.1,6.5,0.8c2.4,1,3.6,3.2,3.9,5.8c0.3,3-0.7,5.4-2.9,7.6c-2.1,2-4.1,4-6.3,5.8c-3.5,2.8-7.3,5.4-11.2,7.7
	c-4.2,2.5-8.7,4.5-12.8,7.2c-0.3,0.2-0.6,0.4-1,0.4c-0.6,0-1.1,0.2-1.2,0.9c-0.1,0.8-0.4,1.6,0.4,2.3c0.5,0.5,1.2,0.6,1.9,0.4
	c0.8-0.2,1.5-0.6,2.1-1.1c0.8-0.8,1.8-1.3,2.8-1.9c3-1.7,6.1-3.3,9.1-5c2.8-1.6,5.5-3.3,8.1-5.2c1.2-0.9,2.4-1.7,3.6-2.6
	c1.1-0.8,2-0.6,2.9,0.4c1.1,1.3,2.5,2.4,3.1,4.2c1.2,3.5,1.2,6.8-1.2,10c-1.3,1.6-2.3,3.5-3.5,5.2c-1.6,2.5-3.5,4.7-5.3,7.1
	c-0.6,0.8-1.3,1.4-2.2,1.9c-1.2,0.7-2.2,1.4-3.2,2.4c-1.1,1.1-2.4,1.9-3.7,2.6c-2.7,1.5-5.3,3.3-8.2,4.3c-2,0.7-3.9,1.5-5.8,2.4
	c-1.5,0.7-3.3,0.7-4.9,1.2c-1.3,0.4-2.6,0.7-3.9,1.2c-2.2,0.8-4.6,1-6.8,1.6c-3.4,0.9-6.8,0.8-10.2,0.4c-2.8-0.3-5.6-0.2-8.4,0
	c-1.4,0.1-2.8,0.2-4.1,0.2c-5.1,0.1-10.2,0.3-15.3,0.5c-1.7,0.1-3.5-0.1-5.2-0.2c-3.9-0.4-7.8-0.5-11.8-0.6
	c-3.9-0.1-7.7-0.4-11.6-0.6c-0.7,0-1.4,0.1-2.1,0.2c-2.1,0.4-4.2,0.2-6.2,0c-3.6-0.3-7.1-0.7-10.7-0.6c-4.1,0.2-8.2,0.1-12.2,0
	c-3-0.1-6-0.5-9-0.8c-5.6-0.6-11.2-0.9-16.8-1c-4.7-0.1-9.4,0.1-14.1-0.6c-4-0.5-8-0.5-12-0.9c-1.2-0.1-2.4-0.1-3.7-0.1
	c-1.5,0-3-0.2-4.5-0.6c-3.8-1.1-7.6-1.9-11.5-2.3c-0.3,0-0.7-0.2-1-0.3c-3.3-1.3-6.8-2.2-10.3-3c-1-0.2-1.8-0.6-2.7-1
	c-1.7-0.8-3.6-1.2-5.4-1.6c-2.5-0.6-5-1.1-7.3-2.1c-0.8-0.4-1.5-0.6-2.4-0.4c-0.6,0.1-1.1,0.1-1.7-0.1c-4.4-1.5-9-2.3-13.4-3.7
	c-2.9-0.9-5.9-1.7-8.6-3.1c-0.4-0.2-0.7-0.4-1.1-0.5c-6.2-1.6-12-4.5-18.1-6.5c-0.2-0.1-0.4-0.1-0.6-0.2c-1.3-1.6-3.3-1.7-5-2.2
	c-0.9-0.3-1.7-0.5-2.5-1c-1-0.7-2.2-1-3.3-1.7c-0.9-0.5-1.9-1-2.8-1.4c-1-0.5-1.7-1.2-2.3-2.1c-2.6-4.5-4.5-9.2-6.2-14.1
	c-1.9-5.7-3-11.5-4.5-17.3c-0.7-2.8-0.6-5.7-0.7-8.5c-0.2-4.7,0.3-9.4,0.1-14.1c-0.1-2,0.2-4,0.5-5.9c0.7-4.1,1.1-8.3,1.4-12.5
	c0.1-1.8,0.6-3.6,0.9-5.4c0.6-3.8,1.9-7.5,3.2-11.1c1.2-3.3,2.8-6.3,4.1-9.5c0.6-1.7,1.5-3.3,2.4-4.8c1.7-2.9,4-5.2,7.3-6.1
	c5.1-1.4,10.2-2.9,15.5-3.5c2.6-0.3,5.3-0.6,7.9-0.4c3.3,0.2,6.5-0.1,9.8,0.2c3.4,0.3,6.7,1.1,10.1,1.6c4.3,0.6,8.7,1.3,13,1.9
	c1,0.1,2,0.1,3.1,0.1c1.1,0,2.2-0.1,3.3,0.2c1.2,0.3,2.4-0.3,3.6-0.6c0.7-0.2,1.5-0.4,2.2-0.7c3.1-1.4,6.5-2,9.6-3.4
	c1.5,0.1,2.8-0.8,4.2-1.2c6.8-2,13.6-4.1,20.3-6.6c2.2-0.8,4.5-1.6,6.8-2.3c1.4-0.5,2.8-0.8,4.3-1c4.1-0.4,8.2-0.6,12.3-1.2
	c5.1-0.7,10.3-1.2,15.5-2c1.8-0.3,3.6-0.2,5.4-0.1c3.6,0.2,7.2-0.3,10.8-0.8c1.8-0.3,3.7-0.2,5.5-0.2c2.8,0.1,5.5,0.4,8.2,0.6
	c1.1,0.1,2.2,0.2,3.3,0.5c1,0.3,2.1,0.3,3.2,0.3c3.4-0.2,6.7-0.1,10.1-0.3c1.6-0.1,3.2-0.2,4.7-0.4c2.9-0.3,5.7-0.3,8.6-0.1
	c3.7,0.2,7.3-0.4,11-0.8c3.6-0.5,7.1-1.3,10.6-2.2c1.6-0.4,3.3-0.2,4.9-0.3c4.5-0.4,9-1.4,13.4-2.4c1.1-0.3,2.2-0.5,3.3-0.7
	c0.6-0.1,1.2-0.3,1.8,0c0.6,0.3,1.2,0.1,1.5-0.3c0.4-0.5,1-0.7,1.6-0.8c4-0.9,8-1.8,11.9-2.7c0.6-0.1,0.9,0,1.2,0.5
	c1.1,1.6,2.1,3.3,2.3,5.3c0,0.5,0.2,1,0.3,1.5c0.1,0.4,0.3,0.8,0.8,0.7c0.6,0,0.8-0.5,0.7-1c-0.2-1.7-0.4-3.4-1.3-5
	c-0.5-0.8-1-1.6-1.6-2.6c1.7-0.3,3.4-0.7,5-1c0.5-0.1,0.8,0.1,1.1,0.5c1.6,2.6,4,3.8,7.1,3.8c2.7-0.1,5.4-0.1,8.1-0.5
	c3.3-0.4,6.7-0.7,10-1c0.5,0,0.8,0.1,0.9,0.6c0.3,1.7,0.2,3.4-1.2,4.6c-1.6,1.4-3.4,2.4-5.4,3.2c-5,1.9-9.9,3.7-14.9,5.4
	c-3,1-6.1,2-9,3.2c-3.1,1.3-6.3,2.1-9.5,2.9c-3.5,0.9-6.9,1.7-10.3,2.9c-4.6,1.6-9.1,3.2-13.2,5.9c-2.1,1.4-4.4,2.3-6.8,3
	c-3.6,1.1-7.2,2.3-10.8,3.4c-1,0.3-2,0.4-3,0.6c-0.7,0.1-1.3,0.1-1.9-0.4c-0.7-0.5-1.4-0.5-2.2-0.1c-0.9,0.5-1.8,0.7-2.8,0.8
	c-0.6,0.1-1.2,0.3-1.6,0.7c-0.6,0.6-0.8,1.3-0.5,2.1c0.3,0.7,0.8,1.2,1.6,1.3c0.4,0.1,0.8,0.1,1.2,0c1.9-0.3,3.7-0.4,5.6-0.4
	c2.5-0.1,4.9-0.9,7.3-1.6c1.5-0.4,2.9-0.9,4.4-1.4c0.8-0.3,1.5-0.3,2.2-0.2c1.4,0.3,2.8,0.4,4.2,0.5c0.4,0,0.8,0.1,1.2,0.3
	c1.7,0.8,3.4,1.3,5.3,1.4c0.8,0.1,1.6,0.2,2.4,0.5c2.2,0.8,4.4,0.9,6.6,0.8c3.7-0.1,7.3,0.5,10.9,1.3c3.8,0.8,7.6,1.6,11.4,1.9
	c3.5,0.3,7,0.6,10.5,1.1c2.7,0.4,5.4,0.5,8,1c3.7,0.7,7.3,1.1,11,1.7c3,0.5,6,1.4,9.2,1.9c-0.3,0.6-0.7,0.7-1.1,0.9
	c-5.4,2.8-10.2,6.3-15.4,9.4c-2.7,1.6-5.6,2.7-8.4,4c-3.9,1.9-8.3,2.9-12.1,5c-2,1-4,2-5.9,3.2c-1.7,1-3.5,1.5-5.4,2.2
	c-0.6,0.2-1.2,0.4-1.7,0.7c-1.5,0.8-3.1,1.2-4.9,1.2c-2.5,0-5.1,0.1-7.6-0.2c-1.3-0.1-2.6-0.1-3.8,0c-1.1,0.1-1.4,0.3-1.4,1.5
	c0,0.4-0.1,0.6-0.4,0.7c-0.4,0.2-0.6,0.5-0.5,1c0.2,0.6,0.7,0.7,1.3,0.6c2.2-0.4,4.4-0.1,6.6-0.3
	C314.9,227.1,315.4,226.7,315.7,227.4L315.7,227.4z"/>
<path class="st8" d="M241.2,364.9c0.4-2.4,0.7-4.5,1.1-6.6c1-5.1,2.4-10.2,3.7-15.3c0.4-1.5,1-3,1.6-4.5c1.3-3.1,2.6-6.3,3.5-9.6
	c0.1-0.5,0.4-0.7,0.9-0.8c3.1-0.5,6.1-0.7,9.2-0.1c2.3,0.5,4.8,0.4,7.1,0.7c4.9,0.7,9.8,0.7,14.6,0.6c0.8,0,1.1,0.3,1.2,1
	c0.3,1.9,0.6,3.8,0.8,5.7c0.5,4.3,0.3,8.6,0.1,13c-0.1,2.3,0.2,4.6,0.7,6.8c0.5,2,0.8,4.1,0.7,6.2c0,1.7,0.3,3.5,0.2,5.2
	c0,0.7-0.2,1-0.9,1.1c-0.8,0.1-1.6,0.1-2.4,0c-2.4-0.3-4.7-0.5-7.1-0.5c-3.4,0.1-6.7-0.3-10-1c-1.4-0.3-2.9-0.6-4.4-0.7
	c-1.9-0.1-3.8,0.1-5.7-0.7c-0.6-0.3-1.4,0-2.1,0h-8.1c-0.7,0-1.4-0.1-2.1-0.4C243.2,364.8,242.4,364.6,241.2,364.9L241.2,364.9z
	 M140.6,346.5c0.9-5.2,0.6-10.5,1.5-15.6c0.6-3.2,1.3-6.3,2.8-9.2c0.6-1.2,0.6-1.2,2-1c2.7,0.4,5.2,1.4,7.9,1.8s5.3,0.8,8,0.8
	c3.5,0,7,0.3,10.5,0.5c7.8,0.5,15.6,1.4,23.5,1.1h0.2c1.6,0,1.5,0,1.2,1.5c-1.1,5.1-2.7,10.1-4.1,15.2c-1,3.6-1.4,7.4-2,11.1
	c-0.1,0.8-0.3,1.6-0.6,2.4c-0.4,1.2-0.4,1.3-1.7,1c-2-0.5-3.9-1-5.8-1.8c-2.3-0.8-4.7-1.6-7.3-1.6c-5-0.1-10-0.6-14.8-1.7
	c-1-0.2-2-0.3-3-0.2c-3.4,0.3-6.6-0.6-9.7-1.9C146.4,347.8,143.7,346.6,140.6,346.5L140.6,346.5z M334.5,324.9
	c2.1-1.1,4.2-1.8,6.2-2.8c4-2,8.2-3.7,11.9-6.2c0.7-0.4,1.3-1,1.9-1.5c0.4-0.3,0.6-0.3,1.1-0.1c2.1,1.1,4.3,2,6.5,3.1
	c1.5,0.7,2.6,2,3.8,3c5.4,4.6,11.1,8.8,17,12.7c1.3,0.9,2.7,1.7,4,2.5c0,0.6-0.5,0.8-0.8,1.1c-1.8,1.6-3.7,3.2-5.5,4.8
	c-0.6,0.5-1.2,1.1-1.7,1.7c-0.6,0.7-1.3,1.3-2.1,1.7c-2,1-3.8,2.4-5.7,3.6c-4.2,2.7-8.7,4.7-13.2,6.7c-4,1.8-8.1,3.5-12.2,4.8
	c-0.7,0.2-1.5,0.4-2.2,0.6s-1.1,0-1.4-0.7c-1.7-3.7-2.8-7.6-3.4-11.6c-0.6-4.1-1-8.2-1.6-12.3C336.4,332.5,335.9,328.7,334.5,324.9
	L334.5,324.9z M36,307.7c0.4-0.3,0.6-0.4,0.7-0.5c4.8-2.2,9.1-5.3,13.7-7.7c1.4-0.8,2.8-1.7,4-2.8c2.2-1.8,4.8-2.9,7.2-4.2
	c0.7-0.4,1.3-0.4,1.9,0.3c1,1,2.3,1.5,3.6,1.9c2.1,0.6,4.1,1.4,6.1,2.5c3.9,2.2,8,3.9,12.3,5c1.9,0.5,3.8,1.2,5.6,2
	c0.9,0.4,0.9,0.4,0.5,1.3c-1.5,3.3-3,6.6-4.6,9.8c-0.3,0.7-0.8,1.5-1.2,2.1c-2.3,3.3-3.9,6.9-5.1,10.7c-0.7,2.3-0.8,2.3-3.1,1.4
	c-4.9-2.1-9.6-4.6-14.4-6.7c-4.3-1.9-8.3-4.3-12.6-6.3c-2.2-1-4.1-2.5-6.1-3.7C41.8,311.2,39.1,309.3,36,307.7L36,307.7z
	 M80.4,170.5c-0.1-0.2-0.2-0.3-0.2-0.4c0.5-5.3-0.5-10.4-1-15.7c0-0.4-0.2-0.8-0.3-1.2c-0.4-1.6-0.7-3.2-0.7-4.8
	c0-1.1-0.3-2.2-0.6-3.3c-0.3-0.9-0.2-1.1,0.7-1.2c1.7-0.2,3.3-0.5,5-0.4c0.9,0,1.8-0.2,2.6-0.6c1.5-0.6,3.2-0.6,4.8-0.9
	c2.6-0.5,5.3,0,7.9-0.3c1.6-0.2,3.1-0.3,4.7-0.3c2.8,0,5.6,0.3,8.4,0.2c1.8-0.1,3.6-0.4,5.5-0.1c0.2,0.5-0.1,1-0.3,1.4
	c-0.5,1.5-0.7,3-0.8,4.6c-0.2,2.8-0.5,5.7-0.6,8.5c-0.2,2.8-0.5,5.7-0.3,8.5c0.2,2-0.4,4.1-0.2,6.1c0.1,0.7-0.3,0.8-0.9,0.7
	c-1.4-0.2-2.7-0.4-4.1-0.6c-3.3-0.6-6.6-1.3-9.9-1.6c-3.2-0.3-6.4-0.3-9.6,0C87.2,169.4,83.8,169.8,80.4,170.5z M258.2,153.7
	c0.9-2.2,1.3-4.5,2.2-6.7c1.5-3.8,2.7-7.8,4.1-11.7c0.9-2.4,2-4.7,2.8-7.1c0.2-0.6,0.6-0.9,1.2-0.9c4.6-0.1,9.2-0.5,13.7,0
	c1.2,0.1,2.3,0,3.5-0.2c3.8-0.6,7.7-0.4,11.6-0.9c0.8-0.1,1.7-0.2,2.6-0.3c0,0.2,0.1,0.4,0.1,0.5c-1.8,5.9-3.1,11.9-4.5,17.9
	c-0.5,2-1.2,3.9-1.5,5.9c-0.1,0.6-0.4,0.7-0.9,0.9c-3.6,0.9-7.2,2-10.9,2.3c-2.6,0.2-5.1,0.7-7.7,0.9c-2.9,0.2-5.8,0-8.7,0h-0.3
	c-2-1.2-4.2-0.6-6.3-0.3C258.9,153.9,258.6,154,258.2,153.7L258.2,153.7z M42.8,240.1h2.4c0.5,0,0.7,0.2,0.7,0.8v0.6
	c-0.2,2.4,0.2,4.8,0.5,7.2c0.1,1.5,0.2,3,0.4,4.6c0.3,2.1,0.8,4.2,1.3,6.3c0.3,1.1,0.3,1.2-0.7,1.4c-4,0.8-7.9,2.3-11.9,2.6
	c-4.3,0.3-8.5,1.2-12.8,1.2c-3.7,0-7.4,0.4-11.1,0.6h-0.8c-0.7,0.1-1.2-0.1-1.4-0.9c-0.1-0.5-0.4-1-0.6-1.6c-1-3-2.1-6-2.8-9
	c-0.2-0.7-0.4-1.5,0.2-2.2c0.3-0.3,0.1-0.6-0.1-0.8c-0.6-0.8-0.7-1.8-0.8-2.7c-0.1-0.8-0.2-1.5-0.3-2.3c-0.1-0.6,0-1,0.7-1
	c3.2-0.3,6.4-0.9,9.7-1.3c3.3-0.4,6.6-0.8,9.8-1.3c5.1-0.7,10.3-1.6,15.4-2C41.3,240,42,240.1,42.8,240.1z M118.8,163.6
	c-0.1-3.3,0.2-6.6,0.5-9.9c0.1-1.9,0.4-3.8,0.4-5.6c0-2,0.5-3.8,0.9-5.7c0.2-0.8,0.6-0.9,1.3-0.9c3.6,0,7.2,0.2,10.8,0.4
	c3.9,0.3,7.7,0.3,11.6,0.2c1.4,0,2.7,0,4.1-0.2c1.1-0.2,1.3,0.1,1,1.2c-0.3,1.1-0.6,2.1-0.9,3.2c-0.6,2.2-1.1,4.5-0.8,6.8
	c0.1,0.9,0,1.8,0,2.8c0,1.5,0,3,0.3,4.4c0.5,2.3,0.2,4.6,0.4,6.9c0,0.6-0.2,0.9-0.8,1.1c-1.5,0.5-2.9,1.2-4.4,1.7
	c-2.2,0.8-4.4,1.7-6.6,2.5c-2.8,1.1-5.6,1.4-8.6,1.1c-2.5-0.3-5-0.8-7.6-1.1c-0.7-0.1-0.9-0.4-1.1-1c-0.3-1.6-0.6-3.2-0.5-4.8
	L118.8,163.6L118.8,163.6z M290.3,361.7c0.2-3.5-0.4-7.2-1.2-10.9c-0.4-1.7-0.4-3.5-0.3-5.2c0.5-4.6,0-9.2-0.8-13.7
	c-0.6-3.4-0.3-3,2.5-2.8c2.4,0.2,4.8,0,7.2-0.2c1.2-0.1,2.3,0,3.5,0.3c2.5,0.6,5.1,0.4,7.6,0.3c0.1,0,0.3-0.1,0.5-0.1
	c1.8-0.2,1.9-0.2,1.9,1.6c0.1,2.8-0.3,5.5-0.4,8.2c-0.1,1.5,0,3.1,0.3,4.6c0.4,2.2,0.6,4.4,1.1,6.6c0.4,1.4,0.3,2.8,0.3,4.3
	c0.1,2.2,0.3,4.4,0.3,6.6c0,1.5-0.1,2.8-0.7,4.2c-0.2,0.6-0.6,0.9-1.2,0.9c-1.5,0.1-3,0.4-4.5,0.7c-1.1,0.2-2.3,0.4-3.5,0.4
	c-1.6,0-3.2,0.2-4.9,0.5c-0.8,0.1-1.5,0-2.3,0.1c-1.4,0-2.7,0.1-4.1,0.3c-0.9,0.1-1,0-1.1-1C290.3,365.7,290.3,363.8,290.3,361.7
	L290.3,361.7z M212.2,134.2c-1.4,4.3-1.4,8.8-2.1,13.1c-0.3,1.6-0.7,3.1-1.2,4.6c-0.2,0.7-0.5,1.5-0.5,2.2c0,0.8-0.3,1-1.1,1.1
	c-3,0.3-6,0.4-9,0.9c-5,0.9-10.1,0.9-15.2,1.5c-3.3,0.4-6.6,1.3-9.9,1.9c-1,0.2-2.1,0.5-3.1,0.7c-0.6,0.1-0.9,0-0.8-0.7
	c0.4-2.9,0.1-5.9,0.4-8.9c0.1-1.4,0.2-2.8,0.2-4.3c0-1.9,0.2-3.9,0.6-5.8c0.1-0.6,0.3-0.9,1-0.9c0.5,0,0.9-0.2,1.4-0.2
	c3.8,0,7.4-1.1,11.1-1.9c3.6-0.8,7.2-1.4,10.8-1.8c4.5-0.6,9.1-1.2,13.6-1.7C209.7,134.1,210.9,134.2,212.2,134.2z M367.7,298.6
	c0.6-1.1,1.1-2,1.6-2.8c0.9-1.4,1.7-2.9,2-4.6c0.1-0.7,0.3-1,1.1-0.9c3.2,0.2,6.3-0.4,9.4-0.7c2.2-0.2,4.4-0.5,6.6-0.5
	c2.7,0,5.3,0.1,8-0.1c3.8-0.3,7.6-0.7,11.4-1.1c0.6-0.1,1.1-0.1,1.7,0c1.5,0.2,2.9,0.4,4.4,0.5c1.3,0.1,1.4,0.2,1.4,1.5
	c0,2.1-0.3,4.3-0.7,6.4c-0.7,3.8-1.7,7.6-3.3,11.1c-1.1,2.5-2.3,4.9-4,7c-0.4,0.4-0.6,0.6-1.1,0.3c-3.1-1.5-6.5-2.4-9.7-3.6
	c-3.4-1.2-6.6-3.1-9.8-4.7c-5.1-2.5-10.2-4.9-15.5-6.8C370,299.2,369,298.9,367.7,298.6L367.7,298.6z M51.2,150.8
	c1.4,2.5,2.7,4.9,4.1,7.3c0.7,1.2,1.4,2.5,1.9,3.8c0.8,2.7,2.4,5.1,3.8,7.5c0.7,1.2,1.4,2.4,2.1,3.5c0.8,1.3,0.7,1.2-0.3,2.3
	c-1,1.1-2.4,1.9-3.3,3.1c-1.4,1.9-2.6,3.9-3.7,5.9c-0.6,1.1-1.3,2.2-1.9,3.3c-0.3,0.6-0.7,0.8-1.4,0.5c-2.2-0.7-4.4-1.3-6.5-2.1
	c-0.1,0-0.2-0.1-0.3-0.1c-6.6-1.8-12.5-5.1-18.9-7.4c-1.2-0.4-1.2-0.5-0.6-1.5c1.8-3.1,3.9-5.9,6.2-8.7c3.5-4.1,6.7-8.3,10.7-11.9
	c2.3-2,4.7-3.9,7.4-5.3C50.7,150.9,51,150.9,51.2,150.8z M247.7,328.4c-1,3-1.9,5.8-3.1,8.5c-1.9,4.3-3.3,8.8-4.8,13.2
	c-0.3,0.8-0.5,1.6-0.8,2.5c-0.8,2.1-1.2,4.3-1.3,6.6c-0.1,1.4-0.4,2.8-0.4,4.3c0,0.6-0.3,0.8-0.9,0.6c-3-0.9-6.1-1.1-9.2-1.6
	c-2.5-0.4-5-0.8-7.5-1.1c-1.4-0.2-1.5-0.2-1.5-1.7c-0.2-4.1-0.2-8.2,0.9-12.1c0.9-3,1.1-6.1,1.4-9.2c0.4-3.4,1-6.9,1.4-10.3
	c0.1-0.9,0.5-1.1,1.3-1c2.6,0.3,5.2,0.5,7.8,0.7c1.9,0.2,3.8,0.5,5.8,0.5c3.4,0.1,6.8,0.5,10.2,0.1
	C247.1,328.3,247.3,328.3,247.7,328.4L247.7,328.4z M122.2,313.8c-0.7,0.8-1.4,1.6-2,2.4c-2.7,3.2-4.4,7.1-6.4,10.7
	c-1.9,3.5-3.1,7.2-4.7,10.8c-0.5,1.2-0.3,1.1-1.8,0.9c-4.1-0.6-8.2-1.7-12.2-2.9c-3.6-1-7.1-2.3-10.5-3.6c-1.3-0.5-1.3-0.5-0.8-1.9
	c0.7-2,1.4-4,2.1-6.1c0.3-0.9,0.7-1.7,1.3-2.4c2.1-3.1,4.1-6.2,5.9-9.5c0.9-1.6,1.4-3.5,2.5-5.1c0.6-0.9,0.6-1,1.7-0.6
	c2.6,0.8,5,1.9,7.5,3c3.2,1.4,6.4,2.6,9.9,2.9c1.1,0.1,2.2,0.5,3.2,0.8c1.1,0.3,2.3,0.6,3.4,0.3
	C121.6,313.4,121.8,313.5,122.2,313.8L122.2,313.8z M316.1,366.1c-0.6,0-0.9-0.3-0.7-0.6c0.6-1.6,0.2-3.2,0.5-4.8
	c0.1-0.7,0.1-1.4,0-2.1c-0.3-2.2-0.3-4.4-0.2-6.6c0.2-5.7-0.4-11.4-0.8-17.1c-0.1-1.2-0.1-2.4-0.1-3.7c0-1.3,0.3-1.7,1.6-1.7
	c1.9,0,3.6-0.5,5.4-0.8c2.8-0.5,5.5-1.5,8.3-2c1.2-0.3,1.5-0.2,1.7,1c0.7,2.8,1.2,5.7,1.6,8.5c0.3,2.7,0.6,5.4,1.1,8
	c0.3,1.6,0.5,3.2,0.7,4.8c0.3,3.1,1.5,6,2,9.1c0.2,1,0.7,2,1,3c0.4,1,0.4,1-0.6,1.4c-1.7,0.7-3.5,1-5.4,1.2c-3,0.2-5.9,1-8.9,1.4
	C320.9,365.5,318.4,365.8,316.1,366.1L316.1,366.1z M16.2,202.1c1.4-0.4,2.8,0.2,4.2,0.3c1.1,0.1,2.2,0.2,3.3,0.2
	c4.2,0.2,8.3,0.6,12.4,1.3c1.5,0.2,2.9,0.2,4.4,0.4c1.5,0.4,3,0.4,4.5,0.5c0.2,0,0.4,0,0.6,0.1c3,0.6,3,0.7,2.6,3.7
	c-0.4,3.4-0.4,6.8-0.5,10.2c-0.1,2.4-0.6,4.7-0.9,7.1c-0.1,0.5-0.4,0.6-0.9,0.6c-0.8,0-1.6-0.3-2.4-0.6c-2.4-0.9-4.8-2-7.4-2.4
	c-1.8-0.3-3.6-0.4-5.5-0.6c-3-0.3-6-1-8.9-2.2c-2.1-0.9-4.3-1.5-6.6-2c-2.1-0.5-4.1-1.3-6-2.2c-0.7-0.3-0.8-0.6-0.6-1.3
	c0.5-1.6,1.1-3.2,1.8-4.7c1.1-2.2,1.7-4.6,2.5-6.9c0.6-1.9,0.5-1.7,2.2-1.6C15.5,202.1,15.8,202.1,16.2,202.1z M413.9,283.7
	c-3.6,0.4-7.2,1.1-10.9,1.4c-3,0.2-5.9,0.1-8.9,0.2c-4.9,0.3-9.9,0.6-14.8,1.3c-2.2,0.3-4.4,0.9-6.7,0.8c-1.2,0-1.3,0-1.5-1.2
	c-0.6-3-1.9-5.4-4.2-7.4c-0.5-0.5-1-1-1.4-1.5c0-0.5,0.4-0.7,0.7-0.9c2.6-2.1,4.5-4.6,5.5-7.7c0.4-1.3,0.5-1.2,1.8-1.2
	c3.6,0.1,7.2,1,10.8,1.1c1.7,0,3.4,0.5,5.2,0.6c2.7,0.3,5.4,0.7,8.1,0.5c2.3-0.1,4.7,0,7,0c0.7,0,1.3,0.2,1.7,0.8
	c0.3,0.5,0.7,0.9,1.1,1.2c3.5,3.1,5.1,7.3,6.5,11.5C414,283.4,413.9,283.5,413.9,283.7L413.9,283.7z M347.6,139.9
	c2.1-5.9,4.5-11.6,6.8-17.4c0.9-2.4,1-2.5,3.5-2c2.1,0.4,4.3,1,6.4,1.4c2.9,0.5,5.6,1.6,8.4,2.3c3.6,0.9,6.9,2.4,10.2,4.1
	c0.5,0.2,0.9,0.4,1.2,0.9c0.9,1.7,2.5,2.7,4.1,3.8c2.6,1.7,4.1,4.1,4.1,7.2c0,0.7-0.1,1.1-0.9,1.2c-4.5,0.5-8.9,1.6-13.4,2.2
	c-0.5,0.1-0.9,0.1-1.4,0.1c-2.5-0.1-4.9,0.2-7.3,0.7c-0.6,0.1-1.1,0.2-1.5-0.4c-0.1-0.1-0.2-0.3-0.3-0.3c-2.7-1.1-5.1-3-8.1-3.3
	c-1.3-0.1-2.6-0.4-4-0.3C352.8,140.3,350.2,139.9,347.6,139.9L347.6,139.9z M404.7,317.4c-2.1,2.8-4.2,5.2-6.7,7.4
	c-2.7,2.3-5.1,4.8-7.5,7.4c-1.1,1.1-1.1,1.1-2.5,0.4c-2-1-3.6-2.5-5.3-3.9c-3.6-3-7.3-6.1-11.4-8.4c-2.6-1.5-5-3.3-7.2-5.3
	c-1.8-1.6-3.8-2.9-5.9-4.2c1.1-1.3,2.1-2.5,3-3.7c1.5-1.9,2.9-3.8,4.3-5.8c0.4-0.6,0.8-0.7,1.5-0.5c2.9,0.9,5.7,2,8.4,3.3
	c1.5,0.7,3,1.4,4.4,2c2.9,1.3,5.8,2.8,8.6,4.3c3.3,1.8,6.7,3.2,10.3,4.3C400.8,315.4,402.7,316.4,404.7,317.4L404.7,317.4z
	 M485.7,222.5c-0.1,6.3-2.5,11.6-6.1,16.3c-0.7,0.9-0.7,0.8-1.8,0.3c-2.5-1.3-5-2.5-7.5-3.7c-1-0.5-1.9-0.9-2.8-1.5
	c-4-2.6-8.5-4.2-12.8-6.2c-0.4-0.2-0.7-0.3-1.1-0.5c-1.4-0.6-2.5-1.2-2-3.1c0.2-0.8-0.1-1.7-0.5-2.5c-0.2-0.5-0.1-0.8,0.3-1
	c0.1-0.1,0.3-0.1,0.4-0.2c4.2-1.8,8-4.3,12.1-6.2c0.4-0.2,0.7-0.4,1.1-0.6c4.3-2.9,9.3-4.3,14.1-6.2c0.7-0.3,1-0.1,1.4,0.4
	c0.9,1.1,1.7,2.3,2.1,3.7c0.5,1.8,1.2,3.6,2,5.3C485.4,218.7,485.9,220.6,485.7,222.5L485.7,222.5z"/>
<path class="st7" d="M443.1,229.2c-1.7,0.6-3.6,0.6-5.4,1c-3.7,0.8-7.4,0.4-11.1-0.1c-1.5-0.2-3.1-0.2-4.6-0.4
	c-5.4-0.7-10.8-1.2-16.2-1.9c-4-0.5-8-0.7-12-1c-1.3-0.1-2.6-0.3-3.9-0.6c-2.1-0.5-4.2-1-6.7-1c1-1,1.9-1.6,2.9-2.1
	c1.7-0.9,3.3-1.9,4.8-3c1.3-1,2.8-1.7,4.2-2.5c3.8-2.2,7.4-4.7,11.2-6.8c0.6-0.3,1.1-0.4,1.7-0.2c5,1.6,10.2,2.3,15.4,3
	c4,0.5,7.9,1.4,11.6,2.8c0.2,0.5-0.2,0.6-0.4,0.7c-1.5,1.3-2,2.9-2.2,4.7v0.2c0,2,2.4,5.2,4.3,5.9c1.5,0.5,3,0.7,4.5,0.9
	c0.5-0.2,1.1,0.1,1.6-0.2h0.9c0.1,0.1,0.1,0.1,0.1,0.2c0,0.1-0.1,0.1-0.1,0.1C443.5,229.2,443.3,229.1,443.1,229.2L443.1,229.2z"/>
<path class="st8" d="M410.4,231.9c0.6-0.3,1.1-0.1,1.6,0c7.1,0.9,14.2,2.3,21.4,2.1c1.3,0,1.3,0,1.3,1.4c0,4.1,0.2,8.2,1.3,12.1
	c0.9,3.3,2,6.5,2.9,9.8c0.2,0.8,0.4,1.7,0.6,2.5c0.2,0.7-0.1,1-0.8,1c-2.1,0.1-4.1,0.5-6.2,0.2c-2.4-0.4-4.9,0.1-7.3,0.3
	c-2.3,0.2-4.7,0.2-7,0.8c-0.8,0.2-1.1-0.1-1.3-0.9c-0.9-3-1.7-6.1-2.3-9.2c-0.4-2.1-0.9-4.2-1.5-6.2c-0.9-3-1.4-6.2-2.2-9.2
	C410.6,235,410.7,233.5,410.4,231.9L410.4,231.9z M345.2,188.9c1.1-0.7,2.2-1.6,3.5-2.2c3.7-1.9,6.9-4.4,10.2-6.7
	c3.5-2.4,7.2-4.7,11.1-6.5c2.4-1.1,4.5-2.7,6.9-3.9c0.8-0.4,1.5-0.6,2.3-0.5c1.8,0.2,3.6-0.3,5.5-0.4c0.2,0,0.4-0.1,0.6-0.1
	c1.3-0.2,1.5,0,1.3,1.2c-0.1,0.8-0.2,1.6-0.2,2.4c-0.2,2.9,0,5.8,0.1,8.7c0,2.8-0.3,5.6-0.8,8.4c-0.2,0.8,0,1.9-0.5,2.5
	c-0.5,0.6-1.5,0.8-2.3,1.2c-1.1,0.6-2.3,1.2-3.4,1.8c-0.7,0.4-1.4,0.5-2.2,0.2c-1.3-0.4-2.6-0.6-3.9-0.8c-2.3-0.4-4.4-1.2-6.7-1.6
	c-3.6-0.8-7.3-1.5-11-1.9C352.3,190.4,348.8,189.8,345.2,188.9z M300.6,182.3c2.7-0.9,5.1-1.8,7.4-2.9c3.2-1.5,6.4-2.9,9.5-4.5
	c1.8-0.9,3.8-1.3,5.8-1.9c5-1.3,10-2.5,14.8-4.3c1.1-0.4,2-0.4,3.1,0.2c2.5,1.4,5.2,2.4,7.9,3.3c2.5,0.8,4.8,1.9,7.2,2.9
	c0.8,0.3,1.7,0.7,2.5,1c0,0.4-0.2,0.5-0.4,0.6c-3.8,2.6-7.6,5.1-11.5,7.5c-1.7,1.1-3.4,2.1-4.9,3.4c-1,0.9-2,1.1-3.2,0.9
	c-1.6-0.3-3.3-0.6-5-0.9c-2.3-0.3-4.6-0.7-7-0.8c-3.4-0.2-6.7-1.2-10.1-1.7c-1.5-0.2-3-0.6-4.5-1.1c-0.9-0.3-1.9-0.4-2.9-0.4
	c-1.9,0-3.9,0.1-5.8-0.3C302.6,183.2,301.7,183,300.6,182.3z M205.9,325.4c3.8,0.3,7.6,0.6,11.4,1c1.3,0.1,1.3,0.2,1,1.5
	c-0.4,1.7-0.6,3.4-0.7,5.1c-0.2,2-0.6,4-0.7,6.1c-0.2,3.7-1.3,7.3-2,10.9c-0.2,1-0.4,2-0.4,3c0.1,2.1-0.2,4.2-0.3,6.3
	c-0.1,1.1-0.1,1.2-1.1,1c-1-0.1-1.9-0.4-2.8-0.6c-2.5-0.5-5-1-7.7-1c-2.8,0-5.4-1.2-8.2-1.9c-0.5-0.1-0.7-0.3-0.5-0.9
	c1.2-2.7,1.3-5.6,1.9-8.5c0.5-2.6,1.1-5.2,1.9-7.7c0.8-2.5,1.6-5,2.5-7.4c0.9-2.3,2-4.5,3-6.7c0.2-0.5,0.6-0.6,1.1-0.5
	C204.9,325.4,205.4,325.4,205.9,325.4L205.9,325.4z M142.4,318.9c-0.1,0.9-0.7,1.6-1,2.3c-1.4,3-2.2,6.1-2.6,9.4
	c-0.1,1.2-0.4,2.3-0.5,3.5c-0.2,1.8-0.5,3.5-0.2,5.3c0.3,2.3-0.2,4.6-0.2,6.9c-2-0.1-3.8-0.8-5.7-1.1c-2.3-0.5-4.5-1.2-6.9-1.5
	c-0.2,0-0.4-0.1-0.6-0.2c-3.6-1.8-7.7-2.3-11.5-3.7c-1.1-0.4-1.2-0.4-0.7-1.4c2.1-5.3,4.4-10.5,7.2-15.5c1.6-2.9,3.6-5.4,5.8-7.9
	c0.4-0.5,0.8-0.5,1.4-0.4c3.4,0.6,6.7,1.2,9.9,2.4C138.5,317.9,140.4,318.3,142.4,318.9L142.4,318.9z M59.8,290.1
	c-1.6,0.8-2.7,1.3-3.8,1.9c-0.6,0.3-1.3,0.6-1.8,1.1c-3,2.5-6.4,4.3-9.8,6.3c-3.2,1.9-6.2,3.9-9.6,5.4c-0.6,0.3-1,0.3-1.6-0.1
	c-2.3-1.5-4-3.6-5.7-5.7c-2.2-2.8-4.6-5.5-6.3-8.6c0.1-0.2,0.2-0.4,0.4-0.4c4.6-1.5,8.8-4.1,12.8-6.8c5.2-3.4,10.8-6,16.2-8.8
	c1-0.5,1-0.5,1.3,0.6l0.6,2.4c0.3,1.7,0.7,3.3,1.5,4.8c0.6,1.1,0.7,2.3,1.3,3.4C56.5,287.3,57.6,289,59.8,290.1L59.8,290.1z
	 M41.8,237.2c-2.2,0-4.5,0.2-6.7,0.6c-1.4,0.2-2.7,0.3-4.1,0.4c-5.7,0.2-11.2,1.1-16.8,2c-2.7,0.5-5.4,1-8.1,1.4
	c-1.4,0.3-1.4,0.2-1.5-1.3c-0.1-3.6,0-7.1,0.9-10.6c0.7-3,1.1-6.1,1.8-9.1c0.1-0.2,0.1-0.5,0.2-0.7c0.3-1.1,0.4-1.2,1.5-0.7
	c1.2,0.5,2.4,1,3.6,1.6c4.4,2.1,9,3.2,13.7,4c5.9,1,11.6,2.6,17.4,4c1.7,0.4,2.3,0.8,2,3.3c-0.2,1.4-0.2,2.8,0.1,4.3
	c0.2,0.9,0.1,0.9-0.8,1C44,237.2,42.9,237.2,41.8,237.2L41.8,237.2z M318.8,146.2c-0.2-0.8-0.1-1.5,0.1-2.3c0.6-1.8,0.8-3.6,0.7-5.4
	c0-1,0.1-2,0.6-3c1.3-2.8,1.9-5.8,2.8-8.7c0.2-0.7,0.5-1.4,0.6-2.1c0.2-0.9,0.7-1.2,1.5-1.4c3.2-0.6,6.5-1.3,9.7-2
	c1.3-0.3,2.5-0.5,3.8-0.4s2.6-0.1,3.8-0.8c0.9-0.5,2.1-0.4,3.1-0.4c0.9,0,1.8,0.1,2.7-0.1c0.8-0.2,1.7-0.1,2.7,0.1
	c-0.4,1.3-0.8,2.6-1.2,3.8c-1.4,3.9-2.4,7.9-3.6,11.8c-0.5,1.7-1.4,3.3-2.2,4.9c-0.3,0.6-0.8,0.8-1.3,0.9c-2.8,0.9-5.8,1.3-8.6,2.1
	c-4.2,1.3-8.5,1.4-12.7,2.4C320.6,145.9,319.7,146.2,318.8,146.2z M262.9,128.3c-2.6,6.3-4.1,12.8-6.6,19c-0.7,1.8-1.5,3.6-1.9,5.5
	c-0.1,0.6-0.4,1-1.1,0.9c-1.9-0.1-3.9,0.2-5.7-0.6c-0.1-0.1-0.3-0.1-0.5-0.1c-2.8,0.1-5.6-0.5-8.4-0.1c-1.9,0.3-3.7-0.3-5.6-0.3
	c-0.6,0-0.6-0.5-0.5-0.9c0.2-1.3,0.3-2.6,0.7-3.7c0.6-1.8,0.8-3.6,1.1-5.4c0.4-2.6,1-5.2,1.4-7.8c0.2-1.6,1.5-2.8,2.5-4.1
	c0.2-0.3,0.5-0.3,0.8-0.3c4.2-0.5,8.5-1,12.8-1.3c3.5-0.2,7-0.2,10.5-0.8C262.4,128.3,262.9,128.3,262.9,128.3z M344.4,167
	c0.6-0.5,1.3-0.6,2-0.7c4.6-1.2,9.2-2.8,13.6-4.5c3.4-1.2,6.2-3.5,8.6-6.2c0.7-0.8,1.1-1.8,1.1-2.9c-0.1-1.5,0.2-3-0.3-4.4
	c-0.2-0.5,0-0.9,0.6-1c1.5-0.2,3-0.6,4.5-0.6c3.6,0.1,7-0.6,10.5-1.1c2.3-0.3,4.5-0.7,6.9-0.5c-0.4,1.5-0.7,2.8-1.6,4
	c-2.3,3.1-4.9,6-7,9.3c-0.3,0.6-0.9,1-1.3,1.5c-1.8,1.6-3.2,3.4-4.5,5.4c-0.3,0.5-0.6,0.9-1.1,1.2c-3.9,2-7.6,4.4-11.5,6.3
	c-0.8,0.4-1.5,0.5-2.3,0.3c-2.3-0.5-4.6-1.1-6.9-2c-3.1-1.2-6.4-2-9.5-3.3C345.5,167.5,344.9,167.4,344.4,167L344.4,167z
	 M11.1,268.6c2.3-0.1,4.4-0.2,6.4-0.3c4.5-0.3,8.9-0.8,13.3-1.4c2.6-0.4,5.2-0.5,7.7-1c2.2-0.4,4.2-1.1,6.4-1.4c1-0.2,2-0.4,3-0.4
	c1.1-0.1,1.1,0,1.3,1.1c0.4,1.6,0.6,3.3,1.2,4.9c0.3,0.7,0,1.1-0.6,1.4c-2.3,1.1-4.6,2.3-7,3.5c-3.3,1.7-6.5,3.3-9.8,5
	c-1.6,0.8-3,1.9-4.5,2.8c-2.6,1.7-5.1,3.4-7.8,4.8c-1,0.5-1,0.5-1.7-0.4c-1.5-2.1-2.5-4.4-3.4-6.8c-1.4-3.6-3-7-4.2-10.7
	C11.4,269.4,11.3,269.1,11.1,268.6L11.1,268.6z M454.2,147.3c-1,1.3-1.8,2.4-2.7,3.5c-1,1.3-1.9,2.7-2.5,4.2c-1,2.2-2.1,4.3-3.3,6.4
	c-0.6,1-1.2,2-1.5,3.2c-0.2,0.6-0.5,0.9-1.2,0.8c-3.1-0.3-6.2,0-9.2,0.8c-2.8,0.8-5.6,1.6-8.3,2.6c-0.6,0.2-1.1,0.5-1.8,0.5
	c-0.2-1-0.1-2,0.2-2.9c0.8-3,0.6-6.1,0.5-9.1c-0.1-2.7,0-5.3,0.6-7.9c0.2-0.9,0.6-1.3,1.4-1.6c3.2-1.2,6.5-2,10-2c2,0,4-0.1,5.9-0.4
	C446.4,144.8,450.2,146.1,454.2,147.3z M405.2,264.3c-1.7-0.7-3.3-1.6-4.8-2.5c-3.7-2.2-7.5-4.1-11.4-5.9c-2.5-1.1-4.8-2.5-7-4
	c-4.3-2.8-8.8-5.2-13.2-7.7c-1.8-1-3.3-2.4-4.9-3.6c-0.6-0.4-0.5-0.8,0.1-1.2c1.7-1.2,3.3-2.4,5-3.6c0.1-0.1,0.2-0.2,0.4-0.3
	c2.4-0.3,3.6-2.3,5.4-3.5c1.2-0.8,2.3-1.8,3.5-2.8c0.8-0.7,1-0.6,1.5,0.3c0.3,0.5,0.7,1,1.1,1.5c1,1.1,1.7,2.4,2.6,3.6
	c3.6,5,7.1,10,11,14.9c2.7,3.4,5.6,6.6,8.4,9.9c1,1.2,1.9,2.6,2.5,4C405.3,263.8,405.5,264,405.2,264.3z M15.1,198.4
	c0.7-2.6,1.6-4.6,2.8-6.5c0.6-1,1.1-1.9,1.5-3c1-2.4,2.4-4.6,3.7-6.9c0.7-1.2,0.8-1.2,2-0.7l8.1,3.6c4.5,2.1,9.2,3.7,13.9,5.1
	c1.4,0.4,2.8,0.9,4.2,1.3c0.6,0.2,0.8,0.5,0.6,1.1c-0.8,2.8-1.6,5.6-2.3,8.4c-0.2,0.6-0.3,1-1.1,0.7c-2.9-1.1-5.9-1.1-8.9-1.3
	c-0.9-0.1-1.8-0.1-2.7-0.3c-2.4-0.5-4.9-0.5-7.3-0.9c-3.7-0.6-7.4-0.3-11.1-1.1C17.5,197.9,16.4,198,15.1,198.4z M408,263.2
	c-0.7-1.5-1.2-3.1-2.1-4.4c-3.6-5.4-7.2-10.7-11.7-15.4c-1.7-1.8-3.2-3.8-4.8-5.7c-2-2.4-3.8-5.1-5.6-7.6c-0.3-0.4-0.7-0.6-0.8-1.2
	c2-0.6,3.9-0.2,5.8,0.3c3.2,0.8,6.5,1.1,9.8,1.4c2.6,0.2,5.3,0.4,7.9,0.6c0.6,0,0.9,0.3,1,0.9c0.1,0.5,0.2,0.9,0.2,1.4
	c0.1,4.4,1.1,8.6,2,12.8c1.1,4.9,2.4,9.7,3.7,14.5c0.1,0.2,0.2,0.5,0.2,0.7c0.1,0.9,0,1.1-0.9,1.1
	C411.1,262.5,409.6,262.5,408,263.2L408,263.2z M462.8,184.4c-2.5,1.4-4.5,3.2-6.7,4.6c-0.9,0.6-1.9,1-2.8,1.5
	c-7,3.1-13.7,6.7-20.5,10.3c-0.4,0.2-0.9,0.5-1.3,0.8c-3.2,2.6-6.8,4.5-10.2,6.7c-0.4,0.3-0.9,0.5-1.4,0.4c-2.6-0.7-5.3-1.2-8.3-1.2
	c0.4-0.9,1.1-1.3,1.7-1.7c1.7-1.2,3.4-2.3,5.1-3.4c4.3-2.7,8.2-5.9,12.3-8.9c4.1-3,7.5-6.6,11-10.2c1.5-1.6,2.9-3.2,4-5
	c0.6-1,0.6-1,1.8-0.6c3.1,0.9,6,2.5,9,3.8C458.4,182.5,460.5,183.4,462.8,184.4L462.8,184.4z M344.1,255.1c0.6-0.8,1.1-1,1.6-1.3
	c3.4-1.9,6.3-4.3,9.1-6.9l4.5-3.9c0.7-0.6,1.1-0.5,1.8,0c4.4,2.9,9,5.5,13.6,8.2c3.6,2.1,7,4.5,10.6,6.7c4.2,2.6,8.6,4.9,13.1,6.9
	c1.5,0.7,3.1,1.3,4.5,2.2c-0.1,0.5-0.5,0.3-0.7,0.3h-4.7c-2.5,0.1-4.9-0.3-7.3-0.7c-3.2-0.6-6.4-0.7-9.5-1.2
	c-2.5-0.3-4.9-0.8-7.4-0.9c-0.6,0-0.9-0.3-0.9-0.9c0.1-3-1.5-5.3-3.4-7.4c-1-1.1-2.2-1.7-3.7-2.1c-3-0.7-6-1.1-9.1-0.3
	c-1.9,0.5-3.9,0.4-5.9,0.6C348.3,254.5,346.4,254.6,344.1,255.1L344.1,255.1z M53.7,149.6c2.6-1.2,5.2-2,8-2.5c3-0.5,6-1.2,9-1.7
	c0.3-0.1,0.6-0.2,0.9-0.1c0.8,0.3,1.6,0.1,2.3-0.3c0.8-0.4,1-0.2,1,0.6c0,0.4,0.1,0.7,0,1.1c-0.1,2.7,0.2,5.4,0.9,8
	c0.1,0.5,0.1,1.1,0.1,1.7c0,3.1-0.1,6.2,0.3,9.3c0.1,0.5,0.1,1.1,0.3,1.5c0.6,1.3,0.1,2.6,0.2,3.9c0,0.4-0.3,0.5-0.6,0.5
	c-2.5,0.6-4.9,1.3-7.4,1.8c-0.8,0.2-1.6-0.3-1.9-1.3c-1-2.9-2.5-5.7-4.1-8.3c-1.8-3-3.7-5.9-5.4-8.9c-1-1.7-1.8-3.4-3.2-4.8
	C53.8,150,53.8,149.8,53.7,149.6z M296.9,150c0-0.3-0.1-0.4-0.1-0.5c2.3-6.7,3.9-13.6,5.7-20.4c0.1-0.5,0.4-1.1,0.5-1.6
	c0.4-1.8,1.5-2.6,3.3-2.6c4.2,0,8.4-0.5,12.6-0.9c0.1,0,0.2,0.1,0.3,0.1c0.1,0.2,0,0.4,0,0.6c-1.7,3.8-2.4,7.9-2.6,12
	c-0.2,2.5-0.7,4.8-1.3,7.2c-0.1,0.5-0.2,1-0.1,1.5c0.1,1.4,0.1,1.4-1.3,1.6c-2.5,0.3-5.1,0.6-7.6,0.9
	C303.1,148.5,300,149.1,296.9,150z M217.4,133.2c2.9-0.4,5.8-0.7,8.6-1.1c2.1-0.3,4.2-0.2,6.2-0.7c0.5-0.1,0.7,0.1,0.6,0.7
	c-0.6,4.2-1.5,8.3-2.4,12.4c-0.5,2.3-0.8,4.7-1.1,7.1c-0.2,1.6-0.2,1.6-1.8,2c-3.3,0.7-6.7,1.1-10.2,1.1h-4.6
	c-1.3,0-1.3-0.1-0.9-1.3c0.6-2,1.2-4,1.6-6c0.5-2.7,0.5-5.5,0.8-8.2c0.2-1.7,0.4-3.4,1.6-4.9c0.2-0.3,0.7-0.1,0.9-0.3
	C216.9,133.5,217.2,133.3,217.4,133.2L217.4,133.2z M151.6,166.1c0-0.4-0.1-0.7-0.1-1.1c0-2-0.1-4-0.5-5.9c-0.2-1-0.1-2.1-0.1-3.2
	v-4.6c0-1.4,0.4-2.6,0.7-3.9c0.4-1.9,1.1-3.7,1.8-5.5c0.2-0.5,0.4-0.7,1-0.8c0.7,0,1.4-0.3,2.1-0.2c2.6,0.1,5.2-0.5,7.8-0.4
	c0.7,0,1.3-0.2,2-0.3c0.8-0.1,0.9,0.1,0.8,0.8c-0.3,2-0.3,3.9-0.3,5.9c0,1.9-0.2,3.8-0.4,5.6s-0.2,3.7,0,5.5c0,0.4,0.1,0.8,0.1,1.2
	c0,1.9-0.1,2.1-1.9,2.7c-4.1,1.5-8.5,2.3-12.5,4C152,166.1,151.8,166.1,151.6,166.1L151.6,166.1z M459.6,254.9
	c-2.7,1.3-5.2,3.1-8.4,3.2c-1.1,0-2.1,0.4-3.1,0.9c-1.3,0.6-2.6,0.8-4,1.1c-0.8,0.1-1.1,0-1.3-0.8c-0.7-2.1-1.5-4.2-2-6.4
	c-0.7-2.6-1.5-5.2-2.1-7.8c-0.6-2.5-0.8-5.1-0.7-7.7c0-1-0.2-2-0.1-3c0.1-0.5,0.3-0.9,0.8-0.9c1.1-0.1,2.2-0.3,3.3-0.4
	c0.6-0.1,0.9,0.2,1.2,0.7c1.6,2.4,3.3,4.7,5.1,6.9c0.3,0.4,0.6,0.7,0.8,1.1c2.3,3.9,5.2,7.3,8.2,10.6
	C458.3,253,459.1,253.8,459.6,254.9L459.6,254.9z M388.6,190c-0.2-1.4,0.3-2.8,0.4-4.2c0.3-3,0.5-6.1,0.3-9.1
	c-0.2-2.7,0.1-5.5,0.6-8.2c0.1-0.5,0.2-0.9,0.8-1.2c3.5-1.7,7-3.5,10.5-5.2h0.4c0.3,0.6,0.4,1.2,0.3,1.9c-0.1,2.1,0.4,4.1,1.3,5.9
	c1,1.9,1.1,4.1,2.1,6.1c0.5,0.9,0.9,1.8,1.3,2.8c0.5,1.2,0.5,1.3-0.6,2c-2.7,1.8-5.5,3.4-8.5,4.8c-2.7,1.3-5.5,2.7-8.1,4.3
	C389.3,189.9,389,190.1,388.6,190L388.6,190z M446.2,231.8c1.5-0.5,2.8-1.2,3.9-2.3c0.3-0.3,0.6-0.2,1,0c0.7,0.4,1.5,0.7,2.1,1.2
	c2.8,2.1,5.9,3.4,9.1,4.7c3.7,1.4,7.1,3.5,10.7,5.3c0.9,0.4,1.7,0.9,2.6,1.3c0.5,0.3,0.7,0.6,0.2,1c-3.8,3.6-7.5,7.3-12.1,9.9
	c-0.3,0.1-0.6,0.3-0.8,0.4c-0.5,0.3-0.8,0.1-1-0.3c-0.7-1.4-1.8-2.5-2.8-3.6c-2-2.3-3.6-4.8-5.3-7.2c-2-2.8-4.1-5.5-6.1-8.2
	C447.1,233.3,446.5,232.7,446.2,231.8L446.2,231.8z M424.3,209.8c1.7-0.9,3.1-1.9,4.7-2.8c3.2-1.9,6.5-3.6,9.9-5.2
	c0.7-0.3,1.4-0.6,2-1c2.6-1.7,5.5-2.9,8.5-3.9c2.1-0.7,4.2-1.6,6.3-2.4c1-0.4,2.1-0.6,3.1-0.4c1.7,0.3,3.3,0.9,5.1,1.6
	c-1,0.6-1.7,1.2-2.5,1.6c-3.3,1.5-6.1,3.9-8.9,6.2c-4.1,3.4-7.9,7.2-12,10.6c-0.7,0.6-1.3,0.7-2.2,0.3c-3.1-1.4-6.4-2.3-9.7-3.2
	C427.2,210.9,425.8,210.5,424.3,209.8z M410,177.9c-1-2.1-1.9-4-2.6-6c-1-2.9-1.6-5.8-2.1-8.7c-0.1-0.7-0.3-1.4-0.5-2.1
	c-0.2-0.6,0-0.9,0.5-1.2c0.4-0.2,0.8-0.5,1.2-0.7c3.4-1.6,6.4-3.9,9.5-6.1c1.7-1.2,3.6-2.1,5.7-3.2c-0.8,3.1-0.5,6.1-0.7,9
	c-0.3,3.2-0.6,6.4-0.5,9.6v0.8c0.6,1.4-0.2,2.1-1.4,2.7c-2.4,1.1-4.4,2.7-6.5,4.2C411.7,176.7,410.9,177.2,410,177.9z M476.8,204.2
	c-3,1-5.7,2.2-8.3,3.8c-4.5,2.9-9.4,5.2-14,7.9c-1.5,0.9-3.1,1.7-4.7,2.5c-0.3,0.2-0.7,0.5-1.1,0.1c-1.5-1.3-3.3-1.7-5.1-2.2
	c-0.2-0.1-0.5-0.2-0.8-0.3c0.5-0.7,1.2-1.2,1.8-1.7c2.4-2,5-3.9,7.5-5.8c3-2.2,5.7-4.7,8.7-6.9c2-1.5,4.2-2.7,6.2-4.1
	c0.4-0.3,0.7-0.3,1.1,0c1.3,0.8,2.7,1.4,3.9,2.4l3.3,2.7C475.8,203,476.4,203.4,476.8,204.2z M447.4,172.6c-0.6-1.3,0.4-1.9,1.6-2.4
	c3.4-1.5,7-2.4,10.6-3.4c3.2-0.9,6.5-1.2,9.7-2.2c0.7-0.2,1.1-0.1,1.4,0.6c0.7,1.9,1,3.7,0.3,5.8c-0.7,1.9-1.3,3.8-1.8,5.8
	c-0.3,1.3-1,2.4-1.7,3.6c-0.3,0.5-0.7,0.6-1.3,0.4c-2.9-1-5.9-1.8-8.8-2.9c-2.7-1-5.5-1.8-8.3-2.6c-1.6-0.4-1.6-0.4-1.6-2.1
	C447.4,173.2,447.4,173,447.4,172.6L447.4,172.6z M469.3,161c0,0.5-0.3,0.5-0.7,0.7c-1.7,0.7-3.6,0.8-5.3,1.2
	c-4.5,1-8.9,2.1-13.2,3.9c-0.9,0.4-1.7,0.9-2.6,1.3c-0.4,0.2-0.7,0.4-1.1-0.1c-0.3-0.4-0.4-0.7-0.1-1.2c3.2-5.1,6.7-10.1,10.3-15
	c0.2-0.3,0.5-0.6,0.8-0.9c1.5-1.6,1.6-1.6,3.4-0.5c3.9,2.4,6.6,5.8,8.2,10.1C469.2,160.6,469.2,160.8,469.3,161L469.3,161z"/>
<path class="st7" d="M430.2,171.5c-0.4-0.4-0.9,0.1-1.3-0.1c2.8-1.4,5.8-2.4,8.7-3.7c0.3-0.1,0.6-0.2,0.9-0.2c1.4,0,2.9,0,4.3-0.1
	c0.8,0,1.2,0.3,1.5,1c0.6,1.3,0.5,2.7,0.6,4.1c0,0.4-0.2,0.5-0.5,0.7c-2.1,1.2-4.3,2.2-6.6,2.8c-0.8,0.2-1.7,0.2-2.5-0.2
	c-0.5-0.2-1.1-0.3-1.6-0.5c-0.6-0.2-1.3-0.4-1.7-0.9c-0.7-0.7-0.6-1.3,0.2-1.9c0.4-0.3,0.9-0.5,1.1-1.1c0.2-0.6-0.1-1-0.7-1
	C431.6,170.5,431,171.2,430.2,171.5z M446.7,227.4c0.1-1-0.6-1.2-1.4-1.2h-4.4c-2.4,0-4.9-1.8-5.8-4.1c-0.6-1.6,0-2.9,1.5-3.6
	c0.3-0.1,0.6-0.2,0.8-0.4c0.4-0.4,0.7-0.3,1.1-0.1c1.8,0.8,3.8,1.3,5.7,1.8c0.8,0.2,1.6,0.5,2.3,1.1c1.8,1.5,1.9,3.5,1.5,5.6
	c-0.1,0.6-0.6,1.1-1.2,1.3C446.6,227.7,446.6,227.6,446.7,227.4z"/>
<path class="st9" d="M363.7,146.4c-2.4,0.4-4.8,1-7.1,1c-3.1,0.1-6.2,0.5-9.3,0.7c-1.5,0.1-2.9-0.2-4.4-0.6
	c-1.1-0.3-1.5-1.2-2.2-2.2c2.1-0.6,4.1-0.8,6.1-1.1c2.9-0.4,5.8-0.6,8.7-0.7c2.7-0.1,5.1,0.8,7.5,1.9
	C363.3,145.6,363.6,145.8,363.7,146.4L363.7,146.4z"/>
<path class="st10" d="M310.2,231.5c0-1.5,0-1.5,1.3-1.8C311.2,230.4,310.7,230.9,310.2,231.5z"/>
<path class="st11" d="M444,228.7c0.6-0.3,1.1-0.8,1.8-0.7c0.1,0.1,0.1,0.2,0.1,0.2c0,0.1,0,0.1-0.1,0.1c-0.6,0.3-1.2,0.6-1.8,0.6
	C443.9,228.9,443.9,228.8,444,228.7C443.9,228.7,444,228.7,444,228.7z"/>
<path class="st12" d="M315.7,227.4c-0.4-0.4-0.9-0.1-1.3-0.3c0.6-0.3,1.3-0.3,2-0.2C316.2,227.3,316,227.4,315.7,227.4z"/>
<path class="st13" d="M445.8,228.3v-0.4l0.9-0.6c0,0.1,0,0.3,0.1,0.4C446.6,228.2,446.2,228.2,445.8,228.3z"/>
<path class="st14" d="M442.8,228.7c-0.5,0.4-1.1,0.4-1.6,0.2C441.7,228.7,442.2,228.6,442.8,228.7z"/>
<path class="st15" d="M217.4,133.2c-0.2,0.2-0.3,0.5-0.6,0.6C216.4,133,217,133.2,217.4,133.2z M216.8,133.8
	c-0.2,0.3-0.6,0.2-0.9,0.3C216.1,133.7,216.4,133.7,216.8,133.8z"/>
<path class="st14" d="M443.1,229.2c0.1-0.3,0.3-0.3,0.6-0.2C443.5,229.2,443.3,229.3,443.1,229.2z"/>
<path class="st10" d="M310.2,232c-0.3-0.2-0.3-0.4,0-0.6V232z"/>
<path class="st14" d="M444,228.7v0.3l-0.1,0.1h-0.1v-0.3C443.8,228.7,443.9,228.7,444,228.7z"/>
<path class="st0" d="M224.5,251.8c1.9-2.4,3.9-4.5,5.2-7.2c0.2-0.5,0.5-0.9,0.9-1.3c0.7-0.8,1.2-1,2.1-0.5c1.6,0.9,3.3,1.5,5.1,2.1
	c0.9,0.3,1.8,0.8,2.4,1.6c0.6,0.8,1.6,1,2.4,1.6c1.3,1.1,1.3,1.2,0.9,2.8c-0.6,2.4-1.8,4.5-3.2,6.5c-2.1,3.2-4.1,6.6-5.8,10.1
	c-1,2-2.3,3.7-3.4,5.6c-0.5,0.9-0.9,2.1-2,2.6c-0.4,0.2-0.5,0.7-0.2,1.2c0.9,1.6,1.6,3.2,2.5,4.7c0.2,0.4,0.4,0.7,0.7,1
	c4.1,4.1,6.7,9.1,9.1,14.2c0.2,0.4,0.3,0.8,0.4,1.2c0.6,2.8,1.6,5.6,2.6,8.3c0.4,1.1,1.1,2,1.9,2.8c0.7,0.8,0.7,1.4-0.1,2.1
	l-0.2,0.2c-1.7,0.5-2.9,2.1-4.6,2.6c-0.2,0.1-0.5,0.2-0.7,0.4c-1.8,1.6-4,1.6-6.2,1.5c-1.4-0.1-2.6-0.7-3.3-1.9
	c-1.3-2.2-2.8-4.2-4-6.5c-0.7-1.3-1.8-2.4-2.6-3.6c-1-1.4-1.6-3-2.5-4.5c-0.4,0.2-0.4,0.6-0.4,0.9c-0.1,2.6-0.4,5.1-0.9,7.6
	c-0.2,1-0.2,2.1-0.4,3.2c-0.3,2.3-1.3,3.2-3.6,3.2c-1.7,0-3.5-0.1-5.2-0.5c-2.5-0.6-5.1-0.5-7.6-0.9c-1.5-0.2-2.6-1-4-1.5
	c-0.7-0.2-0.9-1-0.8-1.7c0-1,0-2,0.1-3.1c0.2-3.4,0.7-6.8,1.2-10.2c0.4-2.6,0.6-5.3,0.9-7.9c0.9-6.2,1.1-12.5,1.9-18.7
	c0.5-3.9,0.8-7.7,0.9-11.6c0.1-2.9,0.6-5.9,1-8.8c0.2-1.5,0.1-3.1,0.3-4.6c0.1-1,0.6-1.7,1-2.5c0.3-0.5,0.8-0.5,1.3-0.6
	c2-0.3,4-0.4,6-0.3c2.6,0.1,5.1,0.1,7.7,0.1c1,0,1.7,0.5,2.6,0.8c0.2,0.1,0.3,0.3,0.4,0.5c0.3,1.7,0.9,3.4,0.5,5.2
	C224.3,249.3,224.4,250.6,224.5,251.8L224.5,251.8z M91.9,289.1c-7.3-0.3-13.4-1.6-19.3-3.8c-1.3-0.5-2.5-1.1-3.7-1.8
	c-1.2-0.7-2.3-1.5-3.5-2.2c-0.8-0.5-1.6-1.1-2.2-1.9c-0.2-0.2-0.5-0.5-0.5-0.8c-0.3-2.5-1.9-4.9-1.2-7.6c0.6-2.4,0.4-4.9,1.5-7.1
	c0.3-0.5,0.2-1.2,0.4-1.8c0.4-1.6,1.1-2,2.6-1.9c1.1,0.1,1.9,0.4,2.7,1.2c3.6,3.5,7.9,5.8,12.4,7.6c2.2,0.9,4.2,2.1,6.5,2.6
	c2.5,0.6,5,0.6,7.4-0.7c1.5-0.8,2.5-2,2.4-3.9c-0.1-1.5-0.1-2.9-0.8-4.3c-0.6-1.1-1.3-2-2.2-2.7c-3.1-2.3-6.1-4.6-9.2-6.8
	c-2.9-2.1-5.3-4.7-6.6-8.1c-1.1-2.9-2.1-5.9-1.1-9c1-3.4,2.5-6.5,5.4-8.7c0.4-0.3,0.9-0.6,1.4-0.9c2.1-1.1,4.4-2,6.7-2.7
	c2.1-0.6,4.3-0.3,6.4,0.3c3.8,1,7.7,2,11.6,2.7c2.1,0.4,3.9,1.5,5.5,2.8c0.9,0.7,1.3,1.8,1.4,2.9c0,0.8,0,1.5-0.2,2.3
	c-0.3,1.4-0.7,2.8-1,4.1c-0.4,2.1-1.8,3.2-3.8,3.7c-0.7,0.2-1.3,0.1-1.9-0.3c-0.8-0.5-1.7-0.7-2.6-0.9c-2.6-0.6-5-1.7-7.5-2.5
	c-0.5-0.1-1.1-0.4-1.6-0.5c-1.1-0.3-1.4-0.1-2,0.9s-0.4,1.5,0.7,2c1.6,0.6,3.2,1.2,4.8,1.7c2,0.6,3.7,1.7,5.2,3.1
	c4.7,4.2,7.9,9.4,9.3,15.6c1,4.4,0.5,8.5-1.4,12.6c-1.3,2.9-2.9,5.6-5.2,7.8c-3.2,3.1-6.9,5.4-11.3,6.3
	C95.2,288.9,93.1,289.2,91.9,289.1L91.9,289.1z M175.5,287.5h2.2c1.5-0.1,2.9,0.2,4.3,0.9c2.2,1,4.5,1.9,6.7,3
	c2.7,1.3,3.3,3.1,2.1,5.9c-0.8,1.9-1.5,3.9-2.3,5.8c-0.8,2-2,3.9-3.1,5.8c-0.2,0.4-0.5,0.7-0.6,1c-0.8,2.2-2.9,2.7-5,1.7
	c-2.5-1.2-5.1-1.3-7.7-1.5c-5.2-0.4-10.4-1-15.5-2.3c-2.4-0.6-3.1-1.6-3.1-4c0-1.8,0.2-3.5,0.8-5.1c0.5-1.5,0.4-3,0.7-4.5
	c0.2-1.2,0.5-2.4,0.9-3.5c1.1-2.7,1.4-5.5,2.1-8.3c0.5-2,0.7-4.1,0.9-6.2c0.1-0.6,0.1-1.1,0.3-1.6c1.2-2.3,1.7-4.9,2.7-7.3
	c1.3-3.2,2-6.6,2.8-10c0.7-3,1.4-5.9,1.7-9c0.1-1.1,0.7-2.2,0.6-3.3c-0.1-0.9,0.3-1.7,0.5-2.5c0.1-0.9,1.3-1.3,2-0.6
	c1.1,0.9,2.5,1.3,3.8,1c3.2-0.6,6.2,0.1,9.2,0.9c2.5,0.7,5.1,1.1,7.6,1.4c2.2,0.3,4.2,1,6.2,2c1.3,0.6,1.8,1.8,1.9,3.2
	c0.2,3.6-0.3,7-1.3,10.4c-0.6,2-2.1,3.3-4.2,3.3c-0.5,0-1,0-1.5-0.1c-3.3-0.7-6.8-0.9-10.1-1.9c-0.2-0.1-0.4-0.1-0.7-0.1
	c0,1.9-0.6,3.6-0.7,5.4c-0.1,0.7,0.1,0.9,0.8,1c2.5,0.2,4.8,0.8,7.1,1.7c1.8,0.8,2.6,1.7,2.6,3.7c0,0.9-0.2,1.7-0.4,2.6
	c-0.8,2.9-1.7,5.8-2.6,8.6c-0.3,1.1-1.1,1.7-2.2,1.8c-1.8,0.2-3.6,0.1-5.3-0.5c-1-0.3-1.9-0.6-2.9-1c-0.6-0.2-0.9-0.1-1,0.5
	S175.4,286.8,175.5,287.5L175.5,287.5z"/>
<path class="st0" d="M251.9,288.6c1.8-0.1,3.5,0.2,5.1,1.3c0.4,0.3,0.8,0.4,1.3,0.5c1.6,0.4,3.2,1,4.8,1.5c2.4,0.8,4.3-0.1,5.4-2.4
	c0.4-0.9,0.5-1.9,0.6-2.8c0-0.4,0-0.8-0.3-1.2c-0.8-1-1.4-2.1-2.5-2.9c-0.9-0.7-1.8-1.1-2.9-1.3c-2.1-0.3-4-1.2-5.7-2.5
	c-0.5-0.4-1.1-0.8-1.7-1c-3.5-1.6-5.9-4.4-7.7-7.6c-2.4-4.3-2.2-8.8-0.1-13.2c1.7-3.5,4.4-6.1,8-7.7c2.6-1.2,5.2-2.4,8-3
	c1-0.2,1.9-0.3,2.9-0.3c1.4,0,2.9,0,4.3-0.1c2.3-0.2,4.6,0.1,6.8,0.5c2.9,0.5,4.8,2.4,5.9,5c0.3,0.7,0.3,1.6,0,2.3
	c-1,1.9-1.6,4-3.1,5.6c-1.2,1.3-2.4,1.7-4.3,1.3c-1.4-0.3-2.8-0.6-4.3-0.4c-0.7,0.1-1.4,0.4-2,0.8c-0.6,0.3-1.1,0.7-1.7,0.9
	c-1,0.3-1.3,1.8-0.8,2.7c0.3,0.6,0.7,1,1.2,1.4c1.4,1.1,2.8,2.3,4.4,3c2.1,1,3.8,2.5,5.4,4.3c1.7,2,3.6,4,5,6.3
	c0.9,1.5,1.4,3.1,1.4,4.8c0,3.1,0.2,6.2-0.9,9.2s-2.7,5.6-5,7.8c-0.8,0.8-1.7,1.4-2.5,2.3c-2.3,2.5-5.1,4-8.3,4.9
	c-1.6,0.4-3.1,0.7-4.8,0.7c-2.3,0-4.7,0.1-7-0.1c-2.8-0.3-5.5-0.9-8-2.4c-1.5-0.9-3.1-3.5-3.1-5.2c0-2.4,0-4.9,0.1-7.3
	c0.1-2.2,1.6-3.7,2.9-5.2c0.4-0.4,0.9-0.4,1.4-0.5H251.9L251.9,288.6z M160.6,258c-0.1,1.8,0,3.4-0.4,4.9s-1,2.9-2.1,4l-2.2,2.2
	c-1.9,1.9-4.3,2.8-6.9,3c-1.7,0.2-3.4,0.5-5.2,0.6c-1.3,0.1-2.6,0-4,0.1c-1.1,0-1.7,0.4-2.2,1.5c-1,2.1-1.6,4.4-2.4,6.6
	c-0.5,1.2-0.7,2.5-1.5,3.5c-0.2,0.2-0.2,0.6-0.3,0.9c-0.9,3-2,5.9-3,8.8c-0.8,2.2-1.7,4.5-2.3,6.8c0,0.1-0.1,0.3-0.1,0.4
	c-0.9,2.9-1.7,3.5-4.8,3.3c-3.1-0.3-6-1.1-8.8-2.4c-0.6-0.3-1.2-0.6-1.9-0.4c-0.5,0.1-0.4-0.1-0.4-0.5c0.1-0.3-0.4-0.4-0.7-0.5
	c-1.3-0.4-2.2-1.4-3.1-2.3c-0.6-0.6-0.7-1.4-0.6-2.3c0.3-2.8,1-5.4,2-8c1.4-3.6,2.9-7,4.3-10.6c2.2-5.9,4.5-11.8,6.6-17.7
	c1-2.8,2.4-5.4,3.7-8.1c2.3-4.7,4.6-9.4,6.3-14.4c1-3,1.2-3.1,4.3-3.2c2.9-0.1,5.8,0.1,8.5,1.3c1.8,0.8,3.8,1.3,5.6,2
	c2.6,1,4.8,2.6,6.2,5.2c0.5,0.9,1.1,1.7,1.8,2.5c1.8,2,2.6,4.5,3.1,7C160.6,254.1,160.9,256.2,160.6,258L160.6,258z M234.9,230
	c-2.6,0.2-5.1-0.3-7.6-0.7c-0.9-0.1-1.8-0.5-2.6-0.9c-2.6-1.4-4.9-3-6.8-5.4c-1.4-1.8-2.2-3.9-3-6c-1.1-2.8-1.2-5.8-0.7-8.7
	c0.3-2,0.8-3.9,1.4-5.8c0.6-2,1.4-4,2.3-5.8c1.5-2.8,3.3-5.5,5.6-7.8c2-2,4.1-3.6,6.6-4.8c1.7-0.9,3.4-1.7,5.3-2.2
	c1.3-0.4,2.7-0.6,4.1-0.4c2.1,0.2,4.3,0.3,6.3,1.2c1.9,0.9,3.8,1.9,5.6,3.1c2.9,2.2,5.5,4.6,7.4,7.8c0.8,1.3,1.3,2.7,1.3,4.2
	c0,2.7-0.1,5.5-0.8,8.2c-0.4,1.5-0.8,3-1.1,4.6c-0.8,3.6-2.5,6.8-4.4,9.8c-0.7,1.1-1.6,2-2.7,2.7c-2.2,1.4-4.3,2.9-6.5,4.3
	c-1.7,1.1-3.6,1.9-5.6,2.3C237.6,230,236.3,229.8,234.9,230L234.9,230z M227.5,180.6c-1.9,2.5-4.1,4.7-6.7,6.7
	c-2,1.6-3.7,3.6-5.7,5.3c-5.3,4.5-10.1,9.7-14.9,14.7s-9.7,10.1-14.6,15c-3.2,3.2-6,6.7-9,10c-0.7,0.8-1.4,1.5-2.2,2.1
	c-0.8,0.5-1.6,0.9-2.6,0.8c-0.1,0-0.3-0.1-0.4,0c-1.4,0.8-2.3-0.1-3.3-0.8c-2-1.4-3.7-3-4.8-5.2c-0.2-0.4-0.4-0.9-0.9-1.2
	c-1.2-0.8-1.3-1.4-0.5-2.5c0.9-1.3,1.9-2.6,3.1-3.5c1.5-1.1,2.7-2.5,4-3.8c1-1,2-2.1,3.1-3c2.5-2.1,4.7-4.4,6.7-6.9
	c1-1.2,2.2-2.3,3.3-3.4c2.4-2.4,5.1-4.4,7.2-7.1c0.2-0.2,0.4-0.5,0.7-0.6c3.4-2.8,6.4-5.9,9.4-9.1c1.2-1.3,2.6-2.4,4-3.5
	c3.5-2.8,6.7-5.9,9.9-8.9c2.2-2.1,4.5-4,7-5.7c0.8-0.6,1.6-0.8,2.6-0.6c0.8,0.2,1.5,0.6,1.8,1.3c0.7,2.1,2.1,3.6,3.5,5.3
	c0.6,0.8,1.2,1.5,1.2,2.6C228.9,179.3,228,179.8,227.5,180.6L227.5,180.6z M292.4,244.3c3.3-1.2,6.8-1.1,10.3-0.9
	c0.4,0,0.8,0.1,1.2,0.2c1.3,0.5,2.7,0.5,4,0.6c2,0.1,2.6,0.9,2.3,2.8c-0.1,0.4,0,0.8,0.1,1.2c0.6,2.2,0.7,4.3,0.6,6.6
	c-0.3,5.7-0.9,11.4-0.9,17.1c0,4,0,7.9-0.1,11.9c-0.1,2.4,0.5,4.8,0.3,7.2c-0.1,2-0.1,4,0.2,5.9c0.3,2-0.3,4.1-0.5,6.1
	c-0.3,2.9-0.5,5.8-0.4,8.7c0.1,1.3-0.6,2.4-1.3,3.3c-0.5,0.6-1.5,0.6-2.3,0.6c-0.2,0-0.5-0.1-0.7-0.1c-3.2,0.8-6.4,0.5-9.6,0.6
	c-0.3,0-0.6,0-0.9-0.1c-3.3-0.9-4-1.5-4.3-4.8c-0.1-1.8-0.5-3.5-0.8-5.3c-0.3-3.1-0.6-6.3-0.2-9.4c0.4-3.3,0.3-6.5,0.4-9.8
	c0.2-4.9,0.5-9.9,0.9-14.8c0.3-4.1,0.8-8.1,0.8-12.2c0-3.4,0.2-6.8,0.2-10.2c0-1,0-1.9-0.1-2.9C291.6,246,291.6,245,292.4,244.3z
	 M162.8,169.9c2.8-0.6,5.4,1.1,8.1,2.4c1.6,0.8,1.8,1.8,1.3,3.5c-1.2,4.2-3.3,8-4.8,12.1c-1.4,3.8-2.9,7.6-4.5,11.4
	c-1.3,3.1-2.4,6.3-3.8,9.3c-2.3,5.1-4.6,10.3-6.9,15.5c-0.3,0.8-0.9,1.2-1.7,1.3s-1.6,0-2.4-0.3c-2.9-1.1-5.8-2.3-8.8-3.2
	c-1.6-0.5-2.4-2-1.9-3.8c0.4-1.5,0.8-2.9,1.5-4.3c0.7-1.4,1.3-2.8,1.6-4.3c0.1-0.6,0.4-1.2,0.6-1.7c2-4.1,3.9-8.3,5.6-12.5
	c0.4-1,0.9-2.1,1.1-3.2c1.1-4.3,2.8-8.3,4.6-12.3c1.2-2.6,2.4-5.2,3.2-7.9c0.2-0.9,0.8-1.3,1.7-1.6
	C159.1,169.7,160.7,169.9,162.8,169.9L162.8,169.9z"/>
<path class="st16" d="M292.4,244.3c-0.6,0.7-0.4,1.5-0.4,2.2c0,2.4,0.1,4.8,0.1,7.2c0,2.2-0.1,4.5,0,6.7c0,1.7-0.2,3.5-0.4,5.2
	c-0.4,3.9-0.4,7.7-0.9,11.6c-0.5,3.8-0.5,7.6-0.6,11.4c-0.1,2.8-0.2,5.5-0.5,8.2c-0.3,3.1-0.2,6.2-0.1,9.3c-0.3-0.2-0.4-0.5-0.4-0.8
	c0.2-2.7-0.6-5.4-0.3-8.1c0.5-3.3,0.2-6.7,0.4-10c0.3-3.2,0.1-6.5,0.2-9.7c0-0.7-0.1-1.4,0.3-2.1s-0.4-1.6,0.3-2.3
	c-0.2-2.2,0.4-4.4,0.1-6.6c-0.2-1-0.2-2,0.2-3c0.3-0.8,0.2-1.5,0.2-2.4c-0.2-2-0.3-4,0.3-6c0.8-2.6,0.7-5.3,0.3-8
	C291.1,246,291.2,245,292.4,244.3L292.4,244.3z"/>
<path class="st17" d="M428.2,172.8c0.4,0.1,0.7,0.2,0.8,0.6c0.1,0.4,0.6,1,0,1.2c-0.7,0.3-0.4,0.7-0.3,1.1c0.4,1.2,0.7,2.5,1.9,3.1
	c0.5,0.3,0.7,0.8,0.7,1.3s-0.2,0.9-0.7,1.1c-0.4,0.1-0.9,0.1-1.1-0.3c-1.3-2.1-2.8-4.1-2.5-6.7C426.9,173.3,427.5,172.8,428.2,172.8
	L428.2,172.8z M405.3,188.3c0.4,0,0.7,0.2,0.8,0.5c0.2,0.8,0.8,1.4,1.2,2.1c0.7,1.1,1.2,2.3,1.4,3.7c0.1,0.7,0.2,1.4,0.7,2
	c0.2,0.2,0.3,0.5,0.1,0.8c-0.3,0.4-0.7,0.5-1.1,0.3c-0.4-0.1-0.6-0.4-0.7-0.7c-0.2-0.5-0.4-1-0.5-1.4c-0.2-2-1.1-3.7-2.2-5.3
	c-0.2-0.3-0.4-0.7-0.6-1.1C404.4,188.6,404.8,188.2,405.3,188.3L405.3,188.3z"/>
<path class="st18" d="M380.4,217.1c-0.7,0-1.4-0.1-2.1-0.5c-1.4-0.8-2.6-1.8-3.7-2.9c-0.1-0.1-0.1-0.2-0.2-0.2
	c-0.3-0.5-0.9-1.1-0.3-1.6s0.9,0.3,1.3,0.6c1.7,1.4,3.3,3.1,5.7,3.3c0.4,0,1.2,0.1,1.1,0.7c-0.1,0.7-0.8,0.6-1.3,0.7
	C380.8,217.1,380.7,217.1,380.4,217.1z"/>
<path class="st19" d="M358.9,295.6c0.3-1.6,0.6-3.2,1.6-4.6c0.4-0.6,0.9-1,1.5-1.2c0.6-0.2,1.2,0,1.3,0.6c0.2,0.6-0.1,0.9-0.8,1
	c-0.6,0-0.8,0.5-1,1c-0.4,0.8-0.6,1.7-0.8,2.6c0,0.2,0,0.5-0.1,0.8c-0.2,0.6-0.6,1.1-1.1,1C358.9,296.8,359,296.1,358.9,295.6
	L358.9,295.6z"/>
<path class="st20" d="M406.6,196.9c0,0.5-0.6,0.9-1.2,0.9c-0.5-0.1-1-0.3-1.3-0.8c-0.8-1.1-1.5-2.3-2-3.5c-0.2-0.4-0.2-0.8,0.2-1.1
	c0.5-0.2,0.8,0.1,1,0.4l1.2,1.8c0.4,0.7,0.8,1.5,1.7,1.6C406.5,196.2,406.7,196.5,406.6,196.9L406.6,196.9z"/>
<path class="st21" d="M298.5,164.3c0.1-0.9,0.2-1.8,0.3-2.8c0-0.2,0.2-0.4,0.4-0.4c0.1,0,0.3,0.1,0.4,0.2c0.4,0.4,0.5,0.9,0.3,1.4
	c-0.5,1.6,0.1,3,1,4.3c0.2,0.3,0.6,0.6,0.3,0.9c-0.4,0.4-0.9,0.3-1.2-0.1c-0.8-0.8-1.2-1.7-1.4-2.8
	C298.5,164.8,298.6,164.6,298.5,164.3L298.5,164.3z"/>
<path class="st22" d="M363.2,266.1c0-0.6,0.2-1.1,0.5-1.6c0.4-0.8,1.1-1.4,1.4-2.2c0.1-0.2,0.3-0.3,0.5-0.2s0.3,0.2,0.4,0.5
	c0.1,0.5-0.1,1-0.4,1.4c-0.8,1.1-1.1,2.2-0.3,3.5c0.2,0.3,0.3,0.8-0.2,1c-0.4,0.2-0.8,0-1-0.4C363.6,267.4,363.3,266.8,363.2,266.1z
	"/>
<path class="st23" d="M227.5,180.6c0.3-1,1.3-1.4,1.8-2.2C229.2,179.6,228.3,180,227.5,180.6z"/>
<path class="st24" d="M427.9,220.7c0.1-1.1,0.3-2.1,0.8-3.1c0.2-0.4,0.5-0.8,1-0.9c0.3-0.1,0.6-0.1,0.8,0.2c0.2,0.2,0.1,0.5-0.1,0.7
	c-1.4,1.5-1.3,3.2-0.7,5c0.4,1.2,0.5,2.6,1,3.8c0.1,0.3,0.2,0.7-0.3,0.9c-0.3,0.2-0.6,0-0.8-0.3c-0.3-0.3-0.6-0.6-0.7-1
	C428.7,224.2,428.1,222.5,427.9,220.7L427.9,220.7z"/>
<path class="st9" d="M205.5,288.1c0.2-1.8,0.4-3.4,0.5-5.1c0.1-0.5,0.3-0.7,0.8-0.6c2.6,0.3,5.2,0.5,7.7,1c2,0.5,4.1,0.4,6.2,1.2
	c-0.4,1.1-1.2,2.1-1.2,3.4c0,0.7-0.6,1-1.5,0.9c-1.4-0.2-2.8-0.3-4.3-0.5C211,288,208.3,287.9,205.5,288.1L205.5,288.1z
	 M202.8,307.7c0.2-1.1,0.6-2.3,0.6-3.6c0-0.3,0.2-0.4,0.5-0.4s0.6,0,0.9,0.1c3.4,0.8,6.7,1.5,10.1,2.4c1.3,0.3,1.3,0.4,1,1.8
	c-0.4,2.2-0.4,2.2-2.7,2.1s-4.7-0.1-7-0.2c-0.7,0-1.4-0.1-2.1-0.3C203.2,309.4,202.7,308.7,202.8,307.7L202.8,307.7z M205.2,290.5
	c4.4-0.1,8.7,0.5,13,0.8c-0.2,1.6-0.9,3.1-1,4.7c0,0.5-0.5,0.4-0.8,0.3l-8.4-1.5c-0.8-0.1-1.6-0.3-2.4-0.4c-0.5-0.1-0.9-0.2-0.7-0.8
	C205,292.4,205.1,291.4,205.2,290.5L205.2,290.5z M228.9,303.4c-1.1-2.2-2.1-4.3-3.6-6.3c3.2-1,6.2-2.5,9.1-4c0.9,1.4,1.4,2.9,2,4.3
	c0.2,0.6-0.2,0.8-0.6,1C233.4,299.9,231.1,301.5,228.9,303.4z M204,301.2l0.6-4.8c1,0,1.8,0.4,2.7,0.6c2.8,0.7,5.6,1.3,8.4,1.9
	c1.1,0.2,1.2,0.3,1.1,1.4c-0.1,1.1-0.2,2.1-0.3,3.3C212.2,302.8,208.2,301.8,204,301.2z M206.5,280.2c-0.1-0.2-0.2-0.2-0.2-0.3
	c0.2-3-0.4-2.6,2.5-2.5c3.8,0.1,7.6,0.5,11.4,1.3c1.4,0.3,2.8,0.5,4.2,0.5c0.1,0.5-0.2,0.7-0.4,1c-1.5,2.4-1,2.1-3.9,1.6
	c-1.3-0.2-2.5-0.9-3.8-1c-1.1-0.1-2.2-0.4-3.4-0.2c-1.2,0.2-2.4-0.2-3.6-0.4C208.4,280.2,207.5,280.1,206.5,280.2L206.5,280.2z
	 M207,271.3c0.2-1.3,0.4-2.5,0.5-3.6c0.1-0.5,0.3-0.7,0.8-0.7c1.9,0.1,3.7-0.6,5.6-0.8c1.4-0.2,2.7-0.1,4.1-0.1
	c0.6,0,0.8,0.4,0.5,0.8c-0.6,1.1-0.7,2.3-1.1,3.5c-0.2,0.5-0.4,0.7-0.9,0.6c-2.2-0.3-4.5,0.3-6.7,0.2C209,271,208.1,271.4,207,271.3
	L207,271.3z M208.6,258.2c0.1-1.6,0.2-2.9,0.2-4.2c0-0.6,0.3-0.8,0.8-0.8c3.5-0.3,6.9,0,10.3,0.2c0.1,0.2,0.2,0.3,0.1,0.4
	c-0.2,0.9-0.1,2-0.6,2.8c-0.5,0.8-1.7,0.4-2.5,0.5C214.2,257.3,211.5,257.5,208.6,258.2z M233.3,290.3c0,0.3-0.2,0.4-0.4,0.6
	c-2.8,1.7-5.7,2.9-8.6,4.2c-0.5,0.2-0.9,0.1-1.2-0.3l-0.6-0.9c-0.8-1.4-0.8-1.5,0.6-2.3c2.3-1.3,4.5-2.6,6.6-4.2
	c1-0.8,1.1-0.7,2,0.2c0.6,0.6,1.2,1.3,1.5,2.1C233.1,289.9,233.2,290.1,233.3,290.3L233.3,290.3z M207.9,264.5
	c0.1-1.4,0.3-2.6,0.4-3.8c0-0.4,0.2-0.6,0.6-0.6c3.2,0,6.4-0.5,9.6-0.6c0.2,0,0.4,0.1,0.7,0.1c-0.1,0.9-0.3,1.8-0.4,2.7
	c0,0.7-0.4,0.8-1,0.8c-2.5,0-4.9,0.4-7.2,1C209.8,264.5,208.9,264.5,207.9,264.5L207.9,264.5z M232.2,264c-2.2-2-4.2-3.9-6.2-5.7
	c-0.3-0.3-0.3-0.5-0.1-0.9c0.7-1.1,1.3-2.3,2.1-3.3c0.5,0,0.7,0.5,0.9,0.8c1.4,1.6,3,2.9,4.7,4.1c0.6,0.5,0.8,0.9,0.3,1.6
	C233.3,261.7,232.8,262.8,232.2,264L232.2,264z M221.8,266.6c1.8,1.7,3.4,3.4,5.2,4.8c0.3,0.3,0.2,0.5,0.1,0.8
	c-0.5,1.3-1.2,2.3-2,3.4c-0.3,0.5-0.8,0.5-1.2,0.2c-1.6-1.1-3-2.4-4.2-3.9c-0.2-0.3-0.1-0.6,0-0.8
	C220.5,269.6,221.1,268.1,221.8,266.6L221.8,266.6z M209.4,250.2c0-0.5,0-1.1,0.1-1.7c0.2-1.5,0.5-1.9,2-1.9h8.2c0.7,0,1,0.2,1,1
	c-0.1,2.8,0,2.8-2.8,2.6c-2.6-0.1-5.2-0.2-7.8,0.1C209.9,250.4,209.7,250.5,209.4,250.2L209.4,250.2z M237.8,300.4
	c0.5,1,1,2,1.5,2.9c0.4,0.6,0.2,1.1-0.4,1.4c-0.8,0.5-1.6,0.9-2.4,1.4c-1.6,0.9-3.2,1.8-4.9,2.5c-0.4-0.2-0.5-0.6-0.7-1
	c-0.4-0.6-1.2-1.2-1-1.9c0.2-0.6,1-0.9,1.6-1.3C233.6,302.9,235.6,301.5,237.8,300.4L237.8,300.4z"/>
<path class="st25" d="M228.9,269.5c-1.6-1.9-3.5-3.5-5.4-5c-0.2-0.2-0.5-0.4-0.4-0.7c0.4-1.3,0.5-2.7,1.5-3.8
	c1.6,2.2,3.6,3.9,5.5,5.8c0.8,0.9,0.8,0.9,0.2,1.8C229.8,268.2,229.3,268.8,228.9,269.5L228.9,269.5z"/>
<path class="st26" d="M219.2,276.2c-4.1-0.7-8.3-1-12.4-1.1c-0.2-0.4-0.1-0.7-0.1-1c0-0.2,0.1-0.5,0.2-0.7c1.9-0.3,3.7,0.3,5.5-0.1
	c1.6-0.3,3.1-0.2,4.7-0.4c0.6-0.1,1.1,0,1.4,0.6c0.4,0.8,1.1,1.5,1.7,2.2C220.1,276.6,219.6,276.2,219.2,276.2L219.2,276.2z"/>
<path class="st25" d="M229.3,252.1c0.7-1,1.4-1.9,2.6-2.5c1.3,2.1,3.2,3.6,5.2,5c0.5,0.4,0.7,0.8,0.3,1.4c-0.4,0.5-0.5,1.1-1,1.6
	C234,255.8,231.7,254,229.3,252.1z"/>
<path class="st27" d="M227.3,281.4c0.6,1.1,1.1,2.1,1.7,3.1c-2,1.8-4.3,3.3-6.6,4.7c-0.3,0.2-0.7,0.7-1,0.2
	c-0.3-0.4-0.1-0.9,0.2-1.2c1.4-1.7,2.6-3.6,4.2-5.2C226.3,282.5,226.7,282,227.3,281.4L227.3,281.4z"/>
<path class="st28" d="M240.4,307c-0.3,2.2-1.4,3.6-3,4.7l-0.6,0.3c-2.3,1-2.5,0.9-3.9-1.4C235.4,309.7,237.7,308.3,240.4,307z"/>
<path class="st29" d="M233,247.6c1.5-0.1,2.5,0.4,3.5,1c0.7,0.5,1.4,1.1,2,1.6c0.9,0.9,0.9,0.9,0.3,2.3
	C236.7,251.2,234.6,249.9,233,247.6L233,247.6z"/>
<path class="st30" d="M219.2,276.2c0.3-0.2,0.8,0.1,1-0.4c0.2,0.1,0.5,0.2,0.5,0.5c0,0.3-0.3,0.2-0.5,0.2
	C219.9,276.4,219.5,276.5,219.2,276.2z"/>
<path class="st31" d="M92.9,253.6c-1.6-1.8-4-2.3-5.5-4.2c-0.1-0.2-0.3-0.3-0.4-0.5c1.7-1.8,3.3-3.5,4.9-5.2
	c0.2-0.2,0.4-0.4,0.8-0.1c1.8,1.4,3.9,1.9,6,2.4c0.2,0.1,0.5,0.2,0.8,0.3C97.7,249,94.9,250.9,92.9,253.6L92.9,253.6z"/>
<path class="st9" d="M107.1,252.5c1.2,2.4,2.2,4.6,3.4,6.9c-1.2,0.7-2.4,1-3.6,1.4c-1.4,0.5-2.8,0.9-4.2,1.4
	c-0.7,0.3-1.1,0.2-1.5-0.5c-0.6-1.1-1.4-2.1-2.1-3.2C101.8,256.5,104.1,254.2,107.1,252.5L107.1,252.5z M104.3,280.5
	c-2.7,0.8-4.6,2.7-7.2,3.4c-0.5,0.1-1.1,0.3-1.7,0.2c-0.3-0.5-0.2-1-0.2-1.5c0-2.4-0.1-4.8-0.6-7.1c-0.2-0.6,0.1-0.9,0.6-1.1
	c1.8-0.9,1.8-0.9,3.3,0.5l3.6,3.3C102.9,278.8,103.5,279.6,104.3,280.5L104.3,280.5z"/>
<path class="st31" d="M101.3,268.4c0.6-1,0.8-1.9,0.9-2.9c0-0.5,0.3-0.7,0.7-0.8c2.5-0.8,5.1-1.6,7.6-2.3c0.4-0.1,0.8-0.2,0.9,0.4
	c0.3,2.5,0.6,5,0.3,7.5c-0.1,0.6-0.3,0.8-0.9,0.6C107.8,269.6,104.7,268.9,101.3,268.4z"/>
<path class="st9" d="M80.7,284.7c1.5-3.2,2.6-6.3,3.4-9.5c0.3-1.1,0.4-1.1,1.5-0.8c0.6,0.2,1.3,0.4,1.9,0.6c0.5,0.1,0.8,0.4,0.7,1
	c-0.4,3.1-1.1,6.1-1.3,9.2c0,0.5-0.4,0.5-0.8,0.5C84.3,285.5,82.5,285.2,80.7,284.7z M85.3,247.5c-2.2-1.3-3.1-3.5-4.1-5.5
	c-0.1-0.3-0.1-0.6-0.1-0.9c-0.1-0.8,0.2-1,1-1.1c2.6-0.4,5.2-0.7,7.9-0.4c1,0.1,1.2,0.4,0.7,1.2c-0.3,0.6-0.8,1.1-1.2,1.6
	C88.1,244,86.5,245.5,85.3,247.5z M69.3,280.8c1.9-3.4,2.8-7.1,4.4-10.6c0.3-0.7,0.7-0.8,1.3-0.4c0.2,0.1,0.5,0.2,0.7,0.4
	c1.1,0.6,1.1,0.6,0.6,1.9c-1,2.8-1.6,5.8-2.9,8.5c-0.1,0.2-0.2,0.5-0.3,0.7c-0.2,0.6-0.5,0.7-1,0.5
	C71.3,281.5,70.3,281.3,69.3,280.8L69.3,280.8z M106.8,279.2c-2.3-3-5.2-4.9-7.8-7.2c0.8-1.2,0.8-1.2,2.1-0.8
	c0.9,0.3,1.9,0.5,2.8,0.7c2.2,0.4,4.2,1.2,6.5,2C109.4,275.7,108.1,277.3,106.8,279.2z M101.7,247.3c1.5,0.6,3,1.1,3.8,2.6
	c-0.2,0.5-0.6,0.6-0.9,0.8c-2.3,1.4-4.1,3.3-6.2,5c-1.5,1.2-1.1,1.1-2.5,0.1c-0.4-0.3-0.9-0.5-1.2-1
	C96.9,252.4,99.8,250.4,101.7,247.3L101.7,247.3z M78.9,284.3c-1.2-0.5-2.3-1-3.6-1.6c2.1-3.3,2.6-7.2,4-10.6
	c2.8,0.8,2.8,0.8,2.1,3.3c-0.4,1.8-1,3.5-1.6,5.2C79.5,281.8,79.1,282.9,78.9,284.3L78.9,284.3z"/>
<path class="st32" d="M90,236.6c-2.9-0.1-5.6,0.2-8.4,0.9c-0.3-2,1-4.8,2.5-5.8c0.3-0.2,0.5-0.2,0.7,0
	C86.5,233.2,88.4,234.7,90,236.6z"/>
<path class="st25" d="M106.1,229.3c0.2,0,0.4,0,0.6,0.1c2.2,0.8,2.2,0.9,1.7,3.2c-0.4,1.6-0.7,3.3-1.3,4.9c-0.3,0.7-0.6,0.9-1.4,0.6
	c-2.3-1.1-1.9-0.5-1.3-2.7c0.4-1.6,0.8-3.3,1.3-4.9C105.7,230,105.8,229.6,106.1,229.3z M103.9,229.1c-0.7,2.1-1.3,4.3-2,6.5
	c0,0.1-0.1,0.4-0.2,0.4c-0.9,0.3-1.6-0.3-2.4-0.4c-0.5-0.1-0.5-0.4-0.4-0.8c0.2-1.4,0.6-2.8,0.9-4.1c0.5-2.1,0.5-2.1,2.7-1.8
	C102.9,228.9,103.4,228.8,103.9,229.1z"/>
<path class="st27" d="M67.3,279.5c-0.4,0-0.7-0.4-1-0.5c-0.5-0.2-0.5-0.6-0.3-1c0.1-0.2,0.2-0.4,0.2-0.6c1.4-3.1,2.6-6.3,3.4-9.6
	c0.1-0.2,0.1-0.4,0.3-0.5c0.4-0.1,0.7,0.3,1.1,0.4c0.7,0.3,0.8,0.6,0.5,1.4c-1.5,3.1-2.4,6.5-3.7,9.7
	C67.6,279,67.5,279.3,67.3,279.5L67.3,279.5z M89.4,285.6c-0.1-0.8,0.2-1.5,0.3-2.2l1.2-7.2c0.1-0.4,0-1,0.7-0.9
	c0.6,0,0.5,0.5,0.6,0.9c0.4,2.7,0.3,5.4,0.4,8.1c0,0.6-0.2,1-0.8,1.1C91,285.4,90.3,285.7,89.4,285.6L89.4,285.6z M93.3,227.6
	c1.6,0.1,3.1,0.2,4.6,0.6c0.2,0.4-0.1,0.8-0.2,1.1c-0.5,1.6-0.9,3.2-1.3,4.9c-0.1,0.4-0.2,0.8-0.7,0.8c-0.6,0-0.6-0.3-0.6-0.8
	c0-1.2-0.6-2.4-1-3.5C93.8,229.7,93.4,228.7,93.3,227.6z"/>
<path class="st28" d="M108.6,239.3c1.1-2.5,1.5-5.1,2.1-7.8c1.2,0.5,1.9,1.2,1.9,2.5c0,1.2,0,2.3-0.5,3.4
	C111.3,239.3,111,239.5,108.6,239.3z M92.1,234.5c-0.9-0.8-1.7-1.6-2.6-2.3c-0.9-0.7-1.8-1.4-2.8-2.3c1.3-0.9,2.7-1.4,4.2-2
	c0.2,2.2,1.2,4,1.6,6C92.6,234.2,92.7,234.6,92.1,234.5z"/>
<path class="st33" d="M64.9,272.1c-0.2-2.5,0.8-4.4,2.3-6.3c-0.4,2.6-1.1,5.1-2,7.5C64.4,273.2,64.9,272.6,64.9,272.1z"/>
<path class="st34" d="M64.9,272.1c0.3,0.4-0.2,1,0.4,1.3c0.1,0.3,0,0.6-0.5,0.8C64.5,273.4,64.6,272.8,64.9,272.1z"/>
<path class="st35" d="M92.1,234.5c0.4-0.1,0.2-0.4,0.4-0.7c0.1,0.2,0.2,0.4,0.2,0.5c0.1,0.2,0.1,0.5-0.1,0.5
	C92.4,235,92.2,234.8,92.1,234.5z"/>
<path class="st31" d="M159.2,294c-0.1-1.3,0.4-2.3,0.7-3.3c0.3-0.9,0.1-2.3,1-2.7c0.8-0.4,1.8,0.5,2.7,0.8c0.8,0.2,1.7,0.6,2.5,0.5
	c1.8-0.1,3.5,0.7,5.2,1c0.7,0.1,1.1,0.8,0.8,1.4c-0.3,1.1-0.7,2.1-1.1,3.2c-0.1,0.4-0.3,0.8-0.9,0.5c-1.2-0.6-2.6-0.6-3.9-0.7
	c-1.4-0.1-2.8-0.4-4.2-0.7C161.2,293.7,160.3,293.4,159.2,294z"/>
<path class="st9" d="M161.2,285.6c0.5-1.9,1.1-3.6,1.4-5.4c0.1-0.4,0.3-0.6,0.8-0.5c2.4,0.7,4.9,1.1,7.1,2.2l1.2,0.6
	c1.4,0.5,1.4,0.5,1,1.9c-0.2,0.8-0.5,1.7-0.7,2.5c-0.1,0.4-0.3,0.7-0.7,0.5C168.1,286.4,164.5,286.9,161.2,285.6z M177.8,307.4
	c-1-0.2-1.9-0.5-2.7-0.9c0.9-4.6,1.9-9.1,3-13.6c0.1-0.2,0.1-0.4,0.1-0.6c0.1-0.7,0.5-0.9,1.2-0.8c1,0.2,2,0.5,3,0.9
	C180.9,297.4,179.1,302.3,177.8,307.4L177.8,307.4z M165.8,267.6c2.6,1.2,5.4,1.6,8.1,2.1c1,0.2,1.5,1,2.2,1.4
	c0.2,0.1,0.2,0.4,0.1,0.7c-0.3,0.9-0.5,1.9-0.7,2.8c-0.2,0.1-0.3,0.1-0.3,0.1c-2.9-1.5-6.1-1.9-9.1-2.9c-1.2-0.4-1.3-0.4-1-1.6
	C165.3,269.3,165.4,268.4,165.8,267.6z"/>
<path class="st32" d="M157.6,299.1c0.2-1.1,0.4-2,0.9-3c1.3,0.6,2.6,0.7,4,0.5c1-0.1,2,0.3,3,0.5c0.9,0.2,1.9,0.1,2.9,0.4
	c0.5,0.2,1.1,0.3,1.5,0.7c0.2,0.4-0.1,0.7-0.2,1c-0.6,1.7-0.6,1.8-2.4,1.6C164,300.3,160.8,299.9,157.6,299.1z"/>
<path class="st25" d="M170.3,246.2c2.1,3.9,3.8,8,6.1,11.8c-0.5,0.4-0.7,0-1-0.1c-2.3-0.9-4.1-2.4-6.3-3.5c-0.3-0.1-0.5-0.3-0.4-0.7
	c0.5-2.3,0.2-4.7,1.2-6.9C170,246.5,170,246.2,170.3,246.2z"/>
<path class="st9" d="M167.1,261c2,1.4,4.2,1.5,6.4,1.6c0.4,0,0.8,0.1,1.2,0.3c0.7,0.3,1.2,0.6,0.8,1.5c-0.2,0.6-0.2,1.2-0.2,1.8
	c0,0.7-0.3,0.9-1,0.8l-3.6-0.6c-1.4-0.2-2.9-0.4-4.4-0.7C166.4,264.1,166.7,262.7,167.1,261L167.1,261z"/>
<path class="st25" d="M179.4,247c1.8-0.1,3.1,0.8,4.5,1.2c0.6,0.2,0.4,0.7,0.3,1c-0.4,2.4-0.6,4.8-1.3,7.2c-0.2,0.9-0.6,1.7-0.6,2.7
	c0,0.4-0.1,0.7-0.6,0.6c-0.4-0.1-0.8-0.1-0.8-0.7c0-2.4-0.2-4.9-0.7-7.3C180,250.2,179.7,248.7,179.4,247L179.4,247z"/>
<path class="st32" d="M174.3,280.4c-0.6-0.2-1.3-0.3-1.9-0.6c-2.5-1.3-5.2-1.9-8-2.4c-0.7-0.1-1-0.3-0.7-1.1c0.3-0.8,0.1-2,0.7-2.4
	c0.7-0.4,1.6,0.4,2.4,0.6c1.1,0.3,2.1,0.6,3.2,0.9c0.9,0.2,1.7,0.5,2.6,0.9C175.1,277.6,175.1,277.6,174.3,280.4z"/>
<path class="st25" d="M180.3,308c0.7-2,1.1-4.1,1.8-6.1c0.8-2.5,1.7-5,2.2-7.6c0.1-0.4,0-0.9,0.7-0.8c0.6,0.2,1.5,0,1.5,0.9
	c0.1,0.9,0,1.7-0.2,2.6c-0.5,2.3-1.2,4.5-2.2,6.7c-0.6,1.3-0.9,2.7-1.8,3.9C181.7,308.4,181.7,308.4,180.3,308L180.3,308z
	 M186.6,248.9c1.2,0,2.2,0.4,3.2,0.6c0.5,0.1,0.6,0.4,0.5,0.9c-0.6,3.3-1.7,6.5-2.8,9.6c-0.2,0.6-0.6,0.5-1.1,0.5
	c-1.6-0.1-1.7-0.1-1.3-1.6c0.6-2.2,1.1-4.4,1.3-6.7C186.5,251.1,186.5,250.1,186.6,248.9L186.6,248.9z"/>
<path class="st32" d="M183.1,272.2c1.1,0.1,2.1,0.7,3.3,1c0.3,0.1,0.5,0.4,0.5,0.7c0,0.6-0.1,1.1-0.2,1.7c-0.7,2.1-1.4,4.3-2,6.4
	c-0.2,0.8-0.6,1.1-1.4,1h-0.2c-1.3-0.1-1.6,0.2-1.3-1.5c0.6-2.7,1-5.5,1.1-8.3C182.9,272.8,182.8,272.5,183.1,272.2L183.1,272.2z"/>
<path class="st27" d="M172.8,306.2c-0.9-0.1-1.7-0.3-2.7-0.4c0.4-1.3,0.8-2.6,1.2-3.8c1.1-2.9,1.9-5.9,2.6-8.9
	c0.4-1.7,0.4-1.7,2.4-1.5C174.8,296.3,173.5,301.1,172.8,306.2L172.8,306.2z"/>
<path class="st26" d="M181,271.7l-1.8,9.6c-0.2,1.1-0.3,1.1-1.2,0.9c-1-0.2-1.1-0.3-1-1.4c0.5-2.9,1-5.7,1.4-8.6
	c0.2-1.1,0.3-1,1.3-0.9c0.3,0,0.6,0.1,0.9,0.1C180.7,271.5,180.8,271.6,181,271.7L181,271.7z"/>
<path class="st27" d="M189.9,260.7c1.1-3.3,2.3-6.6,2.6-10.1c0.2-0.1,0.3-0.2,0.4-0.1c0.7,0.3,1.7,0,2.1,0.7c0.3,0.6-0.3,1.3-0.5,2
	c-0.5,2.1-1,4.3-1.5,6.4c-0.5,1.9-0.5,1.9-2.4,1.6C190.3,261.1,190.1,261.1,189.9,260.7L189.9,260.7z"/>
<path class="st26" d="M168.1,303.4v0.5c-0.4,1.5-0.4,1.5-1.9,1.4c-2.7-0.1-5.5-0.3-8.2-0.7c-1.2-0.2-1.2-0.1-1.2-1.4
	c0-0.5,0-0.9,0.2-1.4C160.6,302.4,164.2,303.4,168.1,303.4L168.1,303.4z"/>
<path class="st27" d="M173.7,246.4c1.2,0.2,2.4,0.3,3.7,0.5c0.1,2.9,0.7,5.8,0.8,8.8c-2.1-2.8-3.4-6-5.2-8.9
	C172.9,246.2,173.3,246.3,173.7,246.4L173.7,246.4z"/>
<path class="st36" d="M168.2,256.2c1.7,1.3,3.2,2.6,5.3,3.6c-2.1,0.5-3.8,0-5.5-0.7c-0.4-0.2-0.3-0.4-0.3-0.8
	C167.9,257.7,168,257,168.2,256.2z"/>
<path class="st37" d="M173.7,246.4c-0.3,0.1-0.6,0.1-0.7,0.4c-0.2,0-0.2-0.2-0.3-0.3c-0.1-0.2-0.1-0.3,0.1-0.4
	C173,246.1,173.4,246.1,173.7,246.4z"/>
<path class="st38" d="M172.7,246.1c0,0.1,0,0.3-0.1,0.4c-0.2-0.1-0.3-0.3-0.2-0.4C172.5,245.9,172.6,245.9,172.7,246.1z"/>
<path class="st9" d="M261.9,264.4c-3.3,0.8-6.3,2.3-9.4,3.4c-1.1,0.4-1.1,0.4-1.7-0.7c-0.7-1.2-0.9-2.6-0.7-4s0.3-2.8,1-4.1
	c0.3-0.5,0.5-0.5,0.9-0.2c3,2.2,6.4,3.7,9.8,5.3C261.8,264.1,261.8,264.3,261.9,264.4z M264.9,262.3c-4.4-1.1-8.3-3.6-12.5-5.5
	c1.5-1.7,3.1-2.8,4.8-3.8c0.3-0.2,0.6-0.1,0.8,0.1c2.1,1.9,4.2,3.8,6.4,5.7C265.6,259.8,266,260.9,264.9,262.3L264.9,262.3z
	 M267.7,259c-1.9-3.2-5.3-4.8-8.1-7.3c1.8-1.2,3.8-1.9,5.8-2.4c0.4-0.1,0.6,0.1,0.7,0.4c0.9,2.3,2,4.6,2.9,6.9
	c0.2,0.5,0.2,1-0.2,1.4C268.4,258.3,268.3,258.9,267.7,259L267.7,259z"/>
<path class="st32" d="M270.7,281.9c-0.6-1.1-1.4-1.8-2.4-2.6c2.2-1.7,4.2-3.5,5.5-5.8c1.3,1.1,2.5,2.1,3.7,3.2
	C275.1,278.5,273,280.2,270.7,281.9L270.7,281.9z"/>
<path class="st25" d="M268.3,249.4c0.7-0.2,1.4,0,2,0.1c1.2,0.2,2.3,0.4,3.5,0.4c1,0,1,0.1,0.9,1.1c-0.1,1.3-0.4,2.6-0.5,3.9
	c-0.1,0.6-0.4,0.8-1,0.9c-1.8,0.3-1.8,0.3-2.5-1.3c-0.6-1.4-1.3-2.7-2-4.1C268.5,250.1,268.2,249.8,268.3,249.4L268.3,249.4z"/>
<path class="st27" d="M253.6,293.4c0.4-0.2,0.6-0.1,0.9,0c1.7,0.6,1.7,0.6,1.3,2.5c-0.6,2.7-0.6,5.5-1,8.2c-0.2,1-0.4,1.2-1.2,1.1
	c-0.9-0.1-1.1-0.4-1.1-1.3c0-1.6,0.5-3.1,0.7-4.7C253.5,297.2,253.5,295.2,253.6,293.4L253.6,293.4z"/>
<path class="st26" d="M264.3,266.7c-2.9,2.1-5.9,4.1-9.1,5.9c-0.5,0.3-0.8,0.1-1.2-0.2c-0.7-0.7-1.2-1.5-1.6-2.5
	c4.1-0.6,7.5-2.8,11.5-3.5C264.2,266.2,264.3,266.4,264.3,266.7L264.3,266.7z"/>
<path class="st27" d="M265.1,305.5c0.6-3.1,0.5-6.1,0.3-9c0-0.4-0.1-0.7,0.5-0.8c0.5,0,0.9,0,1,0.6c0.7,2.5,1.4,4.9,1.8,7.4
	c0.2,1,0.1,1.1-0.9,1.3C267,305.2,266.2,305.3,265.1,305.5L265.1,305.5z"/>
<path class="st26" d="M275,289.6c1.4-0.1,2.8,0.3,4.2,0.5c0.6,0.1,0.8,0.4,0.7,0.9v0.1c-0.3,0.9-0.2,2.1-1,2.7
	c-0.8,0.6-1.6-0.4-2.5-0.6c-1.2-0.3-2.2-1-3.2-1.7c-0.3-0.2-0.5-0.4-0.6-0.8c0-0.8,0.1-1.1,1-1.1L275,289.6L275,289.6z"/>
<path class="st28" d="M257.9,294.6c2.2,0.4,2.3,0.4,2,2.5c-0.3,2.6-0.5,5.2-1.2,7.7c-0.2,0.6-0.4,0.8-1,0.8s-0.8-0.3-0.7-0.8
	c0.6-3.3,0.5-6.6,0.9-9.9C257.8,294.8,257.9,294.7,257.9,294.6L257.9,294.6z M260.4,305.5c0.7-3.3,1.1-6.7,1.2-10.1
	c0.5-0.3,0.9,0.1,1.3,0.1s0.6,0.2,0.6,0.7c-0.3,2.5,0,5-0.4,7.4C262.7,305.9,262.8,305.9,260.4,305.5L260.4,305.5z"/>
<path class="st27" d="M272.4,285c-0.4,0.1-0.6,0-0.7-0.3c-0.1-0.3-0.1-0.6,0.3-0.8c2.2-1.3,4.1-2.9,6.2-4.2c0.8-0.5,1-0.5,1.3,0.4
	c0,0,0,0.1,0.1,0.1c0.2,0.8,0.6,1.7,0.4,2.4c-0.2,0.9-1.4,0.5-2.1,0.8c-1.5,0.5-3.1,0.9-4.7,1.3C272.8,284.9,272.5,285,272.4,285
	L272.4,285z"/>
<path class="st39" d="M274.3,300.7c-0.9,1.4-2,2.4-3.5,3c-0.6-2.6-1.2-5-2.1-7.4c-0.1-0.3-0.4-0.7,0.1-0.9c0.3-0.2,0.6,0.2,0.8,0.4
	C271,297.6,272.6,299.2,274.3,300.7z"/>
<path class="st28" d="M259.8,276.1c1.3-0.8,2.5-1.6,3.7-2.4c1.1-0.7,2.1-1.6,3-2.6c0.4-0.4,0.8-0.8,1.3-1.1c0.2-0.1,0.5-0.2,0.7,0
	c0.2,0.2,0.1,0.5-0.1,0.7c-1.1,1.3-2.1,2.7-3,4.1c-0.5,0.8-1.1,1.6-1.6,2.4c-0.4,0.6-0.8,0.7-1.4,0.3
	C261.6,277,260.6,276.7,259.8,276.1z"/>
<path class="st40" d="M270.7,294c0.4-0.4,0.7-0.6,1-0.9c0.2-0.2,0.4-0.2,0.7,0c1.4,1.2,3.2,1.8,4.8,2.6c0.1,0.1,0.2,0.2,0.4,0.3
	c-0.4,0.7-0.9,1.4-1.3,2.1c-0.3,0.5-0.6,0.5-1,0.1c-1-0.9-1.9-1.8-2.9-2.7C271.9,295,271.4,294.6,270.7,294L270.7,294z"/>
<path class="st41" d="M250.7,303.5c-0.7-0.3-0.9-0.8-0.9-1.4c-0.1-2.5,0.1-5,0.2-7.5c0-0.2,0-0.6,0.3-0.6c0.6,0,0.6-0.4,0.5-0.8
	c0-0.4,0.2-0.5,0.6-0.5c0.4,0,0.5,0.3,0.5,0.6c-0.1,1.6-0.1,3.2-0.3,4.7C251.3,299.8,251,301.6,250.7,303.5L250.7,303.5z"/>
<path class="st27" d="M279.6,252.6c0.7,1,0.3,2,0,3c-0.1,0.4-0.5,0.5-0.8,0.3c-0.4-0.2-0.9-0.2-1.3-0.2c-1.4,0.1-1.3,0-1.2-1.4
	c0-1.1,0.1-2.2,0.4-3.3c0.4-0.7,0.9-0.6,1.3-0.1c0.4,0.4,0.9,0.8,1.3,1.2C279.3,252.2,279.4,252.4,279.6,252.6L279.6,252.6z"/>
<path class="st29" d="M271.5,272c-1.3,2.4-3.4,4.2-5.1,6.3c-0.4,0.5-0.8,0.4-1.3,0c1.3-2.1,2.6-4.2,4.1-6.2c0.7-1,0.7-1,1.8-0.4
	C271.2,271.7,271.3,271.8,271.5,272L271.5,272z"/>
<path class="st42" d="M265.2,268.8c-0.9,1.2-2,2.1-3.2,3c-1.3,1-2.7,2-3.6,3.4c-0.9-0.3-1.4-0.9-2-1.7c3.1-1.4,5.7-3.4,8.5-5.1
	C265.2,268.4,265.2,268.5,265.2,268.8L265.2,268.8z"/>
<path class="st43" d="M272.4,286.6c2.6-0.5,5-1.5,7.7-1.8c0.3,0.9,0.1,1.8,0.1,2.7c-1.4,0.1-2.6-0.5-3.9-0.4h-3.9L272.4,286.6
	L272.4,286.6z"/>
<path class="st44" d="M279.2,252.3c-0.7-0.1-1.2-0.4-1.6-1.1c-0.3-0.6-0.7-0.4-1.1-0.2c0-0.4-0.3-1.1,0.6-0.9c1,0.3,1.5,1.1,2.2,1.8
	C279.4,252.1,279.4,252.2,279.2,252.3z"/>
<path class="st45" d="M279.3,251.9c-0.9-0.4-1.4-1.3-2.2-1.8C278.3,250.2,279,250.8,279.3,251.9z"/>
<path class="st46" d="M265.2,268.8l-0.3-0.3c0.2-0.4,0.5-0.5,0.9-0.6c0.3-0.1,0.4,0,0.3,0.3L265.2,268.8z"/>
<path class="st47" d="M266.1,268.1l-0.3-0.3l0.1-0.1c0.2-0.2,0.6-0.4,0.7-0.1C266.7,267.9,266.3,268,266.1,268.1L266.1,268.1z"/>
<path class="st48" d="M264.3,266.7c-0.1-0.1-0.3-0.2-0.4-0.3c0.1-0.2,0.4-0.3,0.6-0.3c0.4-0.2,0.4,0.1,0.4,0.3
	C264.7,266.5,264.5,266.7,264.3,266.7z"/>
<path class="st49" d="M264.9,266.3c-0.1-0.1-0.3-0.2-0.4-0.3l0.2-0.2c0.2-0.1,0.5-0.2,0.6,0C265.5,266.2,265.2,266.3,264.9,266.3
	L264.9,266.3z"/>
<path class="st45" d="M279.2,252.3c0-0.1,0.1-0.2,0.1-0.4c0.3,0.1,0.3,0.4,0.3,0.6C279.5,252.5,279.3,252.4,279.2,252.3L279.2,252.3
	z"/>
<path class="st7" d="M113,288.8c1.5,1.4,3,2.1,4.7,2.7c1.7,0.6,3.3,1.4,4.7,2.6l0.9,0.6c0.7,0.5,1.9,0.7,2.2,1.5
	c0.2,0.7-0.4,1.6-0.6,2.5c-0.2,0.6-0.3,1.2-0.4,1.8c-0.2,0.8-0.5,1.1-1.2,0.6c-1.3-0.8-2.7-1-4.1-1.2c-2-0.3-3.9-1.2-5.8-1.9
	c-0.8-0.3-1.3-1.1-2-1.6c-0.3-0.2-0.2-0.5-0.2-0.9C111.5,293.2,112.1,291.1,113,288.8L113,288.8z M134,270.2
	c-2.7-1.6-5.6-2.5-8.2-3.9c-0.1-0.1-0.3-0.2-0.4-0.2c-1-0.6-2-1.2-2.5-2.1c-0.5-0.9,0.4-2,0.8-2.9c0.3-0.8,0.6-1.6,0.9-2.5
	c1,0.4,1.8,0.8,2.6,1.2c2.4,1.2,5.1,1.6,7.8,2.1c0.8,0.2,0.9,0.5,0.7,1.1C135.1,265.3,134.6,267.6,134,270.2L134,270.2z M148.9,259
	c2.7,0.2,5.3,0.4,7.8,0.6c0.5,0,0.7,0.2,0.7,0.7c0,0.8-0.1,1.5-0.6,2.2c-1.7,2.5-3.6,4.6-6.5,5.8c-0.7,0.3-1,0.1-1.3-0.5
	c-1-2-1.9-3.9-2.9-5.8c-0.3-0.6-0.3-0.9,0.2-1.2c0.4-0.3,0.9-0.7,1.2-1.2C147.9,259,148.3,258.8,148.9,259L148.9,259z"/>
<path class="st9" d="M129.7,283.8c-3.2-1-6-2.3-9-3.5c-1-0.4-2.1-0.9-3.1-1.1c-0.4-0.1-0.7-0.2-0.5-0.7c0.6-1.5,1.1-3,1.8-4.7
	c3.1,2.1,6.6,2.9,9.8,4.5c0.1,0.1,0.3,0.1,0.4,0.2c2.1,1.1,2.1,1.1,1.3,3.3C130.2,282.4,130,283,129.7,283.8z M132.1,277.3
	c-2-2-4.4-2.6-6.8-3.4c-1.9-0.7-3.7-1.5-5.5-2.4c0.6-1.8,1.3-3.6,2-5.6c2.1,2.6,4.8,3.7,7.5,4.9c1.3,0.6,2.6,1.4,3.9,2.1
	c0.6,0.3,0.8,0.6,0.5,1.3C133.1,275.1,132.6,276.1,132.1,277.3L132.1,277.3z M134.9,237c3-0.4,5.8,0.5,8.7,1.6
	c-1.1,2.3-1.8,4.8-3.3,6.8c-0.3,0.4-0.6,0.8-1,0.1c-1.2-2.5-2.8-4.8-4.1-7.3C135.1,237.8,134.8,237.4,134.9,237L134.9,237z
	 M148.2,253.2c2.6-0.5,5.1-1.3,7.6-2.1c0.4-0.2,0.6,0,0.8,0.4c0.6,1.5,0.6,3.2,0.8,4.8c0.1,0.7-0.5,0.6-0.8,0.5
	c-1.6-0.2-3.1-0.3-4.7-0.3c-0.7,0-1.4-0.1-2.1-0.1c-0.8,0-1.2-0.3-1.2-1.2C148.5,254.6,148.3,254,148.2,253.2L148.2,253.2z
	 M152.4,243.9c0.9,1.6,1.8,3,2.7,4.5c-2.3,0.9-4.6,1.7-6.9,2.2c-0.4,0.1-0.9,0.4-1.3,0c-0.5-0.6-1-1.2-1.2-1.9
	c-0.1-0.3,0.2-0.4,0.4-0.6C148.2,246.7,150.1,245.1,152.4,243.9z"/>
<path class="st32" d="M141.3,249.9c0.6,0.7,1,1.3,1.5,1.9c1.2,1.5,1.3,3.3,1,5.1c-0.2,1.1-1,1.9-2.1,2.3c-1.1,0.4-2.2,0.4-3.4,0.2
	C139.3,256.1,140.3,253.1,141.3,249.9z"/>
<path class="st25" d="M137.8,249.2c-2.5-1.2-5.1-1.8-7.3-3.7c0.6-2,2.3-3.6,2.8-5.9C135,242.8,136.8,245.8,137.8,249.2z"/>
<path class="st26" d="M116,281.7c2.3,0.6,4.4,1.6,6.5,2.5c1.8,0.7,3.6,1.5,5.4,2c0.7,0.2,1,0.5,0.6,1.1c-0.1,0.2-0.2,0.5-0.3,0.7
	c-0.1,0.7-0.6,0.7-1.1,0.6c-0.2-0.1-0.5-0.2-0.7-0.3c-3.1-2-6.7-3-10-4.4c-0.2-0.1-0.4-0.2-0.6-0.2c-0.6-0.1-0.7-0.4-0.4-1
	C115.6,282.5,115.7,282,116,281.7L116,281.7z"/>
<path class="st25" d="M146.8,269.2h-5.6c-0.5,0-0.6-0.2-0.6-0.7v-4.7c0-0.3,0-0.5,0.3-0.6c0.8-0.3,1.5-0.5,2.3-0.8
	c0.3-0.1,0.5,0.1,0.6,0.4C144.6,264.9,145.6,266.9,146.8,269.2L146.8,269.2z"/>
<path class="st26" d="M127.5,290.5c-0.2,1-0.6,1.8-1,2.7c-0.9-0.3-1.6-0.8-2.3-1.3c-1.8-1.5-3.8-2.4-6-3.2c-1.1-0.4-2.1-0.8-3-1.5
	c-0.2-0.2-0.5-0.4-0.7-0.6c-0.3-0.2-0.5-0.5-0.3-0.9c0.2-0.5,0.6-0.3,0.9-0.1c3.1,1.2,6.2,2.2,9.2,3.7
	C125.3,289.8,126.3,290.4,127.5,290.5L127.5,290.5z"/>
<path class="st25" d="M127.8,251.8c0.6-1.4,1.2-2.7,1.8-4.1c0.6,0.2,0.9,0.7,1.3,1.1c0.8,0.7,1.7,1.3,2.7,1.6s1.8,0.9,2.7,1.4
	c0.5,0.3,0.5,0.5,0.2,1c0,0,0,0.1-0.1,0.1c-1,1.6-0.5,1.5-2.2,0.9c-1.4-0.5-2.9-1-4.4-1.3C129.3,252.4,128.6,252.1,127.8,251.8z"/>
<path class="st26" d="M125.3,256.7l1.5-3c2.3,1.5,4.9,1.9,7.3,3.1c0.6,0.3,0.8,0.5,0.6,1.1c-0.1,0.7-0.4,0.9-1.1,0.8
	c-1.8-0.2-3.6-0.6-5.3-1.2C127.3,257.3,126.4,257,125.3,256.7L125.3,256.7z"/>
<path class="st27" d="M146.2,239.5c1.5,0.5,2.7,1.2,3.8,2.2v0.4c-1.8,1.2-3.5,2.6-5.2,3.9c-0.2,0.1-0.3,0.2-0.5,0.4
	c-0.3,0.3-0.6,0-0.8-0.2c-0.3-0.2-0.2-0.5,0-0.8C144.7,243.6,145.1,241.5,146.2,239.5z"/>
<path class="st50" d="M138.1,262.6c0.3,0.4,0.2,0.9,0.2,1.3c0,1.5-0.1,2.9-0.1,4.4c0,1.4,0,1.4-1.6,1.7c0.1-2.2,0.9-4.2,0.9-6.4
	C137.8,263.4,137.3,262.6,138.1,262.6L138.1,262.6z"/>
<path class="st51" d="M138.1,262.6c-0.6,0.1-0.3,0.7-0.6,1c-0.1-0.4-0.1-0.8,0-1.2c0-0.2,0.2-0.3,0.3-0.3
	C138.1,262.2,138.1,262.4,138.1,262.6z"/>
<path class="st7" d="M230.8,206.6c0.2-1.9,0.1-3.8,0.7-5.6c0.9-3,4.4-6,7.3-5.7c0.9,0.1,1.5,0.4,1.9,1.1c0.4,0.8,0.8,1.6,0.9,2.6
	c0.3,4-0.4,7.7-2.9,10.9c-1.1,1.5-2.7,2.5-4.4,3.1c-1.8,0.6-2.6,0-3.1-1.8C230.7,209.6,230.9,208.1,230.8,206.6z"/>
<path class="st9" d="M227.2,211.1c-3,0.9-6,1.5-8.9,2.8c-0.4,0.2-0.9,0.3-0.9-0.3c0-1.6-0.3-3.2,0.5-4.6c0.2-0.3,0.3-0.6,0.7-0.6
	c2.3,0.3,4.6-0.3,6.9-0.3c1.3,0,1.3,0,1.5,1.3C227.1,209.9,227.3,210.5,227.2,211.1z"/>
<path class="st25" d="M228,201.4c-2.4-0.6-4.8-1.2-7.4-1.8c1.4-2.6,3.3-4.5,5.2-6.6c1.3,1.4,2.3,2.8,3.4,4.2
	c0.2,0.2,0.2,0.5,0.1,0.7C228.6,198.9,228.4,200.2,228,201.4z"/>
<path class="st9" d="M245,185.9c-0.7,1.8-2.1,3.1-3,4.7c-0.8,1.4-1.8,1.9-3.3,1.6c-0.2-0.1-0.5,0-0.8,0c-0.5,0-0.6-0.2-0.6-0.7
	c0-1.7-0.1-3.5-0.1-5.2c0-0.3,0.1-0.7,0.4-0.7c2.2,0,4.4-0.7,6.7,0C244.5,185.6,244.7,185.7,245,185.9L245,185.9z M240.2,214.9
	c1.5,2.7,2.9,5.4,5.4,7.5c-2,1.2-4.2,1.5-6.4,2.6c0-2.8-0.6-5.3-1.1-7.8c-0.1-0.7-0.1-1.2,0.7-1.4
	C239.2,215.6,239.7,215.3,240.2,214.9L240.2,214.9z"/>
<path class="st32" d="M228.5,214.1c-2.4,2.3-5.3,4.1-7.5,6.8c-1.3-1-2.2-2.2-2.6-3.7c-0.3-1-0.2-1.1,0.8-1.4l7.2-2.1
	c0.2-0.1,0.5-0.1,0.7-0.2C227.9,212.9,228.3,213.4,228.5,214.1L228.5,214.1z M226.9,225.7c-1.8-0.5-2.9-1.6-4.1-2.5
	c-0.4-0.3-0.6-0.7-0.1-1.1c0.5-0.4,0.8-0.9,1.3-1.3c1.6-1.4,3.3-2.8,4.9-4.1l0.9-0.6c0.2-0.2,0.4-0.2,0.7,0s0.4,0.4,0.2,0.8
	c-1.1,2.3-1.9,4.8-3.3,7C227.1,224.4,226.8,224.9,226.9,225.7L226.9,225.7z"/>
<path class="st25" d="M218.7,206.4c0.3-1.4,0.6-2.5,0.9-3.6c0.1-0.7,0.5-0.8,1.1-0.6c2.1,0.5,4.2,1.1,6.4,1.3c0.7,0.1,0.8,0.3,0.6,1
	c-0.4,1.4-0.4,1.4-1.8,1.4c-1.3,0-2.5,0.2-3.8,0.3C221,206.2,219.9,206.3,218.7,206.4z"/>
<path class="st40" d="M254.9,196.6c0.3,1,0.4,1.9,0.4,2.9c0,0.5-0.2,0.8-0.7,0.7c-2.8-0.5-5.7-0.4-8.5-0.3c-0.8,0-0.5-0.7-0.7-1
	C248.5,197.7,251.8,197.6,254.9,196.6z"/>
<path class="st27" d="M249.7,217.9c-0.8,0.8-1.3,1.9-2.3,2.7c-1.1-1.2-2.2-2.3-3-3.6c-0.7-1.1-1.5-2.2-2.2-3.3
	c-0.1-0.2-0.3-0.3-0.3-0.5c-0.1-0.2,0.1-0.4,0.2-0.5c0.2-0.2,0.3-0.1,0.5,0.1C244.8,214.6,247.5,215.8,249.7,217.9z"/>
<path class="st39" d="M253.9,193.9c-1,0.6-2.1,0.8-3.2,1c-1.9,0.3-3.7,0.8-5.5,1.4c-0.3,0.1-0.7,0.4-0.9-0.1s0.3-0.6,0.5-0.8
	c1.1-0.7,2.2-1.5,3.3-2.2c1-0.6,2-1.3,2.9-2c0.4-0.4,0.8-0.4,1.2,0.1C253,192.1,253.5,193,253.9,193.9z"/>
<path class="st52" d="M245.7,204.3c0-0.3-0.1-0.4-0.1-0.6c0-1.3,0-1.3,1.3-1.3c2.3,0.1,4.6,0.2,6.8,0.5c1.5,0.2,1.5,0.2,1.2,1.8
	C251.9,204.7,248.9,204.1,245.7,204.3z"/>
<path class="st53" d="M235.5,216.7c0.4,2.6,1,5.2,1.1,7.8c0,0.8-0.3,1.2-1.1,1.3c-0.7,0.1-1.4,0.2-2.3,0.4
	C233.9,222.9,235,219.9,235.5,216.7z"/>
<path class="st40" d="M234.8,186.4v5.4c0,0.5-0.3,0.7-0.7,0.9s-0.7,0-0.9-0.4c-0.7-1.1-1.4-2.1-2.1-3.2c-0.4-0.5-0.2-0.8,0.3-1.1
	C232.5,187.5,233.6,187,234.8,186.4z"/>
<path class="st29" d="M252.9,212.6c-0.4,0.9-0.8,1.8-1.3,2.6c-0.4,0-0.6-0.2-0.9-0.4c-2.2-1.5-4.4-2.9-6.9-3.9
	c-0.2-0.1-0.5-0.2-0.4-0.5c0.1-0.2,0.2-0.3,0.5-0.2c2.7,1.3,5.8,1.3,8.7,2.3C252.7,212.5,252.7,212.5,252.9,212.6L252.9,212.6z"/>
<path class="st54" d="M244.8,207.9c0.2-0.7,0.2-1.2,1.1-1c2.7,0.4,5.3,0.7,8,0.9c1.1,0.1,1.3,0.4,1,1.6c-0.1,0.3-0.3,0.5-0.6,0.4
	C251.2,208.7,248,208.5,244.8,207.9z"/>
<path class="st55" d="M228.7,226.2c1.9-2.4,2.7-5.2,3.7-8c0.2-0.5,0.1-1.5,1-1.2c0.6,0.2,0.1,0.9,0,1.3c-0.6,2.5-1.3,5-1.9,7.5
	c-0.1,0.4-0.3,0.6-0.7,0.6C230.1,226.5,229.4,226.5,228.7,226.2z"/>
<path class="st29" d="M229.3,189.8c0.8,1.3,1.5,2.5,2.3,3.7c0.5,0.7-0.2,1-0.5,1.3c-0.4,0.4-0.6-0.1-0.8-0.3c-0.9-1-1.8-2-2.7-3.1
	C228,190.8,228.6,190.4,229.3,189.8z"/>
<path class="st56" d="M243.4,193.2c0-0.3,0.2-0.5,0.4-0.6c1.3-1.6,2.9-3,3.6-5.1c0.8,0.5,1.5,0.9,2.1,1.6c-1.8,1.6-3.9,2.7-5.8,4.1
	C243.6,193.3,243.5,193.3,243.4,193.2z"/>
<path class="st57" d="M243.4,193.2c0.1-0.1,0.2-0.1,0.3,0c-0.1,0.2-0.2,0.4-0.5,0.4l-0.1-0.1C243.1,193.3,243.2,193.1,243.4,193.2z"
	/>
<path class="st58" d="M243.2,193.5c0,0.1-0.1,0.2-0.2,0.3l-0.1-0.1C242.8,193.5,242.9,193.5,243.2,193.5z"/>
<path class="st26" d="M180.8,211.8c1.2,2.3,2.3,4.5,3.5,6.8c-0.6,0.6-1.3,1.2-2,1.8c-1.1-1.6-2.1-3.3-3-5c-0.8-1.4-0.8-1.4,0.2-2.6
	C179.9,212.5,180.2,212,180.8,211.8z"/>
<path class="st39" d="M185.8,207c0.7-0.8,1.3-1.4,1.9-2.2c1.5,2,2.4,4.2,4,6c-0.5,0.7-0.9,1.3-1.7,1.8
	C188.7,210.7,187.4,208.8,185.8,207z"/>
<path class="st28" d="M186,216.6c-0.4-1.7-1.4-3-2.3-4.2c-1.4-1.8-1.4-1.8,0.3-3.4c0.1-0.1,0.2-0.2,0.4-0.3c1.1,1.8,2.2,3.6,3.2,5.3
	c0.2,0.4,0.3,0.7-0.1,1.1L186,216.6L186,216.6z M175.5,227.7c-0.5-2.1-1.6-4-2.8-5.7c-0.9-1.2-0.8-1.3,0.3-2.2
	c0.2-0.2,0.4-0.3,0.6-0.5c1.4,2,2.5,4,3.4,6.2c0.2,0.5,0.2,0.9-0.3,1.3c-0.3,0.3-0.6,0.7-0.8,1.1
	C175.7,227.8,175.6,227.7,175.5,227.7z"/>
<path class="st40" d="M167.3,224.9c0.8,1.2,1.5,2.1,2.2,3.2c0.6,0.8,1.2,1.6,1.2,2.7c0,0.2,0.2,0.5,0.3,0.7s0.6,0.3,0.2,0.7
	c-0.4,0.4-0.7,0.3-1.1,0c-1.2-0.9-2.2-2-2.8-3.3c-0.4-1-0.9-2-2-2.7C166,225.7,166.6,225.3,167.3,224.9L167.3,224.9z"/>
<path class="st52" d="M189.1,203c0.8-0.5,1.4-1,2-1.4c0.5,0.1,0.6,0.6,0.7,0.9c0.7,1.4,1.5,2.7,2.4,3.9c0.9,1.1,0.7,0.9-0.2,1.8
	c-0.2,0.2-0.4,0.3-0.7,0.6C192.2,206.7,190.8,204.8,189.1,203z"/>
<path class="st40" d="M179.1,224.1c-0.9-2.6-2.3-4.5-4-6.4c0.7-0.6,1.4-1.1,2.1-1.6c0.5,1.9,1.6,3.7,2.7,5.5
	c0.4,0.7,0.5,1.3-0.2,1.8C179.6,223.5,179.4,223.7,179.1,224.1z M193.2,200c0.5-0.6,1-1,1.7-1.4c1.1,1.9,2.2,3.6,3.2,5.4
	c0.4,0.7-0.4,0.9-0.7,1.3c-0.4,0.4-0.6,0-0.8-0.2C195.2,203.5,194.3,201.7,193.2,200z"/>
<path class="st29" d="M208.6,186c0.6-0.7,1.2-1.2,1.8-1.7c1.6,1.3,2.1,3.3,3.4,4.7c-0.4,0.5-0.8,0.9-1.4,1.3
	C211.3,188.8,209.9,187.5,208.6,186z"/>
<path class="st42" d="M204.9,198c-0.6,0.5-1.1,0.8-1.6,1.3c-0.5-0.3-0.6-1-1-1.5c-0.5-0.8-1.1-1.6-1.7-2.3c-0.7-0.8-0.7-0.8,0.1-1.5
	c0.1-0.1,0.3-0.3,0.5-0.4C202.8,194.6,203.2,196.8,204.9,198z"/>
<path class="st59" d="M213.4,181.5c1.4,1.6,2.6,3.1,3.5,4.9c-0.2,0.4-0.7,0.7-1.2,1c-0.7-1.6-1.5-3-2.7-4.1
	C212.3,182.5,212.3,182.4,213.4,181.5z"/>
<path class="st60" d="M173.2,229c-1.3-1.9-2.6-3.8-4.4-5.5c0.6-0.5,1.1-0.9,1.7-1.4c0.8,1.9,2,3.6,2.5,5.6c0.1,0.5,0.4,0.8,0.6,1.2
	l-0.1,0.1C173.4,229.1,173.3,229.1,173.2,229z"/>
<path class="st61" d="M200.5,202.5c-1-2-2.1-3.6-3.3-5c-0.3-0.4-0.2-0.6,0.1-0.9c0.3-0.2,0.5-0.2,0.8,0.1c1,1.5,2,2.9,3,4.4
	C201.4,201.6,200.6,201.7,200.5,202.5z"/>
<path class="st62" d="M206.6,187.6c1.2,1.5,2.3,2.9,3.4,4.2c0.2,0.3,0.4,0.6,0,0.9c-0.3,0.3-0.5,0.4-0.9,0.1
	c-1.1-1.1-1.8-2.5-2.8-3.6C205.9,188.6,206.5,188.3,206.6,187.6z M222.5,181c-0.9,1-0.9,1-1.5,0.1c-0.8-1.2-1.6-2.4-2.5-3.4
	c-0.3-0.3-0.5-0.6,0-1c0.5-0.4,0.7,0.1,0.9,0.4C220.3,178.5,221.5,179.7,222.5,181z"/>
<path class="st63" d="M216.3,178.9c1.1,1.4,2,2.9,3,4.4c0.2,0.3,0.1,0.6-0.2,0.8c-0.3,0.2-0.4,0-0.6-0.3c-0.5-1.3-1.6-2.2-2.6-3.2
	C215.3,179.7,215.3,179.7,216.3,178.9L216.3,178.9z"/>
<path class="st64" d="M206.6,196.2c-0.6-1.6-1.6-2.9-2.7-4.1c-0.3-0.3-0.6-0.6-0.1-1c0.5-0.4,0.7,0,0.9,0.3c0.7,1.2,1.5,2.3,2.4,3.3
	C207.5,195.3,207.5,195.4,206.6,196.2L206.6,196.2z"/>
<path class="st65" d="M224.2,179c-1.4-1.2-2.2-2.6-3.4-3.7c-0.3-0.3-0.2-0.5,0-0.8c0.3-0.3,0.5-0.3,0.8,0
	C222.9,175.7,223.9,177,224.2,179L224.2,179z"/>
<path class="st66" d="M173.6,229c0.3,0.1,0.5,0.3,0.3,0.5c-0.2,0.3-0.5,0.2-0.6-0.2c0.1-0.1,0.1-0.2,0.1-0.3
	C173.5,229,173.6,228.9,173.6,229z"/>
<path class="st67" d="M173.4,229c0.1,0.1,0.1,0.1,0,0.2c0,0-0.1,0-0.1,0.1c-0.1-0.1-0.1-0.2-0.1-0.3H173.4L173.4,229z"/>
<path class="st9" d="M295.8,253.2h9.6c1.3,0.1,1.3,0.1,1.2,1.4c-0.1,1.2-0.2,2.4-0.3,3.8c-3.3-0.9-6.6-0.2-9.9-0.5
	c-1.1-0.1-1.1-0.1-1-1.1C295.6,255.6,295.7,254.4,295.8,253.2L295.8,253.2z"/>
<path class="st25" d="M293.3,295.5c0.1-1.4,0.3-2.6,0.4-3.8c0.1-0.6,0.4-0.6,0.9-0.5c0.8,0.2,1.7,0.5,2.5,0.6
	c2.6,0.4,5.3,0.4,7.9,0.5c1.2,0,1.2,0,1.2,1.3v0.6c0.1,0.8-0.3,1-1.1,1c-3.2,0-6.4,0-9.6,0.1C294.8,295.1,294.2,295.2,293.3,295.5
	L293.3,295.5z"/>
<path class="st32" d="M293.1,297.4c2.5,0.6,5,0.4,7.4,0.5c1.5,0.1,3,0.1,4.6,0c0.8,0,1.1,0.3,1.2,1.1c0.3,1.8,0.3,1.5-1.3,1.6
	c-3.2,0.3-6.4,0.3-9.6,0.2c-2.5-0.1-2.5-0.1-2.4-2.6C293,298,293,297.8,293.1,297.4L293.1,297.4z"/>
<path class="st25" d="M293.1,303.3c1.4,0.1,2.7,0.4,4,0.4c2.5,0.1,5,0.4,7.5,0h0.6c1.4,0,1.4,0,1.2,1.3c-0.2,1.9-0.2,1.9-2,1.9
	c-3.5,0.1-6.9,0-10.3-0.7c-0.5-0.1-0.7-0.2-0.7-0.7C293.3,304.9,293.2,304.2,293.1,303.3L293.1,303.3z"/>
<path class="st32" d="M295.3,260c2.7,0.5,5.4,0.5,8.1,0.5c0.5,0,1,0.2,1.5,0.3c1.8,0.4,1.9,0.5,1.8,2.3c0,0.7-0.3,0.9-0.9,0.8
	c-2-0.1-4.1-0.1-6.1-0.2c-1.2,0-2.4-0.2-3.7-0.3c-1.2-0.1-1.1-0.1-1-1.2C295.2,261.5,295.2,260.8,295.3,260L295.3,260z"/>
<path class="st9" d="M294.7,275.3c4-0.1,7.8,0.4,11.7,0.8c0.1,3.8,0.1,3.3-3,2.8c-2.6-0.4-5.3-0.3-7.9-0.6c-0.8-0.1-1.1-0.3-1-1.1
	C294.7,276.6,294.5,276,294.7,275.3L294.7,275.3z"/>
<path class="st25" d="M295.9,251.2c-0.1-1.6-0.1-2.8,0.1-4.1l10.2,0.6c0.1,1,0.2,1.9,0.3,2.8c-0.6,0.3-1.2,0.1-1.7,0.1
	c-2,0-4,0-6,0.1C297.9,250.7,296.9,250.6,295.9,251.2L295.9,251.2z"/>
<path class="st32" d="M294.3,285.8c2.8,0.3,5.4,0.6,8.1,0.8c0.6,0,1.1,0.1,1.7,0.2c2,0.4,1.8,0.2,2.1,2.3c-0.2,0.4-0.6,0.2-1,0.2
	c-3.5,0.1-6.9,0-10.4-0.5c-0.8-0.1-0.9-0.4-0.8-1.1C294.1,287.1,294.2,286.5,294.3,285.8L294.3,285.8z"/>
<path class="st25" d="M294.3,283.8c0.1-1.2,0.1-2.2,0.2-3.3c3.6,0.6,7.1,1,10.7,1.2c0.5,0,0.7,0.2,0.7,0.7c-0.1,0.6-0.1,1.2-0.2,1.9
	C302,283.9,298.3,283.3,294.3,283.8L294.3,283.8z"/>
<path class="st32" d="M294.7,269.9c2.4,0.6,4.8,0.6,7.1,0.8c1.7,0.1,3.2,1,4.9,1.1c0.3,0,0.3,0.2,0.3,0.4c0,0.3,0.1,0.8-0.4,0.9
	c-0.3,0.1-0.7,0.2-1,0.2c-0.7,0-1.3,0-2-0.1c-2.2-0.3-4.4-0.5-6.6-0.3h-1.8c-0.6,0-0.8-0.3-0.8-0.8
	C294.5,271.4,294.5,270.7,294.7,269.9L294.7,269.9z"/>
<path class="st39" d="M307,265.9c0.1,1.1,0.1,2,0.2,3.1c-0.6,0.1-1.2-0.1-1.7-0.3c-1.9-0.6-3.8-0.9-5.7-0.8c-1.4,0-2.8-0.1-4.3-0.2
	c-0.7-0.1-0.8-0.4-0.8-1c0-0.7,0.4-0.7,0.9-0.6C299.4,266.2,303.2,266.5,307,265.9z M293.7,308.6c0.3,0,0.5,0,0.6,0.1
	c3.3,1.3,6.8,1.1,10.3,1.1h0.8c0.3,0,0.5,0,0.5,0.3c0,0.3,0,0.5-0.2,0.7c-0.1,0.1-0.3,0.1-0.4,0.2c-3.2,0.8-6.4,1.4-9.6,0.1
	C294.6,310.6,293.6,310.2,293.7,308.6L293.7,308.6z"/>
<path class="st25" d="M143.4,212c0.4-1.1,0.8-2.2,1.2-3.4c2.8,1.9,5.9,2.9,8.7,4.1c0.3,0.3,0.2,0.5,0.1,0.6c-0.4,0.6-0.3,1.7-1,1.9
	c-0.6,0.1-1.3-0.4-2-0.6C148.1,213.8,145.9,212.7,143.4,212z"/>
<path class="st26" d="M149.5,196.7c0.3-0.8,0.6-1.6,0.9-2.5c2.8,1.6,5.8,2.5,8.7,3.9c-0.2,0.8-0.6,1.6-1,2.4
	C155.3,199.2,152.5,198,149.5,196.7L149.5,196.7z"/>
<path class="st27" d="M154.8,209.6c-3.1-1.2-6.2-2.4-9.4-3.6c0.1-0.7,0.4-1.4,0.8-2.1c3.1,1,6.1,2.4,9.1,3.6
	C155.4,208.3,155.1,208.9,154.8,209.6L154.8,209.6z M164.3,186.4c-2.1-1.3-4.4-1.9-6.7-2.6c-0.3-0.1-0.7-0.2-1-0.4
	c-1.2-0.5-1.2-0.5-0.7-1.8c0.6-1.6,0.5-1.3,1.8-0.7c2.2,1,4.3,2,6.6,2.8c0.8,0.3,0.9,0.6,0.5,1.3C164.6,185.6,164.5,186,164.3,186.4
	L164.3,186.4z"/>
<path class="st39" d="M161.3,193.1c-0.9,2-0.9,2-2.8,1.2c-2.1-0.8-4.2-1.6-6.3-2.3c-0.7-0.3-0.9-0.6-0.5-1.2
	c0.3-0.5,0.4-1.1,0.9-1.6C155.5,190.5,158,192.7,161.3,193.1L161.3,193.1z M168.7,175.2c-0.2,1.2-0.4,2.3-1.1,2.7
	c-0.7,0.5-1.7-0.3-2.5-0.6c-2-0.7-4-1.4-6.1-1.9c0-0.2-0.1-0.3-0.1-0.4c0.6-1.6,0.6-1.6,2.1-1c0.9,0.4,1.8,0.5,2.8,0.6
	C165.5,174.5,167,175.4,168.7,175.2L168.7,175.2z M163.5,188.6c-0.6,1.8-0.6,1.7-2.2,1.6c-0.7-0.1-1.3-0.2-1.9-0.5
	c-1.7-0.9-3.3-1.7-5.1-2.4c-0.5-0.2-0.8-0.5-0.4-1c0.3-0.4,0.3-1,1.1-0.7C157.7,186.8,160.7,187.2,163.5,188.6L163.5,188.6z"/>
<path class="st27" d="M147.3,201.5c0.4-1,0.8-1.8,1.2-2.7c2.9,1.5,5.8,2.7,8.6,4.3c-0.1,0.2-0.1,0.4-0.2,0.6
	c-0.2,0.7-0.5,0.9-1.2,0.6c-0.8-0.4-1.6-0.6-2.4-0.9C151.4,202.6,149.5,201.8,147.3,201.5L147.3,201.5z"/>
<path class="st52" d="M141.8,216.5c0.3-0.9,0.6-1.7,1-2.4c2.4,1.7,5.1,2.6,7.8,3.7c1,0.4,1,0.4,0.5,1.6
	C148.2,218.3,145.1,217.3,141.8,216.5z M157.6,178.3c0.1-0.9,0.4-1.1,1.3-0.8c1.3,0.4,2.7,0.8,4.1,1.2c1.3,0.5,2.5,1,4,1.1
	c-0.1,0.7-0.4,1.3-0.7,2C163.3,180.6,160.4,179.5,157.6,178.3L157.6,178.3z"/>
<path class="st68" d="M143.5,220.2c-0.2-0.1-0.3-0.1-0.5-0.2c-0.1-0.1-0.2-0.1-0.3-0.2l-1.2-0.3c-0.8-0.2-0.4-0.6-0.3-1.2
	c0.8,0.5,1.4,0.9,2.1,1.2c0.1,0.1,0.2,0.1,0.4,0.2c0.1,0,0.2,0,0.2,0.1c0,0.1,0.1,0.1,0.1,0.2c0,0.1-0.1,0.1-0.1,0.2
	C143.9,220.2,143.5,220.2,143.5,220.2z"/>
<path class="st69" d="M146.3,220.8c0.6,0.1,1.2,0.2,1.7,0.8c-0.8-0.1-1.4,0-2-0.5C146,220.9,146.2,220.9,146.3,220.8z"/>
<path class="st70" d="M144.5,220.2c0.5,0.1,0.9,0.2,1.3,0.5c0,0.2-0.2,0.2-0.3,0.3c-0.5-0.1-0.9-0.1-1.3-0.5
	C144.2,220.3,144.4,220.2,144.5,220.2z"/>
<path class="st71" d="M145.5,221l0.3-0.3c0.2,0,0.4,0.1,0.5,0.1l-0.3,0.3C145.8,221,145.7,221,145.5,221z"/>
<path class="st72" d="M144.5,220.2l-0.3,0.3c-0.1,0-0.2,0-0.3-0.1c-0.1-0.1-0.1-0.1-0.1-0.2c0-0.1,0-0.1,0.1-0.1
	c0.1-0.1,0.2-0.1,0.3,0C144.4,220.1,144.4,220.1,144.5,220.2z"/>
<path class="st73" d="M144.3,220.1H144v-0.3C144.1,219.8,144.2,219.9,144.3,220.1z M143.7,219.8c-0.2,0-0.3,0-0.4-0.2
	C143.5,219.5,143.6,219.6,143.7,219.8z M143.9,220.1v0.3c-0.2,0-0.3,0-0.4-0.2C143.6,220.2,143.8,220.1,143.9,220.1z M142.6,219.9
	c0.2,0,0.3,0,0.3,0.2C142.8,220.1,142.7,220,142.6,219.9z"/>
</svg>
