<?xml version="1.0" encoding="utf-8"?>
<!-- Generator: Adobe Illustrator 24.0.1, SVG Export Plug-In . SVG Version: 6.00 Build 0)  -->
<svg version="1.1" id="Layer_1" xmlns="http://www.w3.org/2000/svg" xmlns:xlink="http://www.w3.org/1999/xlink" x="0px" y="0px"
	 viewBox="0 0 373 373" style="enable-background:new 0 0 373 373;" xml:space="preserve">
<style type="text/css">
	.st0{enable-background:new    ;}
	.st1{fill:#3B3B3B;}
</style>
<g class="st0">
	<path class="st1" d="M72.6,0h20.6v65.5h36.1v15.4H72.6V0z M195.6,46.7h-33.5v19.2h37.4v15h-58V0h56.1v15h-35.5v16.8h33.4v14.9
		L195.6,46.7z M261.4,80.9l-8.2-14.6c-3.4-5.6-5.5-9.8-8.1-14.5h-0.3c-1.9,4.7-4.2,8.9-7,14.5l-7.6,14.6h-23.5L233.1,40L207.7,0
		h23.6l8,14.8c2.7,4.9,4.7,8.9,6.9,13.4h0.3c2.2-5.2,3.9-8.8,6.2-13.4L260.3,0h23.5l-25.7,39.5l27,41.4H261.4z"/>
</g>
<g class="st0">
	<path class="st1" d="M78.6,197.7c8.6,3.9,21.8,7.8,35.4,7.8c14.7,0,22.4-5.4,22.4-13.6c0-7.8-6.7-12.3-23.7-17.7
		C89.3,166.9,74,155.3,74,137c0-21.5,20.1-37.9,53.5-37.9c15.9,0,27.7,3,36.1,6.3l-7.1,23c-5.7-2.4-15.7-6-29.6-6
		s-20.6,5.6-20.6,12.1c0,8,8,11.6,26.2,17.7c25,8.2,36.7,19.8,36.7,37.5c0,21.1-18.3,39-57.1,39C95.9,228.7,80,225,72,221
		C72,221,78.6,197.7,78.6,197.7z M190.8,102.8c9.9-1.5,23.7-2.6,43.2-2.6c19.7,0,33.8,3.4,43.2,10.1c9,6.3,15.1,16.8,15.1,29.1
		s-4.6,22.8-13,29.9c-10.9,9.1-27.1,13.3-45.9,13.3c-4.2,0-8-0.2-10.9-0.6v45h-31.7V102.8z M222.5,159.9c2.7,0.6,6.1,0.7,10.7,0.7
		c17,0,27.5-7.7,27.5-20.5c0-11.6-9-18.5-25-18.5c-6.5,0-10.9,0.6-13.2,1.1V159.9z"/>
</g>
<g class="st0">
	<path class="st1" d="M161.7,319.8h-52v29.9h58.1V373H77.6V247.2h87.3v23.3h-55.3v26.1h52L161.7,319.8L161.7,319.8z M264,373
		l-12.8-22.8c-5.2-8.8-8.6-15.3-12.6-22.6h-0.4c-2.9,7.3-6.5,13.8-10.9,22.6L215.6,373h-36.5l40.9-63.7l-39.4-62.2h36.7l12.4,23
		c4.2,7.7,7.3,13.8,10.7,20.9h0.4c3.4-8,6.1-13.6,9.6-20.9l12-23h36.5L259,308.5l42,64.4h-37V373z"/>
</g>
</svg>
