<?xml version="1.0" encoding="utf-8"?>
<!-- Generator: Adobe Illustrator 24.0.1, SVG Export Plug-In . SVG Version: 6.00 Build 0)  -->
<svg version="1.1" id="Layer_1" xmlns="http://www.w3.org/2000/svg" xmlns:xlink="http://www.w3.org/1999/xlink" x="0px" y="0px"
	 viewBox="0 0 265.9 265.9" style="enable-background:new 0 0 265.9 265.9;" xml:space="preserve">
<style type="text/css">
	.st0{clip-path:url(#SVGID_3_);}
	.st1{clip-path:url(#SVGID_4_);}
	.st2{fill:#101010;}
	.st3{fill:#191919;}
	.st4{fill:none;}
</style>
<g>
	<g>
		<defs>
			<line id="SVGID_1_" x1="265.9" y1="262.7" x2="0" y2="262.7"/>
		</defs>
		<defs>
			<line id="SVGID_2_" x1="0" y1="66.8" x2="265.9" y2="66.8"/>
		</defs>
		<clipPath id="SVGID_3_">
			<use xlink:href="#SVGID_1_"  style="overflow:visible;"/>
		</clipPath>
		<clipPath id="SVGID_4_" class="st0">
			<use xlink:href="#SVGID_2_"  style="overflow:visible;"/>
		</clipPath>
		<g class="st1">
			<path class="st2" d="M127.6,48.7c3.7-2.1,4.1-9.9,12.3-6.8c-10.7,7.9-6.2,15.5,1.2,22.8c-9,2.9-9.2-5.8-13.4-7.9
				c-1.7-0.2-1.4,1-1.6,1.7c-0.8,2.4,1.9,7-2.9,6.8c-4.4-0.1-2.2-4.5-2.5-7.1c-0.4-3.2-0.4-6.5,0-9.7c0.3-2.6-2-6.9,2.2-7.3
				C128.7,40.7,124,46.6,127.6,48.7L127.6,48.7z"/>
			<path class="st3" d="M153.2,40.1c1.8,1.2,5.5-0.4,5.7,2.6c0.2,3.6-2.8,2.5-5,2.2c-1.3-0.2-2.4,0.7-2.5,1.9
				c-0.4,2.9,2.2,3.2,3.9,3.9c4.9,2.1,6.9,5.4,4.7,10.4c-2,4.6-6,5.2-10.4,4.5c-2-0.3-4.3-1-4.2-3.6c0.2-3.5,2.7-1.9,4.6-1.6
				c1.7,0.3,3.9,0.7,4.2-1.6c0.4-2.7-1.9-3.1-3.9-3.9c-4.8-1.8-5.8-5.4-4.6-10C146.6,41.2,149.8,40.5,153.2,40.1z"/>
			<path class="st2" d="M100.9,42.3c-6.9,3.4-4.7,9.4-5.3,14.5c-0.3,2.9,2.6,8.4-2.8,8.4c-4.2-0.1-2-5.2-2.3-8
				C90,52,92.3,46,83.5,42.5C90.5,40.3,95.4,40.9,100.9,42.3z"/>
			<path class="st3" d="M104.3,51.9c1.4-3-2.7-10.2,2.9-10.1c5.1,0.1,1.9,7.3,2.5,11.2c0.6,3.5-1.2,8.1,5.2,7.8
				c1.3-0.1,2,1.1,1.9,2.4s-1,1.9-2.2,2.4c-6,2.3-10.1-0.4-10.3-6.8C104.2,56.7,104.3,54.6,104.3,51.9z"/>
		</g>
	</g>
</g>
<g>
	<path class="st2" d="M91.5,47.1h-6.2v-4.4h17.8v4.4h-6.3v18.7h-5.3V47.1z M105.8,42.7h5.3v18.7h9.2v4.4h-14.4L105.8,42.7
		L105.8,42.7z M123.4,42.7h5.2v10.2h0.1c0.5-0.9,1.1-1.7,1.6-2.5l5.3-7.7h6.4l-7.7,9.9l8.1,13.3h-6.1l-5.7-10l-2,2.4v7.6h-5.2
		L123.4,42.7L123.4,42.7z M144.6,60.5c1.4,0.7,3.6,1.4,5.8,1.4c2.4,0,3.7-1,3.7-2.5c0-1.4-1.1-2.3-3.9-3.3c-3.8-1.3-6.4-3.5-6.4-6.8
		c0-3.9,3.3-7,8.8-7c2.6,0,4.5,0.5,5.9,1.2l-1.2,4.2c-0.9-0.4-2.6-1.1-4.8-1.1c-2.3,0-3.4,1-3.4,2.2c0,1.5,1.3,2.1,4.3,3.3
		c4.1,1.5,6,3.6,6,6.9c0,3.9-3,7.2-9.3,7.2c-2.6,0-5.3-0.7-6.6-1.4L144.6,60.5L144.6,60.5z"/>
</g>
<line class="st4" x1="0" y1="262.4" x2="0" y2="66.5"/>
<line class="st4" x1="265.9" y1="66.5" x2="265.9" y2="262.4"/>
<path class="st2" d="M74.2,115.3c3.4,7.5,7.2,13.2,17.1,7.6c3.5-2,4.6-3.5,4.7-7.1c0.2-8.6,0.8-17.1,1.3-25.6
	c0.3-4.1,1.7-8.1,6.6-7.8c4.6,0.3,7.5,3.5,7.9,8.2c0.7,9,0.3,17.8-8.1,23.9c-1.1,0.8-2.9,1.3-2.1,3.3c0.7,1.9,2.4,1.2,3.8,1.2
	c6.1,0.1,10.9-0.4,10.4-9c-0.4-7.9,0.7-16,3.6-23.5c2-5.2,5.6-9.9,12-6.7c6.5,3.2,6.7,8.6,3.3,14.5c-4.4-1.4-3.4-8.9-8.3-7.2
	c-4.1,1.4-3.6,6.9-4.5,10.7c-1.9,8,0.1,10.3,7.9,9.1c4.7-0.7,6.8,0.9,6.8,5.4c0,2.5-0.1,4.7,3.4,4.8c3.4,0.1,4.8-1.6,5.4-4.6
	c1.7-8,1.7-16.4,4.7-24.2c1.3-3.3,2.1-7,6.2-7.9c2-0.4,3.5,0.9,4.2,2.5c1.8,4.2-0.9,6.7-3.7,8.9c-3.2,2.5-4.5,6-5.7,10.4
	c5.7,0.3,7.4-4.2,10.2-7.2c2.2-2.3,3.9-5.5,7.7-5.2c1.5,0.2,2.6,1.6,2.4,3.2c-0.3,3.9-1.5,7.6-5.4,9.5c-2.4,1.2-4.8,2.1-7.3,3.1
	c-3.9,1.6-4.9,4.6-4.6,8.5c0.3,3.8,2.2,5.5,6,6.4c8.9,2.1,17.3,5.8,26.3,10.7c-2.1-9.3-7-16.9-7.6-25.7c-0.4-5.6-1.6-11.3,3.9-15.3
	c3.8-2.8,7.3-1.1,10.6,0.9c6.3,4,6.1,10.3,5.6,16.6c-0.1,1.4,0,3.2-2,3.4c-1.7,0.2-2.7-1.2-3.2-2.6c-0.8-2.2-1.2-4.5-1.9-6.8
	c-0.8-2.8-2.4-5-5.6-4.3c-2.7,0.6-3.9,3.2-3.4,5.5c3.3,13.7,6.3,27.5,17.1,39.6c3-10.4,5.3-19.1,8.1-27.7c1.1-3.5,2.3-7.6,6.7-8.6
	c1.6-0.4,2.7,0.9,3.2,2.4c1.6,4.5-1.7,6.8-4.2,9.8c-5.8,7.1-8.2,15.8-8,24.7c0.2,7,7.7,9,12.2,12.9c2,1.7,2.5-1.5,3.4-2.6
	c3.9-4.8,7.6-9.8,11.5-14.6c6-7.5,13.4-13.3,22.4-16.7c2.6-1,6.3-3.7,8.2-1c2.4,3.3-2.6,4.4-4.1,6.5c-8.1,10.9-15.6,22.2-21.2,34.6
	c-3.7,8.2-2.3,16.2,2.2,23.7c4.6,7.6,9.6,14.9,14.3,22.3c2.1,3.3,4.1,6.9,1.4,10.6c-3.1,4.2-7.4,2.7-11.3,1.5
	c-19.4-6.3-30.2-24.3-28.8-47.5c0.8-12.4,0.8-12.4-10.7-20.8c-4.1,8.1,3.2,16.5-0.5,24.6c-6-5.1-7.1-10.1-5.3-23.3
	c0.9-6.4,0.9-6.4-5.4-9.5c-0.9,4.9-1.5,9.8-2.8,14.6c-1.2,4.4-4.6,6.5-9.4,6.5c-5,0-7.8-2.8-8.9-7.1c-1.3-5.5-1.7-11.1,0.7-16.5
	c1.4-3.2,4-4.5,7.2-2.9c2.9,1.5,2.6,4.3,1.8,7c-0.2,0.5-0.5,1.1-0.9,1.5c-2.4,2.5-3.8,5.4-2,8.8c0.9,1.8,2.9,2,4.7,1.4
	c4-1.3,4.9-4.7,5.4-8.3c1-6.1-0.2-10.8-6.7-13.5c-7.7-3.3-15.1-7.5-24.2-8.4c0.6,5.1,2.9,8.8,5.4,12.3c1.8,2.5,2.9,5,2.6,8.2
	c-0.2,2.4,0,5.4-2.9,5.7c-2.8,0.3-3.8-2.4-4-4.9c-0.5-6.9-3-13.2-5.4-19.5c-1.1-2.7-2.9-4.9-5.9-4.2c-3,0.8-1.7,3.9-1.9,6.1
	c-0.3,3.6,0.4,6.9,2.9,9.9c1.6,1.9,2.2,4.7,3.2,7.2c1.8,4.5,0.9,9.3-3.4,10.4c-5,1.3-5.4-4.3-5.9-7.8c-1-6.7-2.6-13.4-1.6-20.2
	c0.8-5.2-1.5-6.5-6.2-6.9c-14.6-1.3-18.8,3.5-13.9,16.6c2,5.2,4.3,9.2,9.6,2.6c1-1.3,2.2-3.3,4.2-1.9c1,0.7,1.9,2.5,1.8,3.8
	c-0.4,5.5-0.1,11.9-7.1,13.7c-6.3,1.6-9.9-2.4-12-7.8c-2.7-6.7-2.8-13.8-3-20.9c-0.1-2,0.7-5.9-3.1-4.6c-3.4,1.2-9.5-1.7-9.7,4.7
	c-0.2,6.1,0.2,12.5,5.1,17.3c1.1,1,2.1,1.9,2.5,3.4c1.1,4.1,2.1,10.1-1.5,11.3c-4.5,1.5-4.7-4.8-5.6-8.1c-1.9-6.5-3-13.2-4.7-19.8
	c-0.4-1.7,0.1-4.6-2.9-4.7c-2.7-0.1-5.7,0.6-7.3,2.6c-1.7,2.1,1.1,3.7,2.2,5c4.5,5.2,6.2,11.6,6.4,18c0.2,6.8-1.1,13.6-8.2,17.4
	c-4.1,2.2-7.6,1.2-10.4-1.9c-5.2-5.7-8.4-12.1-5.4-20.1c0.3-0.7,1.1-1.3,1.9-2.1c4.1,1.6,3.3,5.8,4.8,8.7c1.7,3.2,2.8,7.1,7.3,6.1
	c4.4-1,5.3-4.7,5.5-8.9c0.4-8.1-5.2-12.8-9.7-18.1c-1.5-1.7-3.6-0.3-5.6,0.5c-12.7,5.3-14.6,9-12.7,24.3c-0.7,0.9-1.3,1.8-2,2.7
	c-5.2-19.7-9.4-39.5-5.9-60c0.3-1.8,1.3-4.3-1-5.6c-2-1.1-4.1,0.1-5.7,1.4C27.4,117.8,9,139,10.3,170.9c-0.8,0.7-1.7,1.4-2.5,2
	c-4.9-26.3,6.6-47,23.2-65.6c4.7-5.3,10.1-9.9,15.5-14.5c2.8-2.4,6.3-3.6,9.8-1.7s4.3,5.3,4.2,9.1c-0.5,12.2-3.6,24.6,0.5,36.7
	c15.6-7.1,15.6-7.1,11.7-18.1C73.2,117.6,73.7,116.5,74.2,115.3z M108.4,94.1c-0.9-2.1,1.6-7.2-3.3-6.8c-4.9,0.4-5.7,5.1-5.8,9.4
	c-0.1,3.5,0.4,7.6,4.3,7.1C107.8,103.2,108.3,98.5,108.4,94.1z"/>
<path class="st3" d="M62.3,163.1c0.7-0.9,1.3-1.8,2-2.7c2.3,9,4.7,18,6.8,27.1c1.2,5.2-1,7.6-6.4,7.7c-15.1,0.4-29.7-2.6-44.1-6.7
	c-7.7-2.2-10.6-8.7-12.9-15.5c0.8-0.7,1.7-1.4,2.5-2c1.8,5.6,4.6,9.9,10.7,11.8c13.1,4.2,26.4,5.5,40,5.9c5.9,0.1,7.2-2.2,5.6-7.6
	C64.9,175.1,63.8,169.1,62.3,163.1z"/>
<path class="st2" d="M72.5,93.6c0.5-3.9,2.3-6.6,6.6-6.9c3.7-0.2,6.4,1.8,7.5,5c1.6,4.4,2.9,9.1,0,13.5c-0.5,0.7-2,1.1-3,1.1
	c-1.3,0-1.9-1.2-2-2.4c-0.1-2,0-4.1,0-6.1c0-2.4-0.2-5.1-2.7-6c-3-1.1-3.7,2.1-5,3.8C73.4,94.9,73,94.2,72.5,93.6z"/>
<path class="st3" d="M72.5,93.6c0.5,0.7,0.9,1.3,1.4,2c-2.1,6.6-1.4,13.1,0.3,19.7c-0.5,1.2-1,2.4-1.6,3.6
	C68.5,110.4,68.3,102,72.5,93.6z M49.6,133.8c0.2,4.9,0.5,10.3-6.5,10.1c-6.3-0.2-8-5-8-10.5c0-0.3,0.1-0.6,0.1-0.9
	c0.8-5.1-1.8-13.4,6.6-12.7C48.6,120.1,50.3,127.1,49.6,133.8z"/>
</svg>
