<?xml version="1.0" encoding="utf-8"?>
<!-- Generator: Adobe Illustrator 24.0.1, SVG Export Plug-In . SVG Version: 6.00 Build 0)  -->
<svg version="1.1" id="Layer_1" xmlns="http://www.w3.org/2000/svg" xmlns:xlink="http://www.w3.org/1999/xlink" x="0px" y="0px"
	 viewBox="0 0 609.4 609.4" style="enable-background:new 0 0 609.4 609.4;" xml:space="preserve">
<path d="M387.1,410.1c-3.1,2.6-4.9,4.8-7.4,6c-3.5,1.7-7.4,2.8-11.2,3.6c-1.3,0.2-3.6-1.1-4.3-2.4c-0.5-0.9,0.5-3.1,1.4-4.3
	c1.7-2.2,3.8-4.1,5.6-6c-4.1-5.1-8.5-6.2-14.3-3c-4.1,2.2-7.9,5-11.6,7.8c-6.1,4.6-12.8,5.7-19.8,3c-6-2.4-11.9-5.3-17.8-7.9
	c-8.4-3.7-11.5-1.7-11.3,7.4c0.1,4,0.8,8,1.1,11.9c0.5,8.2-2.6,11.5-10.5,9.9c-7.1-1.5-14-4.1-21.1-6.2c-3.5-1-7-1.8-10.5-2.8
	c-7,9.3-12.3,19-14.5,30.1c-1.3,6.3-2.2,12.7,3.1,18.1c2.8,2.9,0.7,8.2-4,10.6c-6.4,3.2-13.2,3.5-20,1.9
	c-20.2-4.9-37.5-14.9-52.7-28.9c-1.2-1.1-2-2.5-2.4-3.1c-7.2,8.2-13.9,16.9-21.8,24.4c-4.8,4.6-11.1,7.7-17,11
	c-1.9,1.1-4.5,1.1-6.8,0.9c-4.6-0.3-7.6-4.6-5.6-8.8c3.3-6.9,0.3-12.9-3-18.2c-5.5-8.6-13.2-15.4-22.5-20
	c-6.7-3.3-8.4-10.2-4.1-16.6c2.2-3.3,4.8-6.4,6.9-9.8c1.9-2.9,2.4-5.9-1-8.3c-11.7-8.6-14.8-21.4-17-34.7c-0.5-2.9-1.2-5.7-2-9.1
	c-11.9,15.8-23.8,15.1-33.5,10.6c-10.7-5-15.6-16.5-13.1-31.9c-4.1,2.9-7.9,5.9-11.9,8.4c-3.9,2.4-8.1,4.4-12.5,6
	c4.5-3.3,9.3-6.4,13.5-10c4.3-3.7,8.2-7.8,12-12c3.9-4.3,7.2-9.1,11.1-13.5c8.7-9.8,17.5-19.5,26.3-29.2c0.5-0.6,1.3-1,1.8-1.7
	c0.3-0.3,0.3-0.9,0.5-1.9c-7.3-0.2-13.6-2.6-17.9-8.8c-5.1-7.4-7.8-15.6-7.5-24.7c0.2-5,3.2-8.2,7.5-9.5c4.2-1.3,8.7-0.7,11.7,3.4
	c2.7,3.7,4,7.6,1.4,11.9c-2.9,4.7-8.7,5.6-10.7,1.5c-0.6-1.3-0.7-3.3-0.2-4.6c0.4-1.1,2.1-1.7,3.3-2.5c0.7,1.1,1.7,2.2,2,3.4
	c0.3,1-0.1,2.2-0.2,3.5c4.5-2,5.4-5.7,3.9-9.4c-1.4-3.4-4.2-6.1-8.5-5.6c-4.2,0.5-7.3,3.9-7.1,8.2c0.6,16.8,12.9,32.4,34.3,26.8
	c12.5-3.3,16-15.9,14.3-27.1c-1-6.4-3.4-12.2-10.3-14.5c-4.3-1.4-8.4-0.4-11.5,2.7c-3.7,3.6-3.1,8.4-1.3,12.5c1,2.4,3.9,4.1,5.9,6.1
	c0.3-0.4,0.7-0.7,1-1.1c-0.8-1.5-2.2-2.9-2.3-4.4c-0.1-1.9,0.9-4,1.4-5.9c2.1,0.6,5.4,0.8,5.9,2c1.1,2.6,1.8,6.7,0.4,8.6
	c-1.3,1.8-5.6,2.8-8.2,2.2c-6.5-1.5-9.6-8.3-8.6-17c0.7-5.7,5.2-9.5,12.2-10.2c8.7-0.9,16.8,5.5,17.8,14.4c0.5,4.4,0.5,8.8,0.8,13.2
	c0.4,0,0.8,0.1,1.3,0.1c0.5-6,1.6-12,1.2-18c-0.1-2.5-2.7-5.8-5-7.1c-20-11.4-32.3-28.2-37.4-50.5c-0.6-2.7-2.2-5.5-4.1-7.5
	c-6.5-6.8-10.7-14.7-12.9-23.7c-1.1-4.5-0.2-8.7,3.5-11.8c3.7-3.1,2.9-6.3,0.7-9.7c-5.2-8-9.1-16.6-10.5-26.1
	C29,95,34.9,80.7,47.8,69.5C60,59,74.6,58,88.8,63.1c19.7,7.1,32.2,29,20.8,50.6c-7.3,13.8-28.3,24.1-46.4,9c-7.1-5.9-9.6-18-5.9-28
	c3-8.1,10.2-12.7,19.6-12.6c11.2,0.2,18.9,9.3,16.9,20.3c-0.9,4.8-3.9,8.6-8.6,9.2c-3.9,0.5-8.6-0.2-12.1-2
	c-4.3-2.2-4.4-8.6-1.3-12.3c2.8-3.4,5.8-3.6,9.6-1c-2,0.3-4.6,0-6.3,1c-2.8,1.8-4.3,4.7-1.8,8.1c2.7,3.7,8.7,5.3,11.4,2.2
	c2.2-2.4,4.5-6.8,3.7-9.4c-0.9-3.2-4.5-6.7-7.8-7.9c-5.8-2.1-11.7,1.5-14.5,7c-2.8,5.7-1.8,12.3,2.5,16.5c6.1,5.9,15.6,7.1,23.1,3
	c8-4.4,12.1-14.2,11.1-23.3c-1.6-13.6-10.4-19.4-22.2-22.1c-13.9-3.3-27.9,1.8-35.1,13.3c-11.6,18.7-12.9,34.2,2.4,51.5
	c9.6,10.8,20.3,20.2,34.1,25.4c14,5.3,27.9,10.5,41.9,15.9c4.5,1.8,7.7,0.7,9.9-4.2c-1.1-0.1-2-0.2-2.8-0.3
	c-8.8-0.5-13.4-6.7-10.6-15.1c1.2-3.7,2-7,0.5-11c-1.8-4.6,2.3-4.9,6.4-5.3c-0.7-2.3-1-4.4-2-6c-2-3.2-5.1-6-0.7-9.7
	c0.4-0.3,0-1.9-0.3-2.8c-1.7-5.3-3.7-10.5-5.2-15.8c-0.5-1.8,0.2-4,0.4-6c1.7,1.2,4.3,2.1,4.8,3.7c1.4,4.9,1.8,10,2.8,15
	c0.9,4.1,2,8.2,3.2,12.2c0.3,1,1.2,2.4,2,2.5c5.9,0.4,8.4,4,8.9,9.8c6.5-2.6,12.5-5,18.2-7.3c-0.8-3.2-1.7-6.4-2.5-9.6
	c-1.3-4.8,0.5-8.6,4.5-9.4c4.3-0.9,10.1,2.4,10.4,6.4c0.2,3.5-0.8,7-1.2,10.6c-0.1,1-0.1,2.1,0.1,3.2c0.4,2.4,1,4.8,1.3,7.2
	c0.9,6.6-0.9,12.2-6.5,16.3c-0.5,0.4-1.4,0.8-1.4,1.3c-0.9,7-2.4,14-2.4,21c0,3.6,2.8,7.3,4.9,12.3c1.6-3,2.6-4.3,3.1-5.8
	c3-9.8,6.1-19.6,8.8-29.5c0.7-2.4,0.1-5.2,0.3-7.8c0.4-6.8,0.7-13.6,1.3-20.4c0.5-5.3-1.7-8.9-5.2-12.7
	c-7.7-8.4-14.7-17.4-22.8-27.2c4.6-1.7,7.4-2.7,11-4c-2.9,6.3,1.1,10,4.5,13c6.7,6,12.7,13.3,22.6,14.6c1.6,0.2,3,2.3,4.9,3.8
	c0.1-1,0.3-1.8,0.4-3.1c1.9,0.9,3.6,1.7,5.4,2.6c10.7-6.8,12.7-6.7,17.2,1.2c6.5-4.1,13.1-8,19.3-12.5c1.4-1,0.8-4.6,1-6.3
	c1.6-1.2,3-2.3,5.2-4c0.8,2.1,1.6,4.3,2.7,7.1c-7.7,11.6-19.8,19.8-31.6,28.1c-10.7,7.6-13.7,23.4-5.3,34.8c2-2.2,3.8-4.3,5.7-6.3
	c4.7-4.6,9-9.8,14.3-13.6c5.3-3.8,9-7.9,10.2-14.5c0.7-3.8,2.3-7.5,4.2-11.2v6.9c2.4,0.2,4.3,0.4,7.8,0.8
	c-5.6,7.6-10.6,14.4-16.2,22h6.8c-0.3,1.9-0.6,3.8-1,6.5c6.4-4.5,12.9-3.7,18.6-0.3c6.2,3.6,6.2,10.9,7.2,16.9
	c5.6-1.1,11-2.1,16.2-3.1c1.1-9.9,2.6-12.6,8.4-13c7.5-0.6,10.2,4.3,11.1,11c0.4-0.1,0.8-0.3,1.3-0.4c0-5.5-0.5-11,0.1-16.4
	c0.7-5.5-0.4-10.4-2.1-15.4c-1.3-3.7-3-6.8-7.2-8.3c-2.3-0.8-4-3.1-6.6-5.3c4-1.8,6.9-3.6,10.1-4.4c3.8-1,4.5,2.4,5.5,5
	c2.6,7.1,3.9,15.3,8.3,21.1c4.3,5.7,3.1,12.2,5.9,17.5c3.2,6,0.5,11.3,0.5,18c8.2-10.5,9.7-21.1,5-33.2c1.4,0.5,1.8,0.6,1.9,0.8
	c1.2,1.5,2.3,3.1,3.4,4.6c0.8-1.8,1.8-3.6,2.3-5.6c0.6-2.1,0.6-4.4,0.9-6.6h1.3c0.2,2.6,0.4,5.1,0.7,8.5c2-3.1,3.7-5.6,5.3-8.2
	c0.5,0.2,0.9,0.5,1.4,0.7c-1.6,3.3-3.3,6.5-4.9,9.8l0.6,0.6c2.6-1.8,5.2-3.6,7.8-5.3c0.2,0.3,0.5,0.5,0.7,0.8
	c-2.2,1.8-4.3,3.5-6.5,5.3c0.3,0.5,0.6,0.9,0.9,1.4c2-0.5,4-1,6.7-1.8c-15.1,13-15.4,13.4-14.9,21.7c4.4-2.2,8.3-5.3,12.6-6
	c4.6-0.7,9.5,0.8,15.5,1.5c-0.7-3.1-1.2-6.1-2.2-9c-2.2-6.3-7-11.7-5.9-19c0.1-0.6-0.2-1.4-0.4-1.9c-4.7-9.3-4.9-19.2-4.8-29.3
	c0.1-7.6-1.7-14.7-6.1-21.2c1.5,1,2.9,2.1,5.1,3.6c-0.7-3.4-1.2-5.9-1.6-8.3c0.4-0.1,0.8-0.3,1.2-0.4c0.9,2.2,1.8,4.3,3.2,7.5
	c0.7-3.9,1.1-6.7,1.6-9.4c0.4,0,0.8,0.1,1.3,0.1V93c2.2-3,3.7-5,5.2-7c0.4,0.3,0.9,0.5,1.3,0.8c-0.9,1.6-1.9,3.2-2.6,4.9
	c-0.5,1.4-0.6,3-0.9,4.6c1.5,0.1,3,0.3,4.5,0.3c0.9,0,1.8-0.2,3.1-0.3c-0.6,0.9-0.7,1.4-1.1,1.6c-9.4,5-9.6,5.2-6.6,15.4
	c2,6.8,4.3,13.5,6.6,20.7c4.9-3.2,10.1-3.9,15.2-0.6c5,3.2,6.6,8,6.1,13.8l1.2,0.3c0.4-0.8,1.3-1.8,1.2-2.5
	c-1.3-7.2-2.7-14.3-4.3-21.5c-1.8-8.1-2.9-8.8-11.3-8.1c-0.6,0.1-1.3,0-2.2-0.8c0.8-0.4,1.7-0.7,2.5-1.2c1.3-0.8,2.5-1.7,3.7-2.5
	c-1-1.2-1.8-2.6-3-3.6c-1.3-1.2-2.9-2-4.3-3l0.6-1.2c2.2,0.9,4.5,1.9,7.7,3.2c-1.6-3.2-2.9-5.6-4.1-8.1c0.3-0.2,0.7-0.5,1-0.7
	c1.7,2.2,3.4,4.4,5.9,7.6c-0.3-3.6-0.6-6-0.8-8.4c0.3-0.1,0.7-0.2,1-0.3c0.8,2.3,1.7,4.7,2.8,7.9c1.1-1.9,1.8-3.4,2.9-5.3
	c0,2.8-0.6,5.3,0.1,7.4c2.3,7.4,5,14.7,7.6,22c1.8,4.9,3.6,9.9,5.6,15.4c9.4,2.2,11.5,4.7,12.7,16.5c0.6,6.3,4.8,8.8,10.4,5.8
	c1.1-0.6,1.8-2.6,2.1-4.1c1.1-5.9,5.6-9.8,11.5-9.1c3.9,0.5,8.1,1,11.4,3c6.7,4,7.4,13,2.5,19.2c-1.1,1.4-1.4,3.4-2.3,5.1
	c-0.8,1.4-1.9,2.7-3.1,4.5c5.1,1.6,10.2,3.7,15.8,2c3.3-1,4.7-2.4,2.3-6.1c-4.3-6.6-1-15.4,6.3-18.6c1-0.4,1.6-1.8,2.4-2.7
	c3.6,1.2,7.2,2.5,11.5,3.9c0.8-5.8,0.2-11.1,2.3-15.1c3.7-6.9-0.1-10-4.5-13.5c-0.2-0.2-0.3-0.5-0.7-1.2c1.1,0.1,2.1,0,2.9,0.3
	c3.6,1.5,4.1-0.7,3.9-3.3c-0.1-2.6-0.6-5.1-0.9-7.7c0.4-0.1,0.9-0.2,1.3-0.3c0.5,1.6,1,3.2,1.8,5.6c0.7-2.7,1.3-4.8,1.9-6.9
	c0.3,0,0.6,0,1,0.1c0.2,1.4,0.4,2.9,0.7,4.6c0.9-0.7,1.6-1.3,3.2-2.5c-1,3.1-1.6,5.2-2.3,7.3c0.2,0.2,0.5,0.3,0.7,0.5
	c1.5-1.3,3-2.5,4.6-3.9c-1.9,5.1-3.6,9.9-5.4,14.8c6.2,4.9,6.2,4.9,4.3,19.8c6.7-3,9.5-6,11.5-12.8c0.8-2.9,1.6-5.8,2.2-8.7
	c1.7-8.4,5.2-15.7,10.7-22.5c6.3-7.9,5.7-8.5,5.2-20.8c1.3,2.1,2.2,3.5,3.6,5.6c3.3-2.2,6.4-4.3,9.5-6.4c0.2,0.3,0.4,0.5,0.6,0.8
	c-0.7,1-1.5,1.9-2.5,3.3c1.5-0.3,2.6-0.5,3.7-0.8c0.4,0.3,0.7,0.7,1.1,1c-2,2.3-4,4.6-6.1,7.1c0.4,0.3,1.2,0.9,2.2,1.6
	c-4.6,0.8-9.5,7.9-12.4,17.3c4.4,5.3,10.2,5.6,16.6,5.4c13.2-0.4,22.3-8.3,31.5-16c1.4-1.1,1.3-4,1.9-6.1c0,0,0.7,0.1,0.8,0.4
	c0.7,5,5.3,6.1,8.4,8.7c1.5,1.3,2.5,3.3,3.3,5.8c-7.5-4.2-12,0.9-17,4.3c-7.1,4.9-14.2,9.9-21.3,14.9c3.5,1.3,7,2.7,10.3,3.9
	c-0.4,1.6-0.7,2.6-0.9,3.4c-3.7-0.4-7.8-0.8-11.9-1.2c-0.1,0.5-0.2,1-0.3,1.4c3.4,0.9,6.9,1.8,10.3,2.8c-0.1,0.3-0.1,0.5-0.2,0.8
	c-4.8-0.6-9.5-1.3-14.3-1.8c-1.3-0.1-3-0.3-3.8,0.4c-8.7,7.7-17.8,15.5-19.8,27.8c-0.8,4.7,0.1,10,1.4,14.8
	c2.3,8.5,0.7,16.4-3.3,23.5c-4.9,8.6-5.7,17.2-3,26.4c1,3.6,2.8,6.3,7.2,6.4c4.3,0,7.3-1.2,8.9-5.6c2.5-6.8,5.6-13.2,11.8-17.5
	c8.9-6.1,23-3.4,28.3,5.6c5.4,9.1,2.5,21-6.7,25.4c-8,3.8-16.4,4.2-24.8,1.3c-1.6-0.5-3.1-1.2-4.7-1.8c-3.7-1.3-6.6,0.2-7.5,3.7
	c-4,15.8-2.8,31.1,5.7,45.3c3,4.9,7.4,6.2,12.6,3.7c5.1-2.5,9.8-6,14.4-9.4c4-3,7.4-6.7,11.3-9.8c15.8-12.2,33.8-1.9,38.8,11.1
	c4.2,10.7,3.3,21.3-2.4,31.3c-4.8,8.3-12.6,11.6-22.1,9.9c-12.8-2.2-22-9.9-29.4-20c-4.7-6.5-10.5-12.3-18.5-10.1
	c-9.4,2.6-18.4,7.6-24.1,16.2c-1.7,2.5-1.6,6.4-2,9.7c-1.5,10.7-2.9,21.3-4.4,33.2c2.8,0.4,6.6,0.6,10.3,1.4
	c5.9,1.4,12.2,2.2,17.5,5c7.6,4.1,6.9,12.8-0.7,17.1c-4.5,2.5-7.5,1.3-10.4-3.1c-3.4-5.2-7-10.5-11.3-15c-3.4-3.6-7.8-4-12.9-0.3
	c-5.2,3.8-11.9,5.9-18.2,7.8c-19.8,5.7-29.5,15.8-30.9,40.6c-0.6,11.4,0.7,23,2.1,34.3c1,8,5.6,14.3,13,18.6
	c6.9,4,13.9,8.1,19.9,13.2c11.3,9.6,14.1,25.8,7.7,38.7c-5.5,11.2-19.4,18.2-32.8,16.5c-12.1-1.5-21.1-10-23.3-23.3
	c-1.4-8.6-2.1-17.5-1.9-26.3c0.2-9.8,4.8-17.6,14.1-21.9c4.1-1.9,3.7-3.7,1.6-7.2c-3.4-5.5-5.9-11.5-8.6-17.4
	c-2.6-5.8-4.4-11.9-7.2-17.5c-2.9-5.9-7.1-6.5-12.2-2.4c-3.7,3.1-6.9,6.8-10.7,9.8c-6.5,5.2-10,4.1-12.2-3.9
	c-1.6-5.6-2.4-11.4-4.1-17C391.3,418.2,389.1,414.4,387.1,410.1L387.1,410.1z M79.8,357.1c-5.5,0.3-7.2,3.1-5.8,9.8
	c1.3,6.5,3,13,4,19.5c1.7,12.1,8.9,19.5,19.4,24.5c1.5,0.7,2.8,2,4.2,3.1c-0.1,0.4-0.2,0.9-0.3,1.3c-4.7-1.7-6.2,1.3-7.9,4.4
	c-1.6,2.9-3.7,5.5-5.7,8.2c-4.5,6.1-3.2,11.6,3.3,15.9c12,7.9,22.9,17,26.5,31.8c3.4-2.1,6.6-4.2,10.7-6.7
	c-4.4,5.2-8.3,9.2-11.3,13.8c-2.8,4.2-0.3,7.8,4.8,7.6c1.8-0.1,3.9-0.3,5.3-1.2c5-3.2,10.6-6,14.4-10.3c9-10.2,17.4-20.9,25.4-31.9
	c10.5-14.5,16.8-30.3,13.5-49c-1.9-10.6-1.8-21.5-3.3-32.2c-1.9-13.5-4.5-26.9-6.8-40.3c-0.8-4.5-3.1-4.5-6.4-2.6
	c-1,0.6-1.9,1.3-2.8,2.1c-14.4,12.5-28.8,25.2-46.4,33.3c-8,3.7-16.2,7-24.6,9.4c-3.3,0.9-7.8-0.7-11.1-2.3
	c-0.9-0.4,0.5-5.4,0.8-8.3c3.6-2.1,7.2-4.1,10.8-6.2c0.2,0.4,0.5,0.8,0.7,1.1c-0.6,0.7-1,1.5-1.7,2.1c-1.9,1.5-4.2,2.7-5.9,4.4
	c-1.3,1.3-1.9,3.2-2.9,4.9c1.7,0.6,3.6,2.1,5.2,1.8c6.2-1.3,12.4-3.1,19-4.8c-1.6-4.8-2.7-8.9-4.3-12.9c-0.4-0.9-2.6-2.2-3.3-1.8
	C91.1,348.6,83.2,349.6,79.8,357.1L79.8,357.1z M237.9,470.6c0.5-5.2,0.1-10.4,1.6-14.9c2.7-8.1,6.4-16,10.2-23.7
	c3.1-6.2,2.1-10.7-3.9-14c-1.6-0.9-3.1-2-4.8-2.6c-2.4-1-4.9-1.7-8-2.7c0.2-0.4,0.7-2.1,1.8-3.4c6.4-8.4,9.9-17.5,7.3-28.3
	c-1.1-4.8-1.7-9.8-2.3-14.7c-0.6-4.6-1.6-8.4-7.6-8.4c-2.6,0-5.1-1.2-7.7-1.6c-10.2-1.6-12.2,0.3-11.2,10.4c0.1,1.4,0.4,2.9,0.8,5.3
	c5.8-1.4,11.2-2.6,16.5-4.2c1.1-0.3,2.4-2.6,2.2-3.7c-0.2-1-2.2-2-3.5-2.5c-2.2-0.8-4.6-1.3-7-1.9c1.2-1.3,2.2-1.6,3.1-1.4
	c4,0.9,9.1,0.2,10.7,5.4c1,3.2-3.6,7.3-9.7,8.3c-7,1.1-14.2,2-21.3,2.1c-8.2,0.1-16.4-0.8-24.7-1.2c0.9,7.7,2.2,15.3,2.7,22.9
	c0.5,8.2,1.8,16.9-0.3,24.5c-2.5,9.1-7.9,17.5-12.7,25.8c-4.1,7.2-4.7,9.1,2.1,14c9.5,6.9,19.4,13.5,29.7,18.9
	c7.3,3.8,15.5,6,23.6,7.5c4.4,0.8,9.6-0.3,13.9-2c5.2-2.1,5.2-6.8,0.4-9.6c-3.2-1.8-7.1-2.5-10.6-3.6v-0.6
	C232.1,470.6,235.1,470.6,237.9,470.6L237.9,470.6z M59.9,193.2c0.9,13.1,7.6,22.3,16.9,29.9c12.2,9.8,26.4,15.9,40.7,22
	c12,5.2,24.4,9.8,36.1,15.6c14.4,7.2,20.1,20.7,16.1,35.9c-4.7,18.2-27.2,26.8-42.3,16.1c-7.3-5.1-9.6-12.6-8.4-21.1
	c0.9-6.7,5.4-10.8,11.8-12.9c6.3-2.1,12-0.4,16,4.9c2.9,3.7,2.8,9.1,0,13.5c-2.5,3.9-6.8,5-11.4,3.1c-4.2-1.7-5-5.2-4.3-9
	c0.7-4.2,3.7-5.5,7.7-5.1c3.8,0.4,4.7,3.2,4.3,6.1c-0.6,5.2-4.7,3.7-8.3,2.9c3.1,4.3,7.9,4,10.1-0.1c2.8-5.3-0.5-11.7-6.8-12.8
	c-4.7-0.8-8.5,0.7-11.4,4.5c-3.1,4.2-4,8.8-1.7,13.6c5.3,10.8,20.4,12.4,28.6,2.9c5.9-6.9,7.2-14.9,3.8-23.3
	c-4.1-9.9-12.2-14.9-22.5-15.7c-21.9-1.6-30.8,18.7-27.2,35.3c2.9,13.7,12.1,22.8,25.6,25.8c14.9,3.3,28.8-0.9,39.3-11.6
	c11.2-11.4,10.5-26.4,7.5-40.9c-2.4-11.8-10.5-20.1-20.8-25.5c-12.4-6.4-25.2-12-38-17.4c-20.8-8.8-41-18.4-57.5-34.3
	C62.7,194.8,61.5,194.2,59.9,193.2L59.9,193.2z M125.8,188.7c-11.4-4.8-22.4-9.3-33.3-14.1c-12.2-5.3-24.6-10-35.1-18.4
	c-3.6-2.9-9.9-1.2-11.2,3.2c-1,3.4-1.7,8.2-0.1,10.8c3.5,5.7,7.9,11.2,13.2,15.2c21.5,16.2,45.9,27.3,70.9,37.1
	c1.4,0.5,3,0.5,5.3,0.8C129.5,212.1,122,202.3,125.8,188.7z M369.8,273.2c0.5-8.3-0.3-15.8-4.4-22.4c-1.7-2.8-1.9-4.6,0.1-7.4
	c4.5-6.4,5.9-13.9,6.2-21.7H355c-1.2,7.1-1.6,14.4-10.8,16.8v-16.4h-16.3v51.4H344v-19.4c2.1,1.1,4.1,1.4,4.5,2.4
	c2.1,5.4,3.9,11,5.9,16.6C358.9,273.2,364.1,273.2,369.8,273.2L369.8,273.2z M390.9,338.9c-3.3-9.4-6.4-18.2-9.8-27.7
	c4.5-6.5,5.6-15,5.3-24.2h-15.3c-1.9,12.9-3.2,15.2-9.9,16.3v-15.8h-15.4v51.1h16.3v-19.1c8.9,4.1,7.9,12.4,10.1,19.9H387
	C387.7,339.6,388.4,339.4,390.9,338.9L390.9,338.9z M47.1,356.8c-1-4.9,2-6.7,5.8-7.6c3.7-0.8,7.9,2,8.8,5.7
	c1.4,5.2-0.7,10-5.2,12.2c-5.2,2.5-11.9,1.1-14.9-3.1c-6.8-9.7-3.6-19.4,7.7-23.1c7.9-2.6,16.6,1.7,20.3,10.1c0.9,1.9,1.5,4,2.2,6
	c4.3-1.7,4.9-4.2,2.5-7.8c-1.2-1.8-2.1-3.8-2.8-5.8c-3.7-11.8-7.3-23.6-11.1-36.3c-1.2,0.7-3.8,1.4-5.4,3.1
	c-6.6,7-13.5,13.9-19.3,21.6c-3.8,5-6.9,11-8.6,17c-4.4,16.3,9.1,30,25.4,26.3c7.4-1.7,11.4-7,12.9-14.3c1.1-5.5-1.2-9.7-5.6-12.9
	c-4.5-3.3-11.4-1.9-14.5,2.8c-2.8,4.3-1.5,10,2.8,12.7c3.6,2.2,8.8,0.9,10.9-2.7c1.9-3.3,0.6-7.8-2.7-9.4c-3.6-1.8-6.3-0.2-8.5,4.9
	C47.8,356.3,47.4,356.5,47.1,356.8L47.1,356.8z M207,341.9c7.2,3.4,14.4,3.4,21.6,1.8c9.4-2,14.1-8.5,15.7-17.8
	c1.4-8.5-2.9-13.5-9.8-17.1c-0.9-0.5-2-0.9-2.4-1.7c-0.9-1.7-1.4-3.5-2.1-5.3c2,0,4.4-0.7,6,0.1c2,1,3.4,3.3,5.4,5.4
	c1.6-5.8,3-10.9,4.5-16.3c-7.4-3.6-14.7-5.3-22.3-2.3c-2.9,1.2-5.8,3.6-7.3,6.3c-6.4,10.7-4,21.4,5.9,28.7c0.4,0.3,1.1,0.5,1.2,0.9
	c0.3,1.9,0.5,3.8,0.8,5.8c-1.8,0-4.1,0.8-5.3,0c-2-1.4-3.2-3.8-5-5.9C211.6,330.3,209.4,336,207,341.9L207,341.9z M271.8,320.6
	c7.2,3.9,11.5,3.6,15.7-0.9c6-6.4,7.1-19.4,2-26.5c-1.3-1.8-3.4-3.9-5.3-4c-9-0.9-18-1.1-26.5-1.5c-1.4,18.8-2.7,36.3-4,54.4
	c5.3-0.4,10.6-0.7,15.9-1.1C270.4,333.9,271.1,327.4,271.8,320.6L271.8,320.6z M400.2,321c-0.8,4.7-1.7,9-2.1,13.2
	c-0.1,1.1,0.8,3,1.7,3.4c7.5,2.9,15.3,4.6,23.4,2.6c4.1-1,6.6-3.7,7.7-7.7c2.5-9.1-0.9-18.3-8.9-23.4c-2.2-1.4-4.8-2.5-6.7-4.2
	c-1.2-1.1-1.4-3.2-2-4.9c1.8-0.1,4-0.9,5.4-0.2c2.3,1.3,4,3.5,6.4,5.7c1.2-5.7,2.3-10.8,3.7-17.2c-6.3-0.7-12-2-17.6-1.9
	c-5.3,0.1-10,2.4-12.5,7.7c-4.4,9.3-1.7,19.3,6.8,24.9c1.9,1.3,4.1,2.4,5.6,4c0.8,0.9,0.5,2.9,0.7,4.4c-1.4,0.1-3.2,0.8-4.1,0.1
	C405.2,325.8,403,323.5,400.2,321L400.2,321z M329.7,306.6h-10c0.2-1.9,0.3-3.5,0.5-5.4h13.3v-13.5c-9.2,0-18-0.1-26.7,0.2
	c-1,0-2.6,2.2-2.7,3.4c-0.4,6.5-0.4,13-0.4,19.4c-0.1,9.6,0,19.2,0,28.6h30v-13.9h-14.6c1.2-7.6,7.5-2.9,10.6-5.8L329.7,306.6
	L329.7,306.6z M406.5,272.8c2.6-9.6-0.7-19.9,5.2-28.8c5.3-8,10-16.5,15-24.8c-10.9-1.4-20.4-0.8-23.9,13.2c-1.5-4-2.6-6.1-3.1-8.3
	c-0.8-3.5-2.9-4.3-6.2-4c-4.1,0.5-8.3,0.6-12.9,1c3.5,8.6,8.1,16.6,9.8,25.3c1.7,8.5,0.4,17.6,0.4,26.3
	C396.8,272.8,401.6,272.8,406.5,272.8z M258.9,273.8h15.6c-0.7-10.6-1.4-20.9-2.1-31.5c2.6-0.2,5-0.3,7.8-0.5
	c-0.9-7.2-1.8-13.9-2.7-20.7c-11.6-0.6-22.6-1.1-34-1.7c1.4,7.5,2.7,14.5,4,21.5c2.8,0.2,5.2,0.5,8.2,0.7
	C256.8,252.3,257.8,262.8,258.9,273.8L258.9,273.8z M460.3,341.9c-1.9-18.4-3.8-36.8-5.7-55.1h-14.8c-0.1,17.9,1.5,35.2,4.7,52.4
	c0.2,1.1,1.8,2.6,2.8,2.6C451.7,342,456.2,341.9,460.3,341.9z M290,238.2c1.4,9.6,2.2,18.7,4.2,27.5c1.4,5.8,7,9.1,11.9,8.8
	c4.9-0.3,9.7-4,10.5-9.9c1.1-8.6,1-17.4,1.4-26.3h-12.5v19.6h-1.8c-0.5-6.5-1-13-1.5-19.7L290,238.2L290,238.2z M86.9,346.9
	c-5.7-18.5-11-36.7-0.8-55.6c-12.5,4.9-17.9,11.8-17.1,22.8c0.5,7.1,2.1,14.1,3.9,21c1.5,5.6,4,11,6.3,16.8
	C82.3,349.8,84.4,348.5,86.9,346.9z M102.3,268.1c6.6-3.9,13.7-8.1,20.9-12.3c-7.2-3.1-15-6.4-23.1-9.9
	C100.9,253.9,101.6,261.5,102.3,268.1z M204.6,186.8c-3.4-3-5.7-5.7-8.6-7.4c-1.3-0.8-4.6-0.5-5.5,0.6c-3.8,4.7-7,9.8-10.9,15.7
	C189.7,196.2,195.9,190.1,204.6,186.8z M147.1,183.3c-2.6,2.8-4.7,5-6.6,7.1c3.9,4.6,7.2,8.3,13.5,6.4
	C151.8,192.5,149.7,188.4,147.1,183.3z"/>
<path d="M389.2,468.4c-2.2,9.4-5.9,17.6-13.3,23.4c-1.9,1.5-4.8,2.2-7.4,2.4c-4.2,0.3-7.5-1.7-8.6-6c-1.1-4.1,1.4-6.7,4.7-8.4
	c2.6-1.4,5.6-2.1,8.2-3.4C378,473.9,383.3,471.3,389.2,468.4L389.2,468.4z M100.5,446.2c19.3-0.1,36.7-4.8,50.1-19.8l1.2,0.6
	c0,2.3,0.1,4.6,0,6.9c-1.1,18.1-13.6,27.7-29.3,33.2c-3.1,1.1-4.8-0.1-6.8-2.8c-4-5.4-8.8-10.2-13.4-15.2c-0.6-0.7-1.7-0.9-2.5-1.3
	C100.1,447.2,100.3,446.7,100.5,446.2L100.5,446.2z M124.8,414.8c0.3-9.6,13.4-14.8,20.6-10.8c2.5,1.4,5.8,1.2,8.8,1.7
	c3.5,0.5,7,0.9,10.7,2.5c-11.4-1.6-20.4,0.2-23.2,13.5c-2.4-3.9-2.4-3.9,2.4-11.5C137,407.7,131,409.7,124.8,414.8L124.8,414.8z
	 M107.2,437.6c-4.8,0.3-8.2-1.3-9.7-5.4c-1.4-3.9-0.8-7.9,2.8-10.1c4.1-2.5,8.4-1.4,13.5,1.7c-5.5,0.5-11.1-3.6-13.8,2.2
	C97,432.2,102.1,435.1,107.2,437.6L107.2,437.6z M242.5,439c-2.2,8.2-4.1,16.1-6.6,23.7c-0.6,1.8-3.4,3.3-5.5,4
	c-15.2,4.7-29-2.3-34.3-17.2c-0.1-0.4,0.1-1,0.4-2.1C213.2,452.7,228.2,447.6,242.5,439L242.5,439z M214.6,424.7
	c-7.2-0.9-13.2,0.5-17.8,5.1c2.5,2.4,4.7,4.7,6.9,6.9c-0.3,0.5-0.6,1.1-0.9,1.6c-8.5-10.5-16.1-5.6-23.6,1.2
	c-0.3-0.5-0.5-1.1-0.8-1.6c3-2.2,6-4.3,8.9-6.5c2.3-1.7,4.9-3.3,6.5-5.5C199.3,418.8,208.9,417.6,214.6,424.7L214.6,424.7z
	 M233.7,436.1c2.5-4.1,8.7-8,3.4-13.1c-4.5-4.3-6.9,2.8-10.6,3.9c-0.3-0.4-0.6-0.8-0.9-1.3c3-2.1,5.8-4.7,9.1-6.1
	c3.1-1.3,7.2,2.9,6.2,6.8c-1,3.8-3.5,7.3-5.3,10.9C235,436.9,234.3,436.5,233.7,436.1L233.7,436.1z M272.8,311.2V300
	c3.7-0.7,5,1,5.1,4C278,307.5,277.6,310.7,272.8,311.2z"/>
</svg>
